M48
; DRILL file {KiCad (5.1.6-0-10_14)} date Wednesday, September 02, 2020 at 10:05:34 PM
; FORMAT={-:-/ absolute / inch / decimal}
; #@! TF.CreationDate,2020-09-02T22:05:34+02:00
; #@! TF.GenerationSoftware,Kicad,Pcbnew,(5.1.6-0-10_14)
FMAT,2
INCH
T1C0.0157
T2C0.0276
T3C0.0295
T4C0.0354
T5C0.0394
T6C0.1102
T7C0.0433
T8C0.0669
T9C0.0787
T10C0.1260
%
G90
G05
T1
X0.0394Y3.7795
X0.0394Y3.7008
X0.0394Y3.622
X0.0394Y3.5433
X0.0394Y3.4646
X0.0394Y0.5118
X0.0394Y0.3937
X0.0394Y0.2362
X0.0394Y0.1575
X0.1181Y3.7795
X0.1181Y0.1575
X0.1969Y3.7795
X0.1969Y0.1575
X0.2756Y3.7795
X0.2756Y0.1575
X0.3015Y1.2105
X0.3015Y0.6805
X0.3415Y3.2655
X0.3415Y2.7955
X0.3415Y2.3205
X0.3415Y1.8505
X0.3543Y3.7795
X0.3543Y0.1575
X0.4331Y3.7795
X0.4331Y0.1575
X0.5118Y3.7795
X0.5118Y0.1575
X0.5906Y3.7795
X0.5906Y0.1575
X0.6665Y3.2005
X0.6665Y2.7305
X0.6665Y2.2555
X0.6665Y1.7855
X0.6693Y3.7795
X0.748Y3.7795
X0.7815Y0.4055
X0.7874Y0.1575
X0.8015Y3.2555
X0.8015Y2.7855
X0.8015Y2.3105
X0.8015Y1.8405
X0.8015Y1.3255
X0.8015Y0.7905
X0.8268Y3.7795
X0.8315Y3.2255
X0.8315Y2.7555
X0.8315Y2.2805
X0.8315Y1.8105
X0.8315Y1.2955
X0.8315Y0.7605
X0.8615Y3.2555
X0.8615Y2.7855
X0.8615Y2.3105
X0.8615Y1.8405
X0.8615Y1.3255
X0.8615Y0.7905
X0.8661Y0.1575
X0.8915Y3.2255
X0.8915Y2.7555
X0.8915Y2.2805
X0.8915Y1.8105
X0.8915Y1.2955
X0.8915Y0.7605
X0.9055Y3.7795
X0.9215Y3.2555
X0.9215Y2.7855
X0.9215Y2.3105
X0.9215Y1.8405
X0.9215Y1.3255
X0.9215Y0.7905
X0.9365Y0.7005
X0.9365Y0.6605
X0.9449Y0.1575
X0.9515Y3.2255
X0.9515Y2.7555
X0.9515Y2.2805
X0.9515Y1.8105
X0.9515Y1.2955
X0.9515Y0.7605
X0.9815Y3.2555
X0.9815Y2.7855
X0.9815Y2.3105
X0.9815Y1.8405
X0.9815Y1.3255
X0.9815Y0.7905
X0.9843Y3.7795
X1.0115Y3.6955
X1.0115Y3.6255
X1.0115Y3.5555
X1.0115Y3.2255
X1.0115Y3.1655
X1.0115Y3.1205
X1.0115Y3.0755
X1.0115Y2.7555
X1.0115Y2.6955
X1.0115Y2.6505
X1.0115Y2.6055
X1.0115Y2.2805
X1.0115Y2.2155
X1.0115Y2.1755
X1.0115Y2.1355
X1.0115Y1.8105
X1.0115Y1.7455
X1.0115Y1.7055
X1.0115Y1.6555
X1.0115Y1.6155
X1.0115Y1.2955
X1.0115Y1.2355
X1.0115Y1.1855
X1.0115Y1.1355
X1.0115Y1.0855
X1.0115Y0.7605
X1.0236Y0.1575
X1.0765Y3.5555
X1.1015Y3.5905
X1.1024Y0.1575
X1.1265Y3.5555
X1.1515Y3.5905
X1.1765Y3.5555
X1.1811Y0.1575
X1.2015Y3.5905
X1.2265Y3.5555
X1.2415Y0.7155
X1.2515Y3.5905
X1.2598Y0.1575
X1.2765Y3.5555
X1.2865Y3.4905
X1.3015Y3.5905
X1.3115Y3.5255
X1.3365Y3.5555
X1.3365Y3.4905
X1.3386Y0.1575
X1.3615Y3.5255
X1.3865Y3.5555
X1.3865Y3.4905
X1.4015Y0.6005
X1.4115Y3.5255
X1.4165Y1.3255
X1.4165Y1.2755
X1.4165Y0.7705
X1.4165Y0.7205
X1.4173Y0.1575
X1.4365Y3.5555
X1.4365Y3.4905
X1.4515Y0.8505
X1.4615Y3.5255
X1.4815Y3.3555
X1.4815Y3.3155
X1.4815Y3.1205
X1.4815Y2.5255
X1.4865Y3.5555
X1.4865Y3.4905
X1.4961Y0.1575
X1.4965Y2.6005
X1.5165Y2.6605
X1.5565Y2.7855
X1.5565Y2.6605
X1.5748Y0.1575
X1.5815Y2.924
X1.6265Y2.7855
X1.6465Y2.1055
X1.6535Y0.1575
X1.6865Y2.1505
X1.7265Y2.1155
X1.7265Y1.7055
X1.7323Y0.1575
X1.7715Y2.1505
X1.7865Y2.9905
X1.7865Y2.9505
X1.7865Y2.9105
X1.7865Y2.8705
X1.8015Y1.9505
X1.811Y0.1575
X1.8265Y2.9905
X1.8265Y2.9505
X1.8265Y2.9105
X1.8615Y2.1505
X1.8665Y2.9905
X1.8665Y2.9505
X1.8765Y1.9055
X1.8898Y0.1575
X1.9065Y2.9905
X1.9215Y3.3555
X1.9459Y1.2111
X1.9515Y2.1505
X1.9685Y0.1575
X1.9915Y3.7855
X1.9915Y3.7405
X1.9915Y3.6955
X1.9915Y3.6455
X1.9915Y3.6005
X1.9915Y3.5555
X1.9915Y3.5055
X2.0115Y3.3055
X2.0315Y3.7605
X2.0315Y3.7155
X2.0315Y3.6705
X2.0315Y3.6255
X2.0315Y3.5805
X2.0315Y3.5305
X2.0315Y2.1055
X2.0472Y0.1575
X2.0715Y3.7855
X2.0715Y3.7405
X2.0715Y3.6955
X2.0715Y3.6455
X2.0715Y3.6005
X2.0715Y3.5555
X2.0915Y2.0705
X2.1215Y3.6955
X2.126Y0.1575
X2.1315Y3.1905
X2.1415Y3.3455
X2.1815Y3.6005
X2.2047Y3.7795
X2.2047Y0.1575
X2.2362Y3.5315
X2.2365Y3.4455
X2.2665Y3.1905
X2.2835Y3.7795
X2.2835Y0.1575
X2.2915Y3.6005
X2.3415Y2.7955
X2.3515Y3.7655
X2.3515Y3.6955
X2.3515Y3.5055
X2.3622Y0.1575
X2.3715Y2.8255
X2.3715Y2.7655
X2.3715Y0.6855
X2.3715Y0.6255
X2.3715Y0.5655
X2.3715Y0.5055
X2.3715Y0.4455
X2.3765Y3.7305
X2.4015Y3.7655
X2.4015Y3.6955
X2.4015Y3.6455
X2.4015Y3.6005
X2.4015Y3.5555
X2.4015Y3.5055
X2.4015Y2.8555
X2.4015Y2.7955
X2.4265Y3.7305
X2.4315Y2.8855
X2.4315Y2.8255
X2.4409Y0.1575
X2.4465Y3.1955
X2.4465Y3.1455
X2.4465Y3.0955
X2.4515Y3.7655
X2.4515Y3.6955
X2.4515Y3.6455
X2.4515Y3.6005
X2.4515Y3.5555
X2.4515Y3.5055
X2.4515Y3.4055
X2.4515Y3.3155
X2.4615Y2.9155
X2.4615Y2.8555
X2.5197Y0.1575
X2.5215Y3.6855
X2.5215Y3.6455
X2.5215Y3.6055
X2.5215Y3.5655
X2.5215Y3.5255
X2.5984Y0.1575
X2.5996Y2.4486
X2.6415Y3.0455
X2.6515Y3.1905
X2.6715Y3.6855
X2.6715Y3.6455
X2.6715Y3.6055
X2.6715Y3.5655
X2.6715Y3.5255
X2.6772Y0.1575
X2.6915Y3.4255
X2.6915Y3.3855
X2.6915Y2.9155
X2.7215Y3.1905
X2.7365Y3.4255
X2.7365Y3.3855
X2.7559Y0.1575
X2.8215Y3.4255
X2.8215Y3.3855
X2.8346Y0.1575
X2.8665Y3.4255
X2.8665Y3.3855
X2.8865Y3.6855
X2.8865Y3.6455
X2.8865Y3.6055
X2.8865Y3.5655
X2.8865Y3.5255
X2.9015Y3.1855
X2.9015Y2.0805
X2.9134Y0.1575
X2.9615Y3.1255
X2.9615Y3.0855
X2.9615Y3.0455
X2.9615Y3.0055
X2.9615Y2.9655
X2.9615Y2.9255
X2.9615Y2.8855
X2.9615Y2.8455
X2.9615Y2.8055
X2.9615Y2.7655
X2.9615Y2.7255
X2.9715Y3.1655
X2.9921Y0.1575
X3.0015Y3.1855
X3.0365Y3.6855
X3.0365Y3.6455
X3.0365Y3.6055
X3.0365Y3.5655
X3.0365Y3.5255
X3.037Y2.051
X3.0415Y3.4255
X3.0415Y3.3855
X3.0415Y3.1855
X3.0665Y2.1155
X3.0709Y0.1575
X3.0815Y2.0555
X3.0815Y1.9855
X3.0815Y1.9355
X3.1015Y3.5705
X3.1015Y3.5305
X3.1015Y3.4905
X3.1113Y1.1403
X3.1165Y2.6605
X3.1415Y3.5705
X3.1415Y3.5305
X3.1415Y3.4905
X3.1415Y1.1705
X3.1496Y0.1575
X3.1565Y2.6605
X3.1765Y1.1405
X3.1815Y3.5705
X3.1815Y3.5305
X3.1815Y3.4905
X3.1965Y2.6605
X3.1965Y2.1155
X3.2065Y1.1705
X3.2283Y0.1575
X3.2365Y2.6605
X3.2365Y1.8555
X3.2415Y3.1855
X3.2515Y3.6855
X3.2515Y3.6455
X3.2515Y3.6055
X3.2515Y3.5655
X3.2515Y3.5255
X3.2765Y2.6605
X3.2787Y1.5483
X3.2815Y3.1855
X3.2815Y2.1505
X3.2815Y1.8555
X3.3071Y0.1575
X3.3165Y2.6605
X3.3215Y3.1855
X3.3315Y1.7205
X3.3565Y2.6605
X3.3615Y3.1855
X3.3815Y1.9406
X3.3822Y1.9012
X3.3858Y0.1575
X3.3965Y2.6605
X3.4015Y3.6855
X3.4015Y3.6455
X3.4015Y3.6055
X3.4015Y3.5655
X3.4015Y3.5255
X3.4015Y3.1655
X3.4115Y3.4255
X3.4215Y3.1255
X3.4215Y3.0855
X3.4215Y3.0455
X3.4215Y3.0055
X3.4215Y2.9655
X3.4215Y2.9255
X3.4215Y2.8855
X3.4315Y1.9755
X3.4646Y0.1575
X3.4665Y1.6655
X3.4665Y1.5505
X3.4815Y2.8055
X3.4815Y2.7655
X3.4815Y2.7255
X3.5065Y1.9755
X3.5065Y1.8505
X3.5115Y3.4255
X3.5115Y3.2755
X3.5215Y2.8055
X3.5215Y2.7655
X3.5215Y2.7255
X3.5315Y1.5555
X3.5433Y0.1575
X3.5465Y3.7605
X3.5465Y3.7155
X3.5465Y3.6705
X3.5465Y3.6255
X3.5465Y3.5805
X3.5465Y3.5355
X3.5465Y3.4905
X3.5515Y1.9755
X3.5615Y2.8055
X3.5615Y2.7655
X3.5615Y2.7255
X3.5665Y2.4755
X3.5715Y3.2755
X3.5815Y3.7855
X3.5815Y3.7355
X3.5815Y3.6905
X3.5815Y3.6455
X3.5815Y3.6005
X3.5965Y3.4905
X3.6015Y3.1705
X3.6015Y3.1255
X3.6015Y3.0855
X3.6015Y2.5105
X3.6165Y3.7605
X3.6165Y3.7155
X3.6165Y3.6705
X3.6165Y3.6255
X3.622Y0.1575
X3.6415Y3.4905
X3.6515Y3.7855
X3.6515Y3.7355
X3.6515Y3.6905
X3.6515Y3.6455
X3.6515Y3.6005
X3.6515Y0.6855
X3.6515Y0.6255
X3.6515Y0.5655
X3.6515Y0.5055
X3.6515Y0.4455
X3.6565Y2.1905
X3.6665Y1.6405
X3.6915Y3.7605
X3.6915Y3.7155
X3.6915Y3.6705
X3.6915Y3.6255
X3.6915Y3.5805
X3.6915Y3.5355
X3.6915Y3.4905
X3.6915Y3.4255
X3.7008Y0.1575
X3.7065Y2.5205
X3.7115Y2.8255
X3.7115Y2.7655
X3.7115Y2.7055
X3.7115Y2.6455
X3.7115Y2.5855
X3.7515Y3.7755
X3.7515Y3.7255
X3.7515Y3.6755
X3.7515Y3.6255
X3.7795Y0.1575
X3.7865Y3.7505
X3.7865Y3.7005
X3.7865Y3.6505
X3.8215Y3.7755
X3.8215Y3.7255
X3.8215Y3.6755
X3.8215Y3.6255
X3.8565Y3.7505
X3.8565Y3.7005
X3.8565Y3.6505
X3.8583Y0.1575
X3.8915Y3.7755
X3.8915Y3.7255
X3.8915Y3.6755
X3.8915Y3.6255
X3.8976Y2.4016
X3.8976Y2.3228
X3.8976Y2.2441
X3.8976Y2.1654
X3.9265Y3.7505
X3.9265Y3.7005
X3.9265Y3.6505
X3.937Y0.1575
X3.9615Y3.7755
X3.9615Y3.7255
X3.9615Y3.6755
X3.9615Y3.6255
X3.9764Y1.6535
X3.9965Y3.7505
X3.9965Y3.7005
X3.9965Y3.6505
X4.0157Y0.1575
X4.0551Y1.6142
X4.0551Y1.5354
X4.0551Y1.4567
X4.0551Y1.378
X4.0551Y1.2992
X4.0551Y1.2205
X4.0551Y1.1417
X4.0551Y1.063
X4.0551Y0.9843
X4.0551Y0.9055
X4.0551Y0.8268
X4.0551Y0.748
X4.0551Y0.6693
X4.0551Y0.5906
X4.0551Y0.5118
X4.0551Y0.4331
X4.0551Y0.3543
X4.0945Y0.2756
X4.0945Y0.1575
X4.1732Y0.2756
X4.1732Y0.1575
X4.252Y2.4409
X4.252Y0.2756
X4.252Y0.1575
X4.3307Y3.7795
X4.3307Y2.4409
X4.3307Y0.2756
X4.3307Y0.1575
X4.4094Y3.7795
X4.4094Y2.4409
X4.4094Y0.2756
X4.4094Y0.1575
X4.4882Y3.7795
X4.4882Y2.4409
X4.4882Y0.2756
X4.4882Y0.1575
X4.5669Y3.7795
X4.5669Y2.4409
X4.5669Y0.2756
X4.5669Y0.1575
X4.6457Y3.7795
X4.6457Y3.7008
X4.6457Y3.622
X4.6457Y3.5433
X4.6457Y3.4646
X4.6457Y3.3858
X4.6457Y3.3071
X4.6457Y3.2283
X4.6457Y3.1496
X4.6457Y3.0709
X4.6457Y2.9921
X4.6457Y2.9134
X4.6457Y2.8346
X4.6457Y2.7559
X4.6457Y2.6772
X4.6457Y2.5984
X4.6457Y2.5197
X4.6457Y2.4409
X4.6457Y0.2756
X4.6457Y0.1575
T3
X1.6815Y1.1105
X1.7602Y1.1105
T4
X1.6996Y2.3689
X1.6996Y2.2689
X1.7996Y2.3689
X1.7996Y2.2689
X1.8996Y2.3689
X1.8996Y2.2689
X1.9996Y2.3689
X1.9996Y2.2689
X2.0996Y2.3689
X2.0996Y2.2689
X2.1996Y2.3689
X2.1996Y2.2689
X2.2996Y2.3689
X2.2996Y2.2689
X2.3996Y2.3689
X2.3996Y2.2689
X2.4996Y2.3689
X2.4996Y2.2689
X2.5996Y2.3689
X2.5996Y2.2689
X2.6996Y2.3689
X2.6996Y2.2689
X2.7996Y2.3689
X2.7996Y2.2689
X2.8996Y2.3689
X2.8996Y2.2689
X2.9996Y2.3689
X2.9996Y2.2689
X3.0996Y2.3689
X3.0996Y2.2689
X3.1996Y2.3689
X3.1996Y2.2689
X3.2996Y2.3689
X3.2996Y2.2689
X3.3996Y2.3689
X3.3996Y2.2689
X3.4996Y2.3689
X3.4996Y2.2689
X3.5996Y2.3689
X3.5996Y2.2689
T5
X4.0865Y2.9455
X4.0865Y2.8455
X4.0865Y2.7455
X4.0865Y2.6455
X1.1815Y0.5055
X1.1815Y0.4055
X1.1815Y0.3055
X1.5815Y0.8955
X1.6815Y0.8955
X1.7815Y0.8955
X1.0315Y0.5055
X1.0315Y0.4055
T6
X4.1515Y3.5872
X4.1515Y3.3038
T7
X0.0837Y0.4744
X0.0837Y0.3366
T8
X0.2856Y1.0731
X0.2856Y0.7779
X0.2856Y1.6031
X0.2856Y1.3079
T9
X0.5415Y0.9255
X0.5415Y1.4555
T10
X3.8739Y2.9534
X2.9154Y1.1378
X2.9154Y1.9232
X2.1299Y1.1378
X3.8739Y2.6384
X2.128Y1.9252
X1.5079Y2.3189
X1.5079Y0.3898
X3.7913Y2.3189
X3.7913Y0.3898
T2
G00X4.4212Y3.7093
M15
G01X4.37Y3.7093
M16
G05
G00X4.4212Y3.1817
M15
G01X4.37Y3.1817
M16
G05
T5
G00X0.2856Y0.9649
M15
G01X0.2856Y0.8861
M16
G05
G00X0.6399Y0.7169
M15
G01X0.5611Y0.7169
M16
G05
G00X0.2283Y1.9252
M15
G01X0.2283Y2.0118
M16
G05
G00X0.315Y2.1654
M15
G01X0.4016Y2.1654
M16
G05
G00X0.4764Y1.9252
M15
G01X0.4764Y2.0118
M16
G05
G00X0.2856Y1.4949
M15
G01X0.2856Y1.4161
M16
G05
G00X0.6399Y1.2469
M15
G01X0.5611Y1.2469
M16
G05
G00X0.2283Y2.3976
M15
G01X0.2283Y2.4843
M16
G05
G00X0.315Y2.6378
M15
G01X0.4016Y2.6378
M16
G05
G00X0.4764Y2.3976
M15
G01X0.4764Y2.4843
M16
G05
G00X0.2283Y3.3425
M15
G01X0.2283Y3.4291
M16
G05
G00X0.315Y3.5827
M15
G01X0.4016Y3.5827
M16
G05
G00X0.4764Y3.3425
M15
G01X0.4764Y3.4291
M16
G05
G00X0.2283Y2.8701
M15
G01X0.2283Y2.9567
M16
G05
G00X0.315Y3.1102
M15
G01X0.4016Y3.1102
M16
G05
G00X0.4764Y2.8701
M15
G01X0.4764Y2.9567
M16
G05
T0
M30
