%TF.GenerationSoftware,KiCad,Pcbnew,(5.1.6-0-10_14)*%
%TF.CreationDate,2020-09-02T22:05:45+02:00*%
%TF.ProjectId,Astroberry_power_shield,41737472-6f62-4657-9272-795f706f7765,rev?*%
%TF.SameCoordinates,PX2faf080PY8f0d180*%
%TF.FileFunction,Soldermask,Bot*%
%TF.FilePolarity,Negative*%
%FSLAX46Y46*%
G04 Gerber Fmt 4.6, Leading zero omitted, Abs format (unit mm)*
G04 Created by KiCad (PCBNEW (5.1.6-0-10_14)) date 2020-09-02 22:05:45*
%MOMM*%
%LPD*%
G01*
G04 APERTURE LIST*
%ADD10C,1.900000*%
%ADD11C,3.300000*%
%ADD12C,3.600000*%
%ADD13R,1.800000X1.800000*%
%ADD14O,1.800000X1.800000*%
%ADD15R,1.000000X0.900000*%
%ADD16R,1.300000X1.000000*%
%ADD17O,1.300000X1.850000*%
%ADD18R,2.100000X2.600000*%
%ADD19R,2.700000X2.100000*%
%ADD20R,2.100000X2.650000*%
%ADD21C,1.200000*%
%ADD22R,2.600000X1.900000*%
%ADD23R,5.500000X3.000000*%
%ADD24R,4.700000X1.200000*%
%ADD25R,9.500000X10.900000*%
%ADD26R,3.400000X2.600000*%
%ADD27C,5.100000*%
%ADD28O,3.100000X1.600000*%
%ADD29R,4.600000X3.910000*%
%ADD30R,2.100000X4.600000*%
%ADD31O,2.100000X4.600000*%
%ADD32O,4.600000X2.100000*%
%ADD33O,2.100000X4.100000*%
%ADD34C,1.800000*%
%ADD35C,2.100000*%
%ADD36O,4.100000X2.100000*%
%ADD37R,2.300000X1.300000*%
%ADD38R,6.500000X5.900000*%
G04 APERTURE END LIST*
D10*
%TO.C,J4*%
X91430000Y57630000D03*
X88890000Y57630000D03*
X86350000Y57630000D03*
X83810000Y57630000D03*
X81270000Y57630000D03*
X78730000Y57630000D03*
X76190000Y57630000D03*
X73650000Y57630000D03*
X71110000Y57630000D03*
X68570000Y57630000D03*
X66030000Y57630000D03*
X63490000Y57630000D03*
X60950000Y57630000D03*
X58410000Y57630000D03*
X55870000Y57630000D03*
X53330000Y57630000D03*
X50790000Y57630000D03*
X48250000Y57630000D03*
X45710000Y57630000D03*
X43170000Y57630000D03*
X91430000Y60170000D03*
X88890000Y60170000D03*
X86350000Y60170000D03*
X83810000Y60170000D03*
X81270000Y60170000D03*
X78730000Y60170000D03*
X76190000Y60170000D03*
X73650000Y60170000D03*
X71110000Y60170000D03*
X68570000Y60170000D03*
X66030000Y60170000D03*
X63490000Y60170000D03*
X60950000Y60170000D03*
X58410000Y60170000D03*
X55870000Y60170000D03*
X53330000Y60170000D03*
X50790000Y60170000D03*
X48250000Y60170000D03*
X45710000Y60170000D03*
X43169999Y60170000D03*
D11*
X96300000Y58899999D03*
X96300000Y9899999D03*
X38300000Y9899999D03*
X38300000Y58900000D03*
%TD*%
D12*
%TO.C,J1*%
X98397000Y67016000D03*
X98397000Y75016000D03*
D13*
X103797000Y74816000D03*
D14*
X103797000Y72276000D03*
X103797000Y69736000D03*
X103797000Y67196000D03*
%TD*%
D15*
%TO.C,T21*%
X89716000Y40653000D03*
X91716000Y39703000D03*
X91716000Y41603000D03*
%TD*%
%TO.C,R37*%
G36*
G01*
X81799250Y39783000D02*
X80836750Y39783000D01*
G75*
G02*
X80568000Y40051750I0J268750D01*
G01*
X80568000Y40589250D01*
G75*
G02*
X80836750Y40858000I268750J0D01*
G01*
X81799250Y40858000D01*
G75*
G02*
X82068000Y40589250I0J-268750D01*
G01*
X82068000Y40051750D01*
G75*
G02*
X81799250Y39783000I-268750J0D01*
G01*
G37*
G36*
G01*
X81799250Y37908000D02*
X80836750Y37908000D01*
G75*
G02*
X80568000Y38176750I0J268750D01*
G01*
X80568000Y38714250D01*
G75*
G02*
X80836750Y38983000I268750J0D01*
G01*
X81799250Y38983000D01*
G75*
G02*
X82068000Y38714250I0J-268750D01*
G01*
X82068000Y38176750D01*
G75*
G02*
X81799250Y37908000I-268750J0D01*
G01*
G37*
%TD*%
D16*
%TO.C,D6*%
X81318000Y45605000D03*
X81318000Y42305000D03*
%TD*%
%TO.C,C20*%
G36*
G01*
X85109000Y42785250D02*
X85109000Y41822750D01*
G75*
G02*
X84840250Y41554000I-268750J0D01*
G01*
X84302750Y41554000D01*
G75*
G02*
X84034000Y41822750I0J268750D01*
G01*
X84034000Y42785250D01*
G75*
G02*
X84302750Y43054000I268750J0D01*
G01*
X84840250Y43054000D01*
G75*
G02*
X85109000Y42785250I0J-268750D01*
G01*
G37*
G36*
G01*
X86984000Y42785250D02*
X86984000Y41822750D01*
G75*
G02*
X86715250Y41554000I-268750J0D01*
G01*
X86177750Y41554000D01*
G75*
G02*
X85909000Y41822750I0J268750D01*
G01*
X85909000Y42785250D01*
G75*
G02*
X86177750Y43054000I268750J0D01*
G01*
X86715250Y43054000D01*
G75*
G02*
X86984000Y42785250I0J-268750D01*
G01*
G37*
%TD*%
%TO.C,C19*%
G36*
G01*
X85109000Y39864250D02*
X85109000Y38901750D01*
G75*
G02*
X84840250Y38633000I-268750J0D01*
G01*
X84302750Y38633000D01*
G75*
G02*
X84034000Y38901750I0J268750D01*
G01*
X84034000Y39864250D01*
G75*
G02*
X84302750Y40133000I268750J0D01*
G01*
X84840250Y40133000D01*
G75*
G02*
X85109000Y39864250I0J-268750D01*
G01*
G37*
G36*
G01*
X86984000Y39864250D02*
X86984000Y38901750D01*
G75*
G02*
X86715250Y38633000I-268750J0D01*
G01*
X86177750Y38633000D01*
G75*
G02*
X85909000Y38901750I0J268750D01*
G01*
X85909000Y39864250D01*
G75*
G02*
X86177750Y40133000I268750J0D01*
G01*
X86715250Y40133000D01*
G75*
G02*
X86984000Y39864250I0J-268750D01*
G01*
G37*
%TD*%
D14*
%TO.C,JP3*%
X45250000Y22746000D03*
X42710000Y22746000D03*
D13*
X40170000Y22746000D03*
%TD*%
D17*
%TO.C,J12*%
X44710000Y28207000D03*
G36*
G01*
X42060000Y27552832D02*
X42060000Y28861168D01*
G75*
G02*
X42330832Y29132000I270832J0D01*
G01*
X43089168Y29132000D01*
G75*
G02*
X43360000Y28861168I0J-270832D01*
G01*
X43360000Y27552832D01*
G75*
G02*
X43089168Y27282000I-270832J0D01*
G01*
X42330832Y27282000D01*
G75*
G02*
X42060000Y27552832I0J270832D01*
G01*
G37*
%TD*%
D11*
%TO.C,H6*%
X74050000Y28900000D03*
%TD*%
%TO.C,H5*%
X74050000Y48850000D03*
%TD*%
%TO.C,H4*%
X54100000Y28900000D03*
%TD*%
%TO.C,H3*%
X54050000Y48900000D03*
%TD*%
D14*
%TO.C,JP2*%
X26200000Y12840000D03*
D13*
X26200000Y10300000D03*
%TD*%
D14*
%TO.C,JP1*%
X30010000Y12840000D03*
X30010000Y10300000D03*
D13*
X30010000Y7760000D03*
%TD*%
D18*
%TO.C,J2*%
X12825000Y6800000D03*
D19*
X12825000Y10300000D03*
D18*
X12825000Y13800000D03*
D20*
X3325000Y6275000D03*
X3325000Y14325000D03*
D21*
X2125000Y8550000D03*
X2125000Y12050000D03*
%TD*%
D22*
%TO.C,D18*%
X22866000Y17285000D03*
X18866000Y17285000D03*
%TD*%
%TO.C,D17*%
X22993000Y30620000D03*
X18993000Y30620000D03*
%TD*%
D23*
%TO.C,L1*%
X54521000Y74686000D03*
X54521000Y64786000D03*
%TD*%
D24*
%TO.C,IC3*%
X71860000Y70781000D03*
X71860000Y72481000D03*
X71860000Y74181000D03*
X71860000Y75881000D03*
X71860000Y77581000D03*
D25*
X81010000Y74181000D03*
%TD*%
D26*
%TO.C,D4*%
X65316000Y73517000D03*
X65316000Y66717000D03*
%TD*%
%TO.C,C14*%
G36*
G01*
X44056095Y71544000D02*
X42379905Y71544000D01*
G75*
G02*
X42118000Y71805905I0J261905D01*
G01*
X42118000Y75882095D01*
G75*
G02*
X42379905Y76144000I261905J0D01*
G01*
X44056095Y76144000D01*
G75*
G02*
X44318000Y75882095I0J-261905D01*
G01*
X44318000Y71805905D01*
G75*
G02*
X44056095Y71544000I-261905J0D01*
G01*
G37*
G36*
G01*
X44056095Y64344000D02*
X42379905Y64344000D01*
G75*
G02*
X42118000Y64605905I0J261905D01*
G01*
X42118000Y68682095D01*
G75*
G02*
X42379905Y68944000I261905J0D01*
G01*
X44056095Y68944000D01*
G75*
G02*
X44318000Y68682095I0J-261905D01*
G01*
X44318000Y64605905D01*
G75*
G02*
X44056095Y64344000I-261905J0D01*
G01*
G37*
%TD*%
D27*
%TO.C,J3*%
X105448000Y91116000D03*
X105448000Y83916000D03*
D28*
X111648000Y94216000D03*
X111648000Y80816000D03*
%TD*%
D29*
%TO.C,F6*%
X29648000Y50051000D03*
X22898000Y50051000D03*
%TD*%
%TO.C,F5*%
X29648000Y61989000D03*
X22898000Y61989000D03*
%TD*%
%TO.C,F4*%
X29648000Y73927000D03*
X22898000Y73927000D03*
%TD*%
%TO.C,F3*%
X29648000Y86119000D03*
X22898000Y86119000D03*
%TD*%
%TO.C,F2*%
X22879000Y23508000D03*
X29629000Y23508000D03*
%TD*%
%TO.C,F1*%
X22879000Y36970000D03*
X29629000Y36970000D03*
%TD*%
D30*
%TO.C,J9*%
X12100000Y50000000D03*
D31*
X5800000Y50000000D03*
D32*
X9100000Y55000000D03*
%TD*%
D30*
%TO.C,J8*%
X12100000Y62000000D03*
D31*
X5800000Y62000000D03*
D32*
X9100000Y67000000D03*
%TD*%
D30*
%TO.C,J7*%
X12100000Y74000000D03*
D31*
X5800000Y74000000D03*
D32*
X9100000Y79000000D03*
%TD*%
D30*
%TO.C,J6*%
X12100000Y86000000D03*
D31*
X5800000Y86000000D03*
D32*
X9100000Y91000000D03*
%TD*%
D33*
%TO.C,J11*%
X7253000Y23508000D03*
D34*
X7253000Y19758000D03*
X7253000Y27258000D03*
D35*
X13753000Y23508000D03*
D36*
X15253000Y18208000D03*
%TD*%
D33*
%TO.C,J10*%
X7253000Y36970000D03*
D34*
X7253000Y33220000D03*
X7253000Y40720000D03*
D35*
X13753000Y36970000D03*
D36*
X15253000Y31670000D03*
%TD*%
%TO.C,C10*%
G36*
G01*
X87649000Y49262250D02*
X87649000Y48299750D01*
G75*
G02*
X87380250Y48031000I-268750J0D01*
G01*
X86842750Y48031000D01*
G75*
G02*
X86574000Y48299750I0J268750D01*
G01*
X86574000Y49262250D01*
G75*
G02*
X86842750Y49531000I268750J0D01*
G01*
X87380250Y49531000D01*
G75*
G02*
X87649000Y49262250I0J-268750D01*
G01*
G37*
G36*
G01*
X89524000Y49262250D02*
X89524000Y48299750D01*
G75*
G02*
X89255250Y48031000I-268750J0D01*
G01*
X88717750Y48031000D01*
G75*
G02*
X88449000Y48299750I0J268750D01*
G01*
X88449000Y49262250D01*
G75*
G02*
X88717750Y49531000I268750J0D01*
G01*
X89255250Y49531000D01*
G75*
G02*
X89524000Y49262250I0J-268750D01*
G01*
G37*
%TD*%
%TO.C,C8*%
G36*
G01*
X91075000Y44642110D02*
X91075000Y46569890D01*
G75*
G02*
X91336110Y46831000I261110J0D01*
G01*
X93163890Y46831000D01*
G75*
G02*
X93425000Y46569890I0J-261110D01*
G01*
X93425000Y44642110D01*
G75*
G02*
X93163890Y44381000I-261110J0D01*
G01*
X91336110Y44381000D01*
G75*
G02*
X91075000Y44642110I0J261110D01*
G01*
G37*
G36*
G01*
X85975000Y44642110D02*
X85975000Y46569890D01*
G75*
G02*
X86236110Y46831000I261110J0D01*
G01*
X88063890Y46831000D01*
G75*
G02*
X88325000Y46569890I0J-261110D01*
G01*
X88325000Y44642110D01*
G75*
G02*
X88063890Y44381000I-261110J0D01*
G01*
X86236110Y44381000D01*
G75*
G02*
X85975000Y44642110I0J261110D01*
G01*
G37*
%TD*%
D35*
%TO.C,TP1*%
X70650000Y95009000D03*
%TD*%
%TO.C,R7*%
G36*
G01*
X58982000Y89996518D02*
X58982000Y92909482D01*
G75*
G02*
X59250518Y93178000I268518J0D01*
G01*
X60163482Y93178000D01*
G75*
G02*
X60432000Y92909482I0J-268518D01*
G01*
X60432000Y89996518D01*
G75*
G02*
X60163482Y89728000I-268518J0D01*
G01*
X59250518Y89728000D01*
G75*
G02*
X58982000Y89996518I0J268518D01*
G01*
G37*
G36*
G01*
X53182000Y89996518D02*
X53182000Y92909482D01*
G75*
G02*
X53450518Y93178000I268518J0D01*
G01*
X54363482Y93178000D01*
G75*
G02*
X54632000Y92909482I0J-268518D01*
G01*
X54632000Y89996518D01*
G75*
G02*
X54363482Y89728000I-268518J0D01*
G01*
X53450518Y89728000D01*
G75*
G02*
X53182000Y89996518I0J268518D01*
G01*
G37*
%TD*%
%TO.C,R1*%
G36*
G01*
X91504750Y80385000D02*
X92467250Y80385000D01*
G75*
G02*
X92736000Y80116250I0J-268750D01*
G01*
X92736000Y79578750D01*
G75*
G02*
X92467250Y79310000I-268750J0D01*
G01*
X91504750Y79310000D01*
G75*
G02*
X91236000Y79578750I0J268750D01*
G01*
X91236000Y80116250D01*
G75*
G02*
X91504750Y80385000I268750J0D01*
G01*
G37*
G36*
G01*
X91504750Y82260000D02*
X92467250Y82260000D01*
G75*
G02*
X92736000Y81991250I0J-268750D01*
G01*
X92736000Y81453750D01*
G75*
G02*
X92467250Y81185000I-268750J0D01*
G01*
X91504750Y81185000D01*
G75*
G02*
X91236000Y81453750I0J268750D01*
G01*
X91236000Y81991250D01*
G75*
G02*
X91504750Y82260000I268750J0D01*
G01*
G37*
%TD*%
D37*
%TO.C,T1*%
X91977000Y85617000D03*
X91977000Y90177000D03*
D38*
X98277000Y87897000D03*
%TD*%
D15*
%TO.C,D1*%
X89938000Y81735000D03*
X89938000Y79835000D03*
X87938000Y80785000D03*
%TD*%
%TO.C,C7*%
G36*
G01*
X75708000Y65470110D02*
X75708000Y67397890D01*
G75*
G02*
X75969110Y67659000I261110J0D01*
G01*
X77796890Y67659000D01*
G75*
G02*
X78058000Y67397890I0J-261110D01*
G01*
X78058000Y65470110D01*
G75*
G02*
X77796890Y65209000I-261110J0D01*
G01*
X75969110Y65209000D01*
G75*
G02*
X75708000Y65470110I0J261110D01*
G01*
G37*
G36*
G01*
X70608000Y65470110D02*
X70608000Y67397890D01*
G75*
G02*
X70869110Y67659000I261110J0D01*
G01*
X72696890Y67659000D01*
G75*
G02*
X72958000Y67397890I0J-261110D01*
G01*
X72958000Y65470110D01*
G75*
G02*
X72696890Y65209000I-261110J0D01*
G01*
X70869110Y65209000D01*
G75*
G02*
X70608000Y65470110I0J261110D01*
G01*
G37*
%TD*%
%TO.C,C5*%
G36*
G01*
X65112905Y86597000D02*
X66789095Y86597000D01*
G75*
G02*
X67051000Y86335095I0J-261905D01*
G01*
X67051000Y82258905D01*
G75*
G02*
X66789095Y81997000I-261905J0D01*
G01*
X65112905Y81997000D01*
G75*
G02*
X64851000Y82258905I0J261905D01*
G01*
X64851000Y86335095D01*
G75*
G02*
X65112905Y86597000I261905J0D01*
G01*
G37*
G36*
G01*
X65112905Y93797000D02*
X66789095Y93797000D01*
G75*
G02*
X67051000Y93535095I0J-261905D01*
G01*
X67051000Y89458905D01*
G75*
G02*
X66789095Y89197000I-261905J0D01*
G01*
X65112905Y89197000D01*
G75*
G02*
X64851000Y89458905I0J261905D01*
G01*
X64851000Y93535095D01*
G75*
G02*
X65112905Y93797000I261905J0D01*
G01*
G37*
%TD*%
%TO.C,C4*%
G36*
G01*
X74383905Y86597000D02*
X76060095Y86597000D01*
G75*
G02*
X76322000Y86335095I0J-261905D01*
G01*
X76322000Y82258905D01*
G75*
G02*
X76060095Y81997000I-261905J0D01*
G01*
X74383905Y81997000D01*
G75*
G02*
X74122000Y82258905I0J261905D01*
G01*
X74122000Y86335095D01*
G75*
G02*
X74383905Y86597000I261905J0D01*
G01*
G37*
G36*
G01*
X74383905Y93797000D02*
X76060095Y93797000D01*
G75*
G02*
X76322000Y93535095I0J-261905D01*
G01*
X76322000Y89458905D01*
G75*
G02*
X76060095Y89197000I-261905J0D01*
G01*
X74383905Y89197000D01*
G75*
G02*
X74122000Y89458905I0J261905D01*
G01*
X74122000Y93535095D01*
G75*
G02*
X74383905Y93797000I261905J0D01*
G01*
G37*
%TD*%
%TO.C,C3*%
G36*
G01*
X83654905Y86597000D02*
X85331095Y86597000D01*
G75*
G02*
X85593000Y86335095I0J-261905D01*
G01*
X85593000Y82258905D01*
G75*
G02*
X85331095Y81997000I-261905J0D01*
G01*
X83654905Y81997000D01*
G75*
G02*
X83393000Y82258905I0J261905D01*
G01*
X83393000Y86335095D01*
G75*
G02*
X83654905Y86597000I261905J0D01*
G01*
G37*
G36*
G01*
X83654905Y93797000D02*
X85331095Y93797000D01*
G75*
G02*
X85593000Y93535095I0J-261905D01*
G01*
X85593000Y89458905D01*
G75*
G02*
X85331095Y89197000I-261905J0D01*
G01*
X83654905Y89197000D01*
G75*
G02*
X83393000Y89458905I0J261905D01*
G01*
X83393000Y93535095D01*
G75*
G02*
X83654905Y93797000I261905J0D01*
G01*
G37*
%TD*%
%TO.C,C2*%
G36*
G01*
X16346110Y6385000D02*
X18273890Y6385000D01*
G75*
G02*
X18535000Y6123890I0J-261110D01*
G01*
X18535000Y4296110D01*
G75*
G02*
X18273890Y4035000I-261110J0D01*
G01*
X16346110Y4035000D01*
G75*
G02*
X16085000Y4296110I0J261110D01*
G01*
X16085000Y6123890D01*
G75*
G02*
X16346110Y6385000I261110J0D01*
G01*
G37*
G36*
G01*
X16346110Y11485000D02*
X18273890Y11485000D01*
G75*
G02*
X18535000Y11223890I0J-261110D01*
G01*
X18535000Y9396110D01*
G75*
G02*
X18273890Y9135000I-261110J0D01*
G01*
X16346110Y9135000D01*
G75*
G02*
X16085000Y9396110I0J261110D01*
G01*
X16085000Y11223890D01*
G75*
G02*
X16346110Y11485000I261110J0D01*
G01*
G37*
%TD*%
M02*
