%TF.GenerationSoftware,KiCad,Pcbnew,(5.1.6-0-10_14)*%
%TF.CreationDate,2020-09-02T22:05:45+02:00*%
%TF.ProjectId,Astroberry_power_shield,41737472-6f62-4657-9272-795f706f7765,rev?*%
%TF.SameCoordinates,PX2faf080PY8f0d180*%
%TF.FileFunction,Soldermask,Top*%
%TF.FilePolarity,Negative*%
%FSLAX46Y46*%
G04 Gerber Fmt 4.6, Leading zero omitted, Abs format (unit mm)*
G04 Created by KiCad (PCBNEW (5.1.6-0-10_14)) date 2020-09-02 22:05:45*
%MOMM*%
%LPD*%
G01*
G04 APERTURE LIST*
%ADD10C,1.900000*%
%ADD11C,3.300000*%
%ADD12C,3.600000*%
%ADD13R,1.800000X1.800000*%
%ADD14O,1.800000X1.800000*%
%ADD15O,1.100000X2.600000*%
%ADD16R,1.000000X1.300000*%
%ADD17R,1.000000X0.900000*%
%ADD18O,1.300000X1.850000*%
%ADD19C,1.200000*%
%ADD20R,2.100000X3.900000*%
%ADD21R,2.100000X1.600000*%
%ADD22C,2.100000*%
%ADD23C,5.100000*%
%ADD24O,3.100000X1.600000*%
%ADD25C,17.900000*%
%ADD26R,5.200000X5.200000*%
%ADD27R,2.100000X4.600000*%
%ADD28O,2.100000X4.600000*%
%ADD29O,4.600000X2.100000*%
%ADD30O,2.100000X4.100000*%
%ADD31C,1.800000*%
%ADD32O,4.100000X2.100000*%
%ADD33R,1.100000X1.100000*%
%ADD34R,1.150000X2.300000*%
%ADD35R,0.900000X1.000000*%
%ADD36R,1.160000X0.750000*%
G04 APERTURE END LIST*
D10*
%TO.C,J4*%
X91430000Y57630000D03*
X88890000Y57630000D03*
X86350000Y57630000D03*
X83810000Y57630000D03*
X81270000Y57630000D03*
X78730000Y57630000D03*
X76190000Y57630000D03*
X73650000Y57630000D03*
X71110000Y57630000D03*
X68570000Y57630000D03*
X66030000Y57630000D03*
X63490000Y57630000D03*
X60950000Y57630000D03*
X58410000Y57630000D03*
X55870000Y57630000D03*
X53330000Y57630000D03*
X50790000Y57630000D03*
X48250000Y57630000D03*
X45710000Y57630000D03*
X43170000Y57630000D03*
X91430000Y60170000D03*
X88890000Y60170000D03*
X86350000Y60170000D03*
X83810000Y60170000D03*
X81270000Y60170000D03*
X78730000Y60170000D03*
X76190000Y60170000D03*
X73650000Y60170000D03*
X71110000Y60170000D03*
X68570000Y60170000D03*
X66030000Y60170000D03*
X63490000Y60170000D03*
X60950000Y60170000D03*
X58410000Y60170000D03*
X55870000Y60170000D03*
X53330000Y60170000D03*
X50790000Y60170000D03*
X48250000Y60170000D03*
X45710000Y60170000D03*
X43169999Y60170000D03*
D11*
X96300000Y58899999D03*
X96300000Y9899999D03*
X38300000Y9899999D03*
X38300000Y58900000D03*
%TD*%
D12*
%TO.C,J1*%
X98397000Y67016000D03*
X98397000Y75016000D03*
D13*
X103797000Y74816000D03*
D14*
X103797000Y72276000D03*
X103797000Y69736000D03*
X103797000Y67196000D03*
%TD*%
%TO.C,R36*%
G36*
G01*
X91758750Y29077000D02*
X92721250Y29077000D01*
G75*
G02*
X92990000Y28808250I0J-268750D01*
G01*
X92990000Y28270750D01*
G75*
G02*
X92721250Y28002000I-268750J0D01*
G01*
X91758750Y28002000D01*
G75*
G02*
X91490000Y28270750I0J268750D01*
G01*
X91490000Y28808250D01*
G75*
G02*
X91758750Y29077000I268750J0D01*
G01*
G37*
G36*
G01*
X91758750Y30952000D02*
X92721250Y30952000D01*
G75*
G02*
X92990000Y30683250I0J-268750D01*
G01*
X92990000Y30145750D01*
G75*
G02*
X92721250Y29877000I-268750J0D01*
G01*
X91758750Y29877000D01*
G75*
G02*
X91490000Y30145750I0J268750D01*
G01*
X91490000Y30683250D01*
G75*
G02*
X91758750Y30952000I268750J0D01*
G01*
G37*
%TD*%
D15*
%TO.C,IC2*%
X82080000Y52216000D03*
X84620000Y52216000D03*
X87160000Y52216000D03*
X89700000Y52216000D03*
X92240000Y52216000D03*
X94780000Y52216000D03*
X94780000Y36716000D03*
X92240000Y36716000D03*
X89700000Y36716000D03*
X87160000Y36716000D03*
X84620000Y36716000D03*
X82080000Y36716000D03*
%TD*%
%TO.C,C18*%
G36*
G01*
X92856000Y27164250D02*
X92856000Y26201750D01*
G75*
G02*
X92587250Y25933000I-268750J0D01*
G01*
X92049750Y25933000D01*
G75*
G02*
X91781000Y26201750I0J268750D01*
G01*
X91781000Y27164250D01*
G75*
G02*
X92049750Y27433000I268750J0D01*
G01*
X92587250Y27433000D01*
G75*
G02*
X92856000Y27164250I0J-268750D01*
G01*
G37*
G36*
G01*
X94731000Y27164250D02*
X94731000Y26201750D01*
G75*
G02*
X94462250Y25933000I-268750J0D01*
G01*
X93924750Y25933000D01*
G75*
G02*
X93656000Y26201750I0J268750D01*
G01*
X93656000Y27164250D01*
G75*
G02*
X93924750Y27433000I268750J0D01*
G01*
X94462250Y27433000D01*
G75*
G02*
X94731000Y27164250I0J-268750D01*
G01*
G37*
%TD*%
%TO.C,C17*%
G36*
G01*
X92856000Y32752250D02*
X92856000Y31789750D01*
G75*
G02*
X92587250Y31521000I-268750J0D01*
G01*
X92049750Y31521000D01*
G75*
G02*
X91781000Y31789750I0J268750D01*
G01*
X91781000Y32752250D01*
G75*
G02*
X92049750Y33021000I268750J0D01*
G01*
X92587250Y33021000D01*
G75*
G02*
X92856000Y32752250I0J-268750D01*
G01*
G37*
G36*
G01*
X94731000Y32752250D02*
X94731000Y31789750D01*
G75*
G02*
X94462250Y31521000I-268750J0D01*
G01*
X93924750Y31521000D01*
G75*
G02*
X93656000Y31789750I0J268750D01*
G01*
X93656000Y32752250D01*
G75*
G02*
X93924750Y33021000I268750J0D01*
G01*
X94462250Y33021000D01*
G75*
G02*
X94731000Y32752250I0J-268750D01*
G01*
G37*
%TD*%
%TO.C,R35*%
G36*
G01*
X47763250Y51975000D02*
X46800750Y51975000D01*
G75*
G02*
X46532000Y52243750I0J268750D01*
G01*
X46532000Y52781250D01*
G75*
G02*
X46800750Y53050000I268750J0D01*
G01*
X47763250Y53050000D01*
G75*
G02*
X48032000Y52781250I0J-268750D01*
G01*
X48032000Y52243750D01*
G75*
G02*
X47763250Y51975000I-268750J0D01*
G01*
G37*
G36*
G01*
X47763250Y50100000D02*
X46800750Y50100000D01*
G75*
G02*
X46532000Y50368750I0J268750D01*
G01*
X46532000Y50906250D01*
G75*
G02*
X46800750Y51175000I268750J0D01*
G01*
X47763250Y51175000D01*
G75*
G02*
X48032000Y50906250I0J-268750D01*
G01*
X48032000Y50368750D01*
G75*
G02*
X47763250Y50100000I-268750J0D01*
G01*
G37*
%TD*%
%TO.C,R34*%
G36*
G01*
X45477250Y51975000D02*
X44514750Y51975000D01*
G75*
G02*
X44246000Y52243750I0J268750D01*
G01*
X44246000Y52781250D01*
G75*
G02*
X44514750Y53050000I268750J0D01*
G01*
X45477250Y53050000D01*
G75*
G02*
X45746000Y52781250I0J-268750D01*
G01*
X45746000Y52243750D01*
G75*
G02*
X45477250Y51975000I-268750J0D01*
G01*
G37*
G36*
G01*
X45477250Y50100000D02*
X44514750Y50100000D01*
G75*
G02*
X44246000Y50368750I0J268750D01*
G01*
X44246000Y50906250D01*
G75*
G02*
X44514750Y51175000I268750J0D01*
G01*
X45477250Y51175000D01*
G75*
G02*
X45746000Y50906250I0J-268750D01*
G01*
X45746000Y50368750D01*
G75*
G02*
X45477250Y50100000I-268750J0D01*
G01*
G37*
%TD*%
%TO.C,R2*%
G36*
G01*
X50049250Y51975000D02*
X49086750Y51975000D01*
G75*
G02*
X48818000Y52243750I0J268750D01*
G01*
X48818000Y52781250D01*
G75*
G02*
X49086750Y53050000I268750J0D01*
G01*
X50049250Y53050000D01*
G75*
G02*
X50318000Y52781250I0J-268750D01*
G01*
X50318000Y52243750D01*
G75*
G02*
X50049250Y51975000I-268750J0D01*
G01*
G37*
G36*
G01*
X50049250Y50100000D02*
X49086750Y50100000D01*
G75*
G02*
X48818000Y50368750I0J268750D01*
G01*
X48818000Y50906250D01*
G75*
G02*
X49086750Y51175000I268750J0D01*
G01*
X50049250Y51175000D01*
G75*
G02*
X50318000Y50906250I0J-268750D01*
G01*
X50318000Y50368750D01*
G75*
G02*
X50049250Y50100000I-268750J0D01*
G01*
G37*
%TD*%
D14*
%TO.C,JP3*%
X45250000Y22746000D03*
X42710000Y22746000D03*
D13*
X40170000Y22746000D03*
%TD*%
D16*
%TO.C,D5*%
X45376000Y32779000D03*
X42076000Y32779000D03*
%TD*%
D17*
%TO.C,T20*%
X47425000Y32779000D03*
X49425000Y33729000D03*
X49425000Y31829000D03*
%TD*%
D18*
%TO.C,J12*%
X44710000Y28207000D03*
G36*
G01*
X42060000Y27552832D02*
X42060000Y28861168D01*
G75*
G02*
X42330832Y29132000I270832J0D01*
G01*
X43089168Y29132000D01*
G75*
G02*
X43360000Y28861168I0J-270832D01*
G01*
X43360000Y27552832D01*
G75*
G02*
X43089168Y27282000I-270832J0D01*
G01*
X42330832Y27282000D01*
G75*
G02*
X42060000Y27552832I0J270832D01*
G01*
G37*
%TD*%
D11*
%TO.C,H6*%
X74050000Y28900000D03*
%TD*%
%TO.C,H5*%
X74050000Y48850000D03*
%TD*%
%TO.C,H4*%
X54100000Y28900000D03*
%TD*%
%TO.C,H3*%
X54050000Y48900000D03*
%TD*%
D14*
%TO.C,JP2*%
X26200000Y12840000D03*
D13*
X26200000Y10300000D03*
%TD*%
D14*
%TO.C,JP1*%
X30010000Y12840000D03*
X30010000Y10300000D03*
D13*
X30010000Y7760000D03*
%TD*%
D19*
%TO.C,J2*%
X2125000Y8550000D03*
X2125000Y12050000D03*
%TD*%
%TO.C,C16*%
G36*
G01*
X50128110Y82077000D02*
X52055890Y82077000D01*
G75*
G02*
X52317000Y81815890I0J-261110D01*
G01*
X52317000Y79988110D01*
G75*
G02*
X52055890Y79727000I-261110J0D01*
G01*
X50128110Y79727000D01*
G75*
G02*
X49867000Y79988110I0J261110D01*
G01*
X49867000Y81815890D01*
G75*
G02*
X50128110Y82077000I261110J0D01*
G01*
G37*
G36*
G01*
X50128110Y87177000D02*
X52055890Y87177000D01*
G75*
G02*
X52317000Y86915890I0J-261110D01*
G01*
X52317000Y85088110D01*
G75*
G02*
X52055890Y84827000I-261110J0D01*
G01*
X50128110Y84827000D01*
G75*
G02*
X49867000Y85088110I0J261110D01*
G01*
X49867000Y86915890D01*
G75*
G02*
X50128110Y87177000I261110J0D01*
G01*
G37*
%TD*%
D20*
%TO.C,IC6*%
X46495000Y80658000D03*
D21*
X40195000Y80658000D03*
X40195000Y78358000D03*
X40195000Y82958000D03*
%TD*%
D17*
%TO.C,T19*%
X22882000Y15634000D03*
X20882000Y14684000D03*
X20882000Y16584000D03*
%TD*%
%TO.C,T18*%
X22882000Y28969000D03*
X20882000Y28019000D03*
X20882000Y29919000D03*
%TD*%
%TO.C,T17*%
X17675000Y43955000D03*
X15675000Y43005000D03*
X15675000Y44905000D03*
%TD*%
%TO.C,T16*%
X17675000Y56020000D03*
X15675000Y55070000D03*
X15675000Y56970000D03*
%TD*%
%TO.C,T15*%
X17675000Y67958000D03*
X15675000Y67008000D03*
X15675000Y68908000D03*
%TD*%
%TO.C,T14*%
X17675000Y80023000D03*
X15675000Y79073000D03*
X15675000Y80973000D03*
%TD*%
%TO.C,R33*%
G36*
G01*
X5137000Y16295750D02*
X5137000Y17258250D01*
G75*
G02*
X5405750Y17527000I268750J0D01*
G01*
X5943250Y17527000D01*
G75*
G02*
X6212000Y17258250I0J-268750D01*
G01*
X6212000Y16295750D01*
G75*
G02*
X5943250Y16027000I-268750J0D01*
G01*
X5405750Y16027000D01*
G75*
G02*
X5137000Y16295750I0J268750D01*
G01*
G37*
G36*
G01*
X3262000Y16295750D02*
X3262000Y17258250D01*
G75*
G02*
X3530750Y17527000I268750J0D01*
G01*
X4068250Y17527000D01*
G75*
G02*
X4337000Y17258250I0J-268750D01*
G01*
X4337000Y16295750D01*
G75*
G02*
X4068250Y16027000I-268750J0D01*
G01*
X3530750Y16027000D01*
G75*
G02*
X3262000Y16295750I0J268750D01*
G01*
G37*
%TD*%
%TO.C,R32*%
G36*
G01*
X5137000Y29630750D02*
X5137000Y30593250D01*
G75*
G02*
X5405750Y30862000I268750J0D01*
G01*
X5943250Y30862000D01*
G75*
G02*
X6212000Y30593250I0J-268750D01*
G01*
X6212000Y29630750D01*
G75*
G02*
X5943250Y29362000I-268750J0D01*
G01*
X5405750Y29362000D01*
G75*
G02*
X5137000Y29630750I0J268750D01*
G01*
G37*
G36*
G01*
X3262000Y29630750D02*
X3262000Y30593250D01*
G75*
G02*
X3530750Y30862000I268750J0D01*
G01*
X4068250Y30862000D01*
G75*
G02*
X4337000Y30593250I0J-268750D01*
G01*
X4337000Y29630750D01*
G75*
G02*
X4068250Y29362000I-268750J0D01*
G01*
X3530750Y29362000D01*
G75*
G02*
X3262000Y29630750I0J268750D01*
G01*
G37*
%TD*%
%TO.C,R31*%
G36*
G01*
X5137000Y45505750D02*
X5137000Y46468250D01*
G75*
G02*
X5405750Y46737000I268750J0D01*
G01*
X5943250Y46737000D01*
G75*
G02*
X6212000Y46468250I0J-268750D01*
G01*
X6212000Y45505750D01*
G75*
G02*
X5943250Y45237000I-268750J0D01*
G01*
X5405750Y45237000D01*
G75*
G02*
X5137000Y45505750I0J268750D01*
G01*
G37*
G36*
G01*
X3262000Y45505750D02*
X3262000Y46468250D01*
G75*
G02*
X3530750Y46737000I268750J0D01*
G01*
X4068250Y46737000D01*
G75*
G02*
X4337000Y46468250I0J-268750D01*
G01*
X4337000Y45505750D01*
G75*
G02*
X4068250Y45237000I-268750J0D01*
G01*
X3530750Y45237000D01*
G75*
G02*
X3262000Y45505750I0J268750D01*
G01*
G37*
%TD*%
%TO.C,R30*%
G36*
G01*
X5010000Y57443750D02*
X5010000Y58406250D01*
G75*
G02*
X5278750Y58675000I268750J0D01*
G01*
X5816250Y58675000D01*
G75*
G02*
X6085000Y58406250I0J-268750D01*
G01*
X6085000Y57443750D01*
G75*
G02*
X5816250Y57175000I-268750J0D01*
G01*
X5278750Y57175000D01*
G75*
G02*
X5010000Y57443750I0J268750D01*
G01*
G37*
G36*
G01*
X3135000Y57443750D02*
X3135000Y58406250D01*
G75*
G02*
X3403750Y58675000I268750J0D01*
G01*
X3941250Y58675000D01*
G75*
G02*
X4210000Y58406250I0J-268750D01*
G01*
X4210000Y57443750D01*
G75*
G02*
X3941250Y57175000I-268750J0D01*
G01*
X3403750Y57175000D01*
G75*
G02*
X3135000Y57443750I0J268750D01*
G01*
G37*
%TD*%
%TO.C,R29*%
G36*
G01*
X5137000Y69508750D02*
X5137000Y70471250D01*
G75*
G02*
X5405750Y70740000I268750J0D01*
G01*
X5943250Y70740000D01*
G75*
G02*
X6212000Y70471250I0J-268750D01*
G01*
X6212000Y69508750D01*
G75*
G02*
X5943250Y69240000I-268750J0D01*
G01*
X5405750Y69240000D01*
G75*
G02*
X5137000Y69508750I0J268750D01*
G01*
G37*
G36*
G01*
X3262000Y69508750D02*
X3262000Y70471250D01*
G75*
G02*
X3530750Y70740000I268750J0D01*
G01*
X4068250Y70740000D01*
G75*
G02*
X4337000Y70471250I0J-268750D01*
G01*
X4337000Y69508750D01*
G75*
G02*
X4068250Y69240000I-268750J0D01*
G01*
X3530750Y69240000D01*
G75*
G02*
X3262000Y69508750I0J268750D01*
G01*
G37*
%TD*%
%TO.C,R28*%
G36*
G01*
X5088500Y81446750D02*
X5088500Y82409250D01*
G75*
G02*
X5357250Y82678000I268750J0D01*
G01*
X5894750Y82678000D01*
G75*
G02*
X6163500Y82409250I0J-268750D01*
G01*
X6163500Y81446750D01*
G75*
G02*
X5894750Y81178000I-268750J0D01*
G01*
X5357250Y81178000D01*
G75*
G02*
X5088500Y81446750I0J268750D01*
G01*
G37*
G36*
G01*
X3213500Y81446750D02*
X3213500Y82409250D01*
G75*
G02*
X3482250Y82678000I268750J0D01*
G01*
X4019750Y82678000D01*
G75*
G02*
X4288500Y82409250I0J-268750D01*
G01*
X4288500Y81446750D01*
G75*
G02*
X4019750Y81178000I-268750J0D01*
G01*
X3482250Y81178000D01*
G75*
G02*
X3213500Y81446750I0J268750D01*
G01*
G37*
%TD*%
%TO.C,D16*%
G36*
G01*
X4181250Y23900000D02*
X3218750Y23900000D01*
G75*
G02*
X2950000Y24168750I0J268750D01*
G01*
X2950000Y24706250D01*
G75*
G02*
X3218750Y24975000I268750J0D01*
G01*
X4181250Y24975000D01*
G75*
G02*
X4450000Y24706250I0J-268750D01*
G01*
X4450000Y24168750D01*
G75*
G02*
X4181250Y23900000I-268750J0D01*
G01*
G37*
G36*
G01*
X4181250Y22025000D02*
X3218750Y22025000D01*
G75*
G02*
X2950000Y22293750I0J268750D01*
G01*
X2950000Y22831250D01*
G75*
G02*
X3218750Y23100000I268750J0D01*
G01*
X4181250Y23100000D01*
G75*
G02*
X4450000Y22831250I0J-268750D01*
G01*
X4450000Y22293750D01*
G75*
G02*
X4181250Y22025000I-268750J0D01*
G01*
G37*
%TD*%
%TO.C,D15*%
G36*
G01*
X4181250Y37400000D02*
X3218750Y37400000D01*
G75*
G02*
X2950000Y37668750I0J268750D01*
G01*
X2950000Y38206250D01*
G75*
G02*
X3218750Y38475000I268750J0D01*
G01*
X4181250Y38475000D01*
G75*
G02*
X4450000Y38206250I0J-268750D01*
G01*
X4450000Y37668750D01*
G75*
G02*
X4181250Y37400000I-268750J0D01*
G01*
G37*
G36*
G01*
X4181250Y35525000D02*
X3218750Y35525000D01*
G75*
G02*
X2950000Y35793750I0J268750D01*
G01*
X2950000Y36331250D01*
G75*
G02*
X3218750Y36600000I268750J0D01*
G01*
X4181250Y36600000D01*
G75*
G02*
X4450000Y36331250I0J-268750D01*
G01*
X4450000Y35793750D01*
G75*
G02*
X4181250Y35525000I-268750J0D01*
G01*
G37*
%TD*%
%TO.C,D14*%
G36*
G01*
X4181250Y50400000D02*
X3218750Y50400000D01*
G75*
G02*
X2950000Y50668750I0J268750D01*
G01*
X2950000Y51206250D01*
G75*
G02*
X3218750Y51475000I268750J0D01*
G01*
X4181250Y51475000D01*
G75*
G02*
X4450000Y51206250I0J-268750D01*
G01*
X4450000Y50668750D01*
G75*
G02*
X4181250Y50400000I-268750J0D01*
G01*
G37*
G36*
G01*
X4181250Y48525000D02*
X3218750Y48525000D01*
G75*
G02*
X2950000Y48793750I0J268750D01*
G01*
X2950000Y49331250D01*
G75*
G02*
X3218750Y49600000I268750J0D01*
G01*
X4181250Y49600000D01*
G75*
G02*
X4450000Y49331250I0J-268750D01*
G01*
X4450000Y48793750D01*
G75*
G02*
X4181250Y48525000I-268750J0D01*
G01*
G37*
%TD*%
%TO.C,D13*%
G36*
G01*
X4181250Y62400000D02*
X3218750Y62400000D01*
G75*
G02*
X2950000Y62668750I0J268750D01*
G01*
X2950000Y63206250D01*
G75*
G02*
X3218750Y63475000I268750J0D01*
G01*
X4181250Y63475000D01*
G75*
G02*
X4450000Y63206250I0J-268750D01*
G01*
X4450000Y62668750D01*
G75*
G02*
X4181250Y62400000I-268750J0D01*
G01*
G37*
G36*
G01*
X4181250Y60525000D02*
X3218750Y60525000D01*
G75*
G02*
X2950000Y60793750I0J268750D01*
G01*
X2950000Y61331250D01*
G75*
G02*
X3218750Y61600000I268750J0D01*
G01*
X4181250Y61600000D01*
G75*
G02*
X4450000Y61331250I0J-268750D01*
G01*
X4450000Y60793750D01*
G75*
G02*
X4181250Y60525000I-268750J0D01*
G01*
G37*
%TD*%
%TO.C,D12*%
G36*
G01*
X4181250Y74400000D02*
X3218750Y74400000D01*
G75*
G02*
X2950000Y74668750I0J268750D01*
G01*
X2950000Y75206250D01*
G75*
G02*
X3218750Y75475000I268750J0D01*
G01*
X4181250Y75475000D01*
G75*
G02*
X4450000Y75206250I0J-268750D01*
G01*
X4450000Y74668750D01*
G75*
G02*
X4181250Y74400000I-268750J0D01*
G01*
G37*
G36*
G01*
X4181250Y72525000D02*
X3218750Y72525000D01*
G75*
G02*
X2950000Y72793750I0J268750D01*
G01*
X2950000Y73331250D01*
G75*
G02*
X3218750Y73600000I268750J0D01*
G01*
X4181250Y73600000D01*
G75*
G02*
X4450000Y73331250I0J-268750D01*
G01*
X4450000Y72793750D01*
G75*
G02*
X4181250Y72525000I-268750J0D01*
G01*
G37*
%TD*%
%TO.C,D11*%
G36*
G01*
X4181250Y86400000D02*
X3218750Y86400000D01*
G75*
G02*
X2950000Y86668750I0J268750D01*
G01*
X2950000Y87206250D01*
G75*
G02*
X3218750Y87475000I268750J0D01*
G01*
X4181250Y87475000D01*
G75*
G02*
X4450000Y87206250I0J-268750D01*
G01*
X4450000Y86668750D01*
G75*
G02*
X4181250Y86400000I-268750J0D01*
G01*
G37*
G36*
G01*
X4181250Y84525000D02*
X3218750Y84525000D01*
G75*
G02*
X2950000Y84793750I0J268750D01*
G01*
X2950000Y85331250D01*
G75*
G02*
X3218750Y85600000I268750J0D01*
G01*
X4181250Y85600000D01*
G75*
G02*
X4450000Y85331250I0J-268750D01*
G01*
X4450000Y84793750D01*
G75*
G02*
X4181250Y84525000I-268750J0D01*
G01*
G37*
%TD*%
D22*
%TO.C,TP2*%
X37122000Y74308000D03*
%TD*%
D23*
%TO.C,J3*%
X105448000Y91116000D03*
X105448000Y83916000D03*
D24*
X111648000Y94216000D03*
X111648000Y80816000D03*
%TD*%
D25*
%TO.C,BT1*%
X76365000Y14237000D03*
D26*
X89165000Y14237000D03*
X63565000Y14237000D03*
%TD*%
%TO.C,IC5*%
G36*
G01*
X61326000Y77531000D02*
X61326000Y77181000D01*
G75*
G02*
X61151000Y77006000I-175000J0D01*
G01*
X59451000Y77006000D01*
G75*
G02*
X59276000Y77181000I0J175000D01*
G01*
X59276000Y77531000D01*
G75*
G02*
X59451000Y77706000I175000J0D01*
G01*
X61151000Y77706000D01*
G75*
G02*
X61326000Y77531000I0J-175000D01*
G01*
G37*
G36*
G01*
X61326000Y78801000D02*
X61326000Y78451000D01*
G75*
G02*
X61151000Y78276000I-175000J0D01*
G01*
X59451000Y78276000D01*
G75*
G02*
X59276000Y78451000I0J175000D01*
G01*
X59276000Y78801000D01*
G75*
G02*
X59451000Y78976000I175000J0D01*
G01*
X61151000Y78976000D01*
G75*
G02*
X61326000Y78801000I0J-175000D01*
G01*
G37*
G36*
G01*
X61326000Y80071000D02*
X61326000Y79721000D01*
G75*
G02*
X61151000Y79546000I-175000J0D01*
G01*
X59451000Y79546000D01*
G75*
G02*
X59276000Y79721000I0J175000D01*
G01*
X59276000Y80071000D01*
G75*
G02*
X59451000Y80246000I175000J0D01*
G01*
X61151000Y80246000D01*
G75*
G02*
X61326000Y80071000I0J-175000D01*
G01*
G37*
G36*
G01*
X61326000Y81341000D02*
X61326000Y80991000D01*
G75*
G02*
X61151000Y80816000I-175000J0D01*
G01*
X59451000Y80816000D01*
G75*
G02*
X59276000Y80991000I0J175000D01*
G01*
X59276000Y81341000D01*
G75*
G02*
X59451000Y81516000I175000J0D01*
G01*
X61151000Y81516000D01*
G75*
G02*
X61326000Y81341000I0J-175000D01*
G01*
G37*
G36*
G01*
X66276000Y81341000D02*
X66276000Y80991000D01*
G75*
G02*
X66101000Y80816000I-175000J0D01*
G01*
X64401000Y80816000D01*
G75*
G02*
X64226000Y80991000I0J175000D01*
G01*
X64226000Y81341000D01*
G75*
G02*
X64401000Y81516000I175000J0D01*
G01*
X66101000Y81516000D01*
G75*
G02*
X66276000Y81341000I0J-175000D01*
G01*
G37*
G36*
G01*
X66276000Y80071000D02*
X66276000Y79721000D01*
G75*
G02*
X66101000Y79546000I-175000J0D01*
G01*
X64401000Y79546000D01*
G75*
G02*
X64226000Y79721000I0J175000D01*
G01*
X64226000Y80071000D01*
G75*
G02*
X64401000Y80246000I175000J0D01*
G01*
X66101000Y80246000D01*
G75*
G02*
X66276000Y80071000I0J-175000D01*
G01*
G37*
G36*
G01*
X66276000Y78801000D02*
X66276000Y78451000D01*
G75*
G02*
X66101000Y78276000I-175000J0D01*
G01*
X64401000Y78276000D01*
G75*
G02*
X64226000Y78451000I0J175000D01*
G01*
X64226000Y78801000D01*
G75*
G02*
X64401000Y78976000I175000J0D01*
G01*
X66101000Y78976000D01*
G75*
G02*
X66276000Y78801000I0J-175000D01*
G01*
G37*
G36*
G01*
X66276000Y77531000D02*
X66276000Y77181000D01*
G75*
G02*
X66101000Y77006000I-175000J0D01*
G01*
X64401000Y77006000D01*
G75*
G02*
X64226000Y77181000I0J175000D01*
G01*
X64226000Y77531000D01*
G75*
G02*
X64401000Y77706000I175000J0D01*
G01*
X66101000Y77706000D01*
G75*
G02*
X66276000Y77531000I0J-175000D01*
G01*
G37*
%TD*%
D27*
%TO.C,J9*%
X12100000Y50000000D03*
D28*
X5800000Y50000000D03*
D29*
X9100000Y55000000D03*
%TD*%
D27*
%TO.C,J8*%
X12100000Y62000000D03*
D28*
X5800000Y62000000D03*
D29*
X9100000Y67000000D03*
%TD*%
D27*
%TO.C,J7*%
X12100000Y74000000D03*
D28*
X5800000Y74000000D03*
D29*
X9100000Y79000000D03*
%TD*%
D27*
%TO.C,J6*%
X12100000Y86000000D03*
D28*
X5800000Y86000000D03*
D29*
X9100000Y91000000D03*
%TD*%
D30*
%TO.C,J11*%
X7253000Y23508000D03*
D31*
X7253000Y19758000D03*
X7253000Y27258000D03*
D22*
X13753000Y23508000D03*
D32*
X15253000Y18208000D03*
%TD*%
D30*
%TO.C,J10*%
X7253000Y36970000D03*
D31*
X7253000Y33220000D03*
X7253000Y40720000D03*
D22*
X13753000Y36970000D03*
D32*
X15253000Y31670000D03*
%TD*%
%TO.C,R27*%
G36*
G01*
X31601500Y48172750D02*
X31601500Y49135250D01*
G75*
G02*
X31870250Y49404000I268750J0D01*
G01*
X32407750Y49404000D01*
G75*
G02*
X32676500Y49135250I0J-268750D01*
G01*
X32676500Y48172750D01*
G75*
G02*
X32407750Y47904000I-268750J0D01*
G01*
X31870250Y47904000D01*
G75*
G02*
X31601500Y48172750I0J268750D01*
G01*
G37*
G36*
G01*
X29726500Y48172750D02*
X29726500Y49135250D01*
G75*
G02*
X29995250Y49404000I268750J0D01*
G01*
X30532750Y49404000D01*
G75*
G02*
X30801500Y49135250I0J-268750D01*
G01*
X30801500Y48172750D01*
G75*
G02*
X30532750Y47904000I-268750J0D01*
G01*
X29995250Y47904000D01*
G75*
G02*
X29726500Y48172750I0J268750D01*
G01*
G37*
%TD*%
%TO.C,R26*%
G36*
G01*
X31553000Y60110750D02*
X31553000Y61073250D01*
G75*
G02*
X31821750Y61342000I268750J0D01*
G01*
X32359250Y61342000D01*
G75*
G02*
X32628000Y61073250I0J-268750D01*
G01*
X32628000Y60110750D01*
G75*
G02*
X32359250Y59842000I-268750J0D01*
G01*
X31821750Y59842000D01*
G75*
G02*
X31553000Y60110750I0J268750D01*
G01*
G37*
G36*
G01*
X29678000Y60110750D02*
X29678000Y61073250D01*
G75*
G02*
X29946750Y61342000I268750J0D01*
G01*
X30484250Y61342000D01*
G75*
G02*
X30753000Y61073250I0J-268750D01*
G01*
X30753000Y60110750D01*
G75*
G02*
X30484250Y59842000I-268750J0D01*
G01*
X29946750Y59842000D01*
G75*
G02*
X29678000Y60110750I0J268750D01*
G01*
G37*
%TD*%
%TO.C,R25*%
G36*
G01*
X31553000Y72048750D02*
X31553000Y73011250D01*
G75*
G02*
X31821750Y73280000I268750J0D01*
G01*
X32359250Y73280000D01*
G75*
G02*
X32628000Y73011250I0J-268750D01*
G01*
X32628000Y72048750D01*
G75*
G02*
X32359250Y71780000I-268750J0D01*
G01*
X31821750Y71780000D01*
G75*
G02*
X31553000Y72048750I0J268750D01*
G01*
G37*
G36*
G01*
X29678000Y72048750D02*
X29678000Y73011250D01*
G75*
G02*
X29946750Y73280000I268750J0D01*
G01*
X30484250Y73280000D01*
G75*
G02*
X30753000Y73011250I0J-268750D01*
G01*
X30753000Y72048750D01*
G75*
G02*
X30484250Y71780000I-268750J0D01*
G01*
X29946750Y71780000D01*
G75*
G02*
X29678000Y72048750I0J268750D01*
G01*
G37*
%TD*%
%TO.C,R24*%
G36*
G01*
X31553000Y84113750D02*
X31553000Y85076250D01*
G75*
G02*
X31821750Y85345000I268750J0D01*
G01*
X32359250Y85345000D01*
G75*
G02*
X32628000Y85076250I0J-268750D01*
G01*
X32628000Y84113750D01*
G75*
G02*
X32359250Y83845000I-268750J0D01*
G01*
X31821750Y83845000D01*
G75*
G02*
X31553000Y84113750I0J268750D01*
G01*
G37*
G36*
G01*
X29678000Y84113750D02*
X29678000Y85076250D01*
G75*
G02*
X29946750Y85345000I268750J0D01*
G01*
X30484250Y85345000D01*
G75*
G02*
X30753000Y85076250I0J-268750D01*
G01*
X30753000Y84113750D01*
G75*
G02*
X30484250Y83845000I-268750J0D01*
G01*
X29946750Y83845000D01*
G75*
G02*
X29678000Y84113750I0J268750D01*
G01*
G37*
%TD*%
%TO.C,R21*%
G36*
G01*
X27070000Y49135250D02*
X27070000Y48172750D01*
G75*
G02*
X26801250Y47904000I-268750J0D01*
G01*
X26263750Y47904000D01*
G75*
G02*
X25995000Y48172750I0J268750D01*
G01*
X25995000Y49135250D01*
G75*
G02*
X26263750Y49404000I268750J0D01*
G01*
X26801250Y49404000D01*
G75*
G02*
X27070000Y49135250I0J-268750D01*
G01*
G37*
G36*
G01*
X28945000Y49135250D02*
X28945000Y48172750D01*
G75*
G02*
X28676250Y47904000I-268750J0D01*
G01*
X28138750Y47904000D01*
G75*
G02*
X27870000Y48172750I0J268750D01*
G01*
X27870000Y49135250D01*
G75*
G02*
X28138750Y49404000I268750J0D01*
G01*
X28676250Y49404000D01*
G75*
G02*
X28945000Y49135250I0J-268750D01*
G01*
G37*
%TD*%
%TO.C,R20*%
G36*
G01*
X27070000Y61073250D02*
X27070000Y60110750D01*
G75*
G02*
X26801250Y59842000I-268750J0D01*
G01*
X26263750Y59842000D01*
G75*
G02*
X25995000Y60110750I0J268750D01*
G01*
X25995000Y61073250D01*
G75*
G02*
X26263750Y61342000I268750J0D01*
G01*
X26801250Y61342000D01*
G75*
G02*
X27070000Y61073250I0J-268750D01*
G01*
G37*
G36*
G01*
X28945000Y61073250D02*
X28945000Y60110750D01*
G75*
G02*
X28676250Y59842000I-268750J0D01*
G01*
X28138750Y59842000D01*
G75*
G02*
X27870000Y60110750I0J268750D01*
G01*
X27870000Y61073250D01*
G75*
G02*
X28138750Y61342000I268750J0D01*
G01*
X28676250Y61342000D01*
G75*
G02*
X28945000Y61073250I0J-268750D01*
G01*
G37*
%TD*%
%TO.C,R19*%
G36*
G01*
X27070000Y73011250D02*
X27070000Y72048750D01*
G75*
G02*
X26801250Y71780000I-268750J0D01*
G01*
X26263750Y71780000D01*
G75*
G02*
X25995000Y72048750I0J268750D01*
G01*
X25995000Y73011250D01*
G75*
G02*
X26263750Y73280000I268750J0D01*
G01*
X26801250Y73280000D01*
G75*
G02*
X27070000Y73011250I0J-268750D01*
G01*
G37*
G36*
G01*
X28945000Y73011250D02*
X28945000Y72048750D01*
G75*
G02*
X28676250Y71780000I-268750J0D01*
G01*
X28138750Y71780000D01*
G75*
G02*
X27870000Y72048750I0J268750D01*
G01*
X27870000Y73011250D01*
G75*
G02*
X28138750Y73280000I268750J0D01*
G01*
X28676250Y73280000D01*
G75*
G02*
X28945000Y73011250I0J-268750D01*
G01*
G37*
%TD*%
%TO.C,R18*%
G36*
G01*
X27070000Y85076250D02*
X27070000Y84113750D01*
G75*
G02*
X26801250Y83845000I-268750J0D01*
G01*
X26263750Y83845000D01*
G75*
G02*
X25995000Y84113750I0J268750D01*
G01*
X25995000Y85076250D01*
G75*
G02*
X26263750Y85345000I268750J0D01*
G01*
X26801250Y85345000D01*
G75*
G02*
X27070000Y85076250I0J-268750D01*
G01*
G37*
G36*
G01*
X28945000Y85076250D02*
X28945000Y84113750D01*
G75*
G02*
X28676250Y83845000I-268750J0D01*
G01*
X28138750Y83845000D01*
G75*
G02*
X27870000Y84113750I0J268750D01*
G01*
X27870000Y85076250D01*
G75*
G02*
X28138750Y85345000I268750J0D01*
G01*
X28676250Y85345000D01*
G75*
G02*
X28945000Y85076250I0J-268750D01*
G01*
G37*
%TD*%
%TO.C,R17*%
G36*
G01*
X27070000Y22527250D02*
X27070000Y21564750D01*
G75*
G02*
X26801250Y21296000I-268750J0D01*
G01*
X26263750Y21296000D01*
G75*
G02*
X25995000Y21564750I0J268750D01*
G01*
X25995000Y22527250D01*
G75*
G02*
X26263750Y22796000I268750J0D01*
G01*
X26801250Y22796000D01*
G75*
G02*
X27070000Y22527250I0J-268750D01*
G01*
G37*
G36*
G01*
X28945000Y22527250D02*
X28945000Y21564750D01*
G75*
G02*
X28676250Y21296000I-268750J0D01*
G01*
X28138750Y21296000D01*
G75*
G02*
X27870000Y21564750I0J268750D01*
G01*
X27870000Y22527250D01*
G75*
G02*
X28138750Y22796000I268750J0D01*
G01*
X28676250Y22796000D01*
G75*
G02*
X28945000Y22527250I0J-268750D01*
G01*
G37*
%TD*%
%TO.C,R16*%
G36*
G01*
X27070000Y36116250D02*
X27070000Y35153750D01*
G75*
G02*
X26801250Y34885000I-268750J0D01*
G01*
X26263750Y34885000D01*
G75*
G02*
X25995000Y35153750I0J268750D01*
G01*
X25995000Y36116250D01*
G75*
G02*
X26263750Y36385000I268750J0D01*
G01*
X26801250Y36385000D01*
G75*
G02*
X27070000Y36116250I0J-268750D01*
G01*
G37*
G36*
G01*
X28945000Y36116250D02*
X28945000Y35153750D01*
G75*
G02*
X28676250Y34885000I-268750J0D01*
G01*
X28138750Y34885000D01*
G75*
G02*
X27870000Y35153750I0J268750D01*
G01*
X27870000Y36116250D01*
G75*
G02*
X28138750Y36385000I268750J0D01*
G01*
X28676250Y36385000D01*
G75*
G02*
X28945000Y36116250I0J-268750D01*
G01*
G37*
%TD*%
%TO.C,R23*%
G36*
G01*
X31553000Y21564750D02*
X31553000Y22527250D01*
G75*
G02*
X31821750Y22796000I268750J0D01*
G01*
X32359250Y22796000D01*
G75*
G02*
X32628000Y22527250I0J-268750D01*
G01*
X32628000Y21564750D01*
G75*
G02*
X32359250Y21296000I-268750J0D01*
G01*
X31821750Y21296000D01*
G75*
G02*
X31553000Y21564750I0J268750D01*
G01*
G37*
G36*
G01*
X29678000Y21564750D02*
X29678000Y22527250D01*
G75*
G02*
X29946750Y22796000I268750J0D01*
G01*
X30484250Y22796000D01*
G75*
G02*
X30753000Y22527250I0J-268750D01*
G01*
X30753000Y21564750D01*
G75*
G02*
X30484250Y21296000I-268750J0D01*
G01*
X29946750Y21296000D01*
G75*
G02*
X29678000Y21564750I0J268750D01*
G01*
G37*
%TD*%
%TO.C,R22*%
G36*
G01*
X31553000Y35153750D02*
X31553000Y36116250D01*
G75*
G02*
X31821750Y36385000I268750J0D01*
G01*
X32359250Y36385000D01*
G75*
G02*
X32628000Y36116250I0J-268750D01*
G01*
X32628000Y35153750D01*
G75*
G02*
X32359250Y34885000I-268750J0D01*
G01*
X31821750Y34885000D01*
G75*
G02*
X31553000Y35153750I0J268750D01*
G01*
G37*
G36*
G01*
X29678000Y35153750D02*
X29678000Y36116250D01*
G75*
G02*
X29946750Y36385000I268750J0D01*
G01*
X30484250Y36385000D01*
G75*
G02*
X30753000Y36116250I0J-268750D01*
G01*
X30753000Y35153750D01*
G75*
G02*
X30484250Y34885000I-268750J0D01*
G01*
X29946750Y34885000D01*
G75*
G02*
X29678000Y35153750I0J268750D01*
G01*
G37*
%TD*%
%TO.C,C12*%
G36*
G01*
X57341750Y77845000D02*
X58304250Y77845000D01*
G75*
G02*
X58573000Y77576250I0J-268750D01*
G01*
X58573000Y77038750D01*
G75*
G02*
X58304250Y76770000I-268750J0D01*
G01*
X57341750Y76770000D01*
G75*
G02*
X57073000Y77038750I0J268750D01*
G01*
X57073000Y77576250D01*
G75*
G02*
X57341750Y77845000I268750J0D01*
G01*
G37*
G36*
G01*
X57341750Y79720000D02*
X58304250Y79720000D01*
G75*
G02*
X58573000Y79451250I0J-268750D01*
G01*
X58573000Y78913750D01*
G75*
G02*
X58304250Y78645000I-268750J0D01*
G01*
X57341750Y78645000D01*
G75*
G02*
X57073000Y78913750I0J268750D01*
G01*
X57073000Y79451250D01*
G75*
G02*
X57341750Y79720000I268750J0D01*
G01*
G37*
%TD*%
%TO.C,R6*%
G36*
G01*
X112518750Y72700000D02*
X113481250Y72700000D01*
G75*
G02*
X113750000Y72431250I0J-268750D01*
G01*
X113750000Y71893750D01*
G75*
G02*
X113481250Y71625000I-268750J0D01*
G01*
X112518750Y71625000D01*
G75*
G02*
X112250000Y71893750I0J268750D01*
G01*
X112250000Y72431250D01*
G75*
G02*
X112518750Y72700000I268750J0D01*
G01*
G37*
G36*
G01*
X112518750Y74575000D02*
X113481250Y74575000D01*
G75*
G02*
X113750000Y74306250I0J-268750D01*
G01*
X113750000Y73768750D01*
G75*
G02*
X113481250Y73500000I-268750J0D01*
G01*
X112518750Y73500000D01*
G75*
G02*
X112250000Y73768750I0J268750D01*
G01*
X112250000Y74306250D01*
G75*
G02*
X112518750Y74575000I268750J0D01*
G01*
G37*
%TD*%
%TO.C,D3*%
G36*
G01*
X116781250Y75400000D02*
X115818750Y75400000D01*
G75*
G02*
X115550000Y75668750I0J268750D01*
G01*
X115550000Y76206250D01*
G75*
G02*
X115818750Y76475000I268750J0D01*
G01*
X116781250Y76475000D01*
G75*
G02*
X117050000Y76206250I0J-268750D01*
G01*
X117050000Y75668750D01*
G75*
G02*
X116781250Y75400000I-268750J0D01*
G01*
G37*
G36*
G01*
X116781250Y73525000D02*
X115818750Y73525000D01*
G75*
G02*
X115550000Y73793750I0J268750D01*
G01*
X115550000Y74331250D01*
G75*
G02*
X115818750Y74600000I268750J0D01*
G01*
X116781250Y74600000D01*
G75*
G02*
X117050000Y74331250I0J-268750D01*
G01*
X117050000Y73793750D01*
G75*
G02*
X116781250Y73525000I-268750J0D01*
G01*
G37*
%TD*%
D33*
%TO.C,J5*%
X92240000Y23992000D03*
X92240000Y20992000D03*
D34*
X90765000Y22492000D03*
X93715000Y22492000D03*
%TD*%
%TO.C,D2*%
G36*
G01*
X115818750Y64600000D02*
X116781250Y64600000D01*
G75*
G02*
X117050000Y64331250I0J-268750D01*
G01*
X117050000Y63793750D01*
G75*
G02*
X116781250Y63525000I-268750J0D01*
G01*
X115818750Y63525000D01*
G75*
G02*
X115550000Y63793750I0J268750D01*
G01*
X115550000Y64331250D01*
G75*
G02*
X115818750Y64600000I268750J0D01*
G01*
G37*
G36*
G01*
X115818750Y66475000D02*
X116781250Y66475000D01*
G75*
G02*
X117050000Y66206250I0J-268750D01*
G01*
X117050000Y65668750D01*
G75*
G02*
X116781250Y65400000I-268750J0D01*
G01*
X115818750Y65400000D01*
G75*
G02*
X115550000Y65668750I0J268750D01*
G01*
X115550000Y66206250D01*
G75*
G02*
X115818750Y66475000I268750J0D01*
G01*
G37*
%TD*%
%TO.C,R5*%
G36*
G01*
X113481250Y67300000D02*
X112518750Y67300000D01*
G75*
G02*
X112250000Y67568750I0J268750D01*
G01*
X112250000Y68106250D01*
G75*
G02*
X112518750Y68375000I268750J0D01*
G01*
X113481250Y68375000D01*
G75*
G02*
X113750000Y68106250I0J-268750D01*
G01*
X113750000Y67568750D01*
G75*
G02*
X113481250Y67300000I-268750J0D01*
G01*
G37*
G36*
G01*
X113481250Y65425000D02*
X112518750Y65425000D01*
G75*
G02*
X112250000Y65693750I0J268750D01*
G01*
X112250000Y66231250D01*
G75*
G02*
X112518750Y66500000I268750J0D01*
G01*
X113481250Y66500000D01*
G75*
G02*
X113750000Y66231250I0J-268750D01*
G01*
X113750000Y65693750D01*
G75*
G02*
X113481250Y65425000I-268750J0D01*
G01*
G37*
%TD*%
D22*
%TO.C,TP3*%
X44361000Y86500000D03*
%TD*%
%TO.C,T13*%
G36*
G01*
X17638000Y48321000D02*
X17638000Y47971000D01*
G75*
G02*
X17463000Y47796000I-175000J0D01*
G01*
X15763000Y47796000D01*
G75*
G02*
X15588000Y47971000I0J175000D01*
G01*
X15588000Y48321000D01*
G75*
G02*
X15763000Y48496000I175000J0D01*
G01*
X17463000Y48496000D01*
G75*
G02*
X17638000Y48321000I0J-175000D01*
G01*
G37*
G36*
G01*
X17638000Y49591000D02*
X17638000Y49241000D01*
G75*
G02*
X17463000Y49066000I-175000J0D01*
G01*
X15763000Y49066000D01*
G75*
G02*
X15588000Y49241000I0J175000D01*
G01*
X15588000Y49591000D01*
G75*
G02*
X15763000Y49766000I175000J0D01*
G01*
X17463000Y49766000D01*
G75*
G02*
X17638000Y49591000I0J-175000D01*
G01*
G37*
G36*
G01*
X17638000Y50861000D02*
X17638000Y50511000D01*
G75*
G02*
X17463000Y50336000I-175000J0D01*
G01*
X15763000Y50336000D01*
G75*
G02*
X15588000Y50511000I0J175000D01*
G01*
X15588000Y50861000D01*
G75*
G02*
X15763000Y51036000I175000J0D01*
G01*
X17463000Y51036000D01*
G75*
G02*
X17638000Y50861000I0J-175000D01*
G01*
G37*
G36*
G01*
X17638000Y52131000D02*
X17638000Y51781000D01*
G75*
G02*
X17463000Y51606000I-175000J0D01*
G01*
X15763000Y51606000D01*
G75*
G02*
X15588000Y51781000I0J175000D01*
G01*
X15588000Y52131000D01*
G75*
G02*
X15763000Y52306000I175000J0D01*
G01*
X17463000Y52306000D01*
G75*
G02*
X17638000Y52131000I0J-175000D01*
G01*
G37*
G36*
G01*
X22588000Y52131000D02*
X22588000Y51781000D01*
G75*
G02*
X22413000Y51606000I-175000J0D01*
G01*
X20713000Y51606000D01*
G75*
G02*
X20538000Y51781000I0J175000D01*
G01*
X20538000Y52131000D01*
G75*
G02*
X20713000Y52306000I175000J0D01*
G01*
X22413000Y52306000D01*
G75*
G02*
X22588000Y52131000I0J-175000D01*
G01*
G37*
G36*
G01*
X22588000Y50861000D02*
X22588000Y50511000D01*
G75*
G02*
X22413000Y50336000I-175000J0D01*
G01*
X20713000Y50336000D01*
G75*
G02*
X20538000Y50511000I0J175000D01*
G01*
X20538000Y50861000D01*
G75*
G02*
X20713000Y51036000I175000J0D01*
G01*
X22413000Y51036000D01*
G75*
G02*
X22588000Y50861000I0J-175000D01*
G01*
G37*
G36*
G01*
X22588000Y49591000D02*
X22588000Y49241000D01*
G75*
G02*
X22413000Y49066000I-175000J0D01*
G01*
X20713000Y49066000D01*
G75*
G02*
X20538000Y49241000I0J175000D01*
G01*
X20538000Y49591000D01*
G75*
G02*
X20713000Y49766000I175000J0D01*
G01*
X22413000Y49766000D01*
G75*
G02*
X22588000Y49591000I0J-175000D01*
G01*
G37*
G36*
G01*
X22588000Y48321000D02*
X22588000Y47971000D01*
G75*
G02*
X22413000Y47796000I-175000J0D01*
G01*
X20713000Y47796000D01*
G75*
G02*
X20538000Y47971000I0J175000D01*
G01*
X20538000Y48321000D01*
G75*
G02*
X20713000Y48496000I175000J0D01*
G01*
X22413000Y48496000D01*
G75*
G02*
X22588000Y48321000I0J-175000D01*
G01*
G37*
%TD*%
%TO.C,T12*%
G36*
G01*
X17638000Y60259000D02*
X17638000Y59909000D01*
G75*
G02*
X17463000Y59734000I-175000J0D01*
G01*
X15763000Y59734000D01*
G75*
G02*
X15588000Y59909000I0J175000D01*
G01*
X15588000Y60259000D01*
G75*
G02*
X15763000Y60434000I175000J0D01*
G01*
X17463000Y60434000D01*
G75*
G02*
X17638000Y60259000I0J-175000D01*
G01*
G37*
G36*
G01*
X17638000Y61529000D02*
X17638000Y61179000D01*
G75*
G02*
X17463000Y61004000I-175000J0D01*
G01*
X15763000Y61004000D01*
G75*
G02*
X15588000Y61179000I0J175000D01*
G01*
X15588000Y61529000D01*
G75*
G02*
X15763000Y61704000I175000J0D01*
G01*
X17463000Y61704000D01*
G75*
G02*
X17638000Y61529000I0J-175000D01*
G01*
G37*
G36*
G01*
X17638000Y62799000D02*
X17638000Y62449000D01*
G75*
G02*
X17463000Y62274000I-175000J0D01*
G01*
X15763000Y62274000D01*
G75*
G02*
X15588000Y62449000I0J175000D01*
G01*
X15588000Y62799000D01*
G75*
G02*
X15763000Y62974000I175000J0D01*
G01*
X17463000Y62974000D01*
G75*
G02*
X17638000Y62799000I0J-175000D01*
G01*
G37*
G36*
G01*
X17638000Y64069000D02*
X17638000Y63719000D01*
G75*
G02*
X17463000Y63544000I-175000J0D01*
G01*
X15763000Y63544000D01*
G75*
G02*
X15588000Y63719000I0J175000D01*
G01*
X15588000Y64069000D01*
G75*
G02*
X15763000Y64244000I175000J0D01*
G01*
X17463000Y64244000D01*
G75*
G02*
X17638000Y64069000I0J-175000D01*
G01*
G37*
G36*
G01*
X22588000Y64069000D02*
X22588000Y63719000D01*
G75*
G02*
X22413000Y63544000I-175000J0D01*
G01*
X20713000Y63544000D01*
G75*
G02*
X20538000Y63719000I0J175000D01*
G01*
X20538000Y64069000D01*
G75*
G02*
X20713000Y64244000I175000J0D01*
G01*
X22413000Y64244000D01*
G75*
G02*
X22588000Y64069000I0J-175000D01*
G01*
G37*
G36*
G01*
X22588000Y62799000D02*
X22588000Y62449000D01*
G75*
G02*
X22413000Y62274000I-175000J0D01*
G01*
X20713000Y62274000D01*
G75*
G02*
X20538000Y62449000I0J175000D01*
G01*
X20538000Y62799000D01*
G75*
G02*
X20713000Y62974000I175000J0D01*
G01*
X22413000Y62974000D01*
G75*
G02*
X22588000Y62799000I0J-175000D01*
G01*
G37*
G36*
G01*
X22588000Y61529000D02*
X22588000Y61179000D01*
G75*
G02*
X22413000Y61004000I-175000J0D01*
G01*
X20713000Y61004000D01*
G75*
G02*
X20538000Y61179000I0J175000D01*
G01*
X20538000Y61529000D01*
G75*
G02*
X20713000Y61704000I175000J0D01*
G01*
X22413000Y61704000D01*
G75*
G02*
X22588000Y61529000I0J-175000D01*
G01*
G37*
G36*
G01*
X22588000Y60259000D02*
X22588000Y59909000D01*
G75*
G02*
X22413000Y59734000I-175000J0D01*
G01*
X20713000Y59734000D01*
G75*
G02*
X20538000Y59909000I0J175000D01*
G01*
X20538000Y60259000D01*
G75*
G02*
X20713000Y60434000I175000J0D01*
G01*
X22413000Y60434000D01*
G75*
G02*
X22588000Y60259000I0J-175000D01*
G01*
G37*
%TD*%
%TO.C,T11*%
G36*
G01*
X17638000Y72324000D02*
X17638000Y71974000D01*
G75*
G02*
X17463000Y71799000I-175000J0D01*
G01*
X15763000Y71799000D01*
G75*
G02*
X15588000Y71974000I0J175000D01*
G01*
X15588000Y72324000D01*
G75*
G02*
X15763000Y72499000I175000J0D01*
G01*
X17463000Y72499000D01*
G75*
G02*
X17638000Y72324000I0J-175000D01*
G01*
G37*
G36*
G01*
X17638000Y73594000D02*
X17638000Y73244000D01*
G75*
G02*
X17463000Y73069000I-175000J0D01*
G01*
X15763000Y73069000D01*
G75*
G02*
X15588000Y73244000I0J175000D01*
G01*
X15588000Y73594000D01*
G75*
G02*
X15763000Y73769000I175000J0D01*
G01*
X17463000Y73769000D01*
G75*
G02*
X17638000Y73594000I0J-175000D01*
G01*
G37*
G36*
G01*
X17638000Y74864000D02*
X17638000Y74514000D01*
G75*
G02*
X17463000Y74339000I-175000J0D01*
G01*
X15763000Y74339000D01*
G75*
G02*
X15588000Y74514000I0J175000D01*
G01*
X15588000Y74864000D01*
G75*
G02*
X15763000Y75039000I175000J0D01*
G01*
X17463000Y75039000D01*
G75*
G02*
X17638000Y74864000I0J-175000D01*
G01*
G37*
G36*
G01*
X17638000Y76134000D02*
X17638000Y75784000D01*
G75*
G02*
X17463000Y75609000I-175000J0D01*
G01*
X15763000Y75609000D01*
G75*
G02*
X15588000Y75784000I0J175000D01*
G01*
X15588000Y76134000D01*
G75*
G02*
X15763000Y76309000I175000J0D01*
G01*
X17463000Y76309000D01*
G75*
G02*
X17638000Y76134000I0J-175000D01*
G01*
G37*
G36*
G01*
X22588000Y76134000D02*
X22588000Y75784000D01*
G75*
G02*
X22413000Y75609000I-175000J0D01*
G01*
X20713000Y75609000D01*
G75*
G02*
X20538000Y75784000I0J175000D01*
G01*
X20538000Y76134000D01*
G75*
G02*
X20713000Y76309000I175000J0D01*
G01*
X22413000Y76309000D01*
G75*
G02*
X22588000Y76134000I0J-175000D01*
G01*
G37*
G36*
G01*
X22588000Y74864000D02*
X22588000Y74514000D01*
G75*
G02*
X22413000Y74339000I-175000J0D01*
G01*
X20713000Y74339000D01*
G75*
G02*
X20538000Y74514000I0J175000D01*
G01*
X20538000Y74864000D01*
G75*
G02*
X20713000Y75039000I175000J0D01*
G01*
X22413000Y75039000D01*
G75*
G02*
X22588000Y74864000I0J-175000D01*
G01*
G37*
G36*
G01*
X22588000Y73594000D02*
X22588000Y73244000D01*
G75*
G02*
X22413000Y73069000I-175000J0D01*
G01*
X20713000Y73069000D01*
G75*
G02*
X20538000Y73244000I0J175000D01*
G01*
X20538000Y73594000D01*
G75*
G02*
X20713000Y73769000I175000J0D01*
G01*
X22413000Y73769000D01*
G75*
G02*
X22588000Y73594000I0J-175000D01*
G01*
G37*
G36*
G01*
X22588000Y72324000D02*
X22588000Y71974000D01*
G75*
G02*
X22413000Y71799000I-175000J0D01*
G01*
X20713000Y71799000D01*
G75*
G02*
X20538000Y71974000I0J175000D01*
G01*
X20538000Y72324000D01*
G75*
G02*
X20713000Y72499000I175000J0D01*
G01*
X22413000Y72499000D01*
G75*
G02*
X22588000Y72324000I0J-175000D01*
G01*
G37*
%TD*%
%TO.C,T10*%
G36*
G01*
X17638000Y84262000D02*
X17638000Y83912000D01*
G75*
G02*
X17463000Y83737000I-175000J0D01*
G01*
X15763000Y83737000D01*
G75*
G02*
X15588000Y83912000I0J175000D01*
G01*
X15588000Y84262000D01*
G75*
G02*
X15763000Y84437000I175000J0D01*
G01*
X17463000Y84437000D01*
G75*
G02*
X17638000Y84262000I0J-175000D01*
G01*
G37*
G36*
G01*
X17638000Y85532000D02*
X17638000Y85182000D01*
G75*
G02*
X17463000Y85007000I-175000J0D01*
G01*
X15763000Y85007000D01*
G75*
G02*
X15588000Y85182000I0J175000D01*
G01*
X15588000Y85532000D01*
G75*
G02*
X15763000Y85707000I175000J0D01*
G01*
X17463000Y85707000D01*
G75*
G02*
X17638000Y85532000I0J-175000D01*
G01*
G37*
G36*
G01*
X17638000Y86802000D02*
X17638000Y86452000D01*
G75*
G02*
X17463000Y86277000I-175000J0D01*
G01*
X15763000Y86277000D01*
G75*
G02*
X15588000Y86452000I0J175000D01*
G01*
X15588000Y86802000D01*
G75*
G02*
X15763000Y86977000I175000J0D01*
G01*
X17463000Y86977000D01*
G75*
G02*
X17638000Y86802000I0J-175000D01*
G01*
G37*
G36*
G01*
X17638000Y88072000D02*
X17638000Y87722000D01*
G75*
G02*
X17463000Y87547000I-175000J0D01*
G01*
X15763000Y87547000D01*
G75*
G02*
X15588000Y87722000I0J175000D01*
G01*
X15588000Y88072000D01*
G75*
G02*
X15763000Y88247000I175000J0D01*
G01*
X17463000Y88247000D01*
G75*
G02*
X17638000Y88072000I0J-175000D01*
G01*
G37*
G36*
G01*
X22588000Y88072000D02*
X22588000Y87722000D01*
G75*
G02*
X22413000Y87547000I-175000J0D01*
G01*
X20713000Y87547000D01*
G75*
G02*
X20538000Y87722000I0J175000D01*
G01*
X20538000Y88072000D01*
G75*
G02*
X20713000Y88247000I175000J0D01*
G01*
X22413000Y88247000D01*
G75*
G02*
X22588000Y88072000I0J-175000D01*
G01*
G37*
G36*
G01*
X22588000Y86802000D02*
X22588000Y86452000D01*
G75*
G02*
X22413000Y86277000I-175000J0D01*
G01*
X20713000Y86277000D01*
G75*
G02*
X20538000Y86452000I0J175000D01*
G01*
X20538000Y86802000D01*
G75*
G02*
X20713000Y86977000I175000J0D01*
G01*
X22413000Y86977000D01*
G75*
G02*
X22588000Y86802000I0J-175000D01*
G01*
G37*
G36*
G01*
X22588000Y85532000D02*
X22588000Y85182000D01*
G75*
G02*
X22413000Y85007000I-175000J0D01*
G01*
X20713000Y85007000D01*
G75*
G02*
X20538000Y85182000I0J175000D01*
G01*
X20538000Y85532000D01*
G75*
G02*
X20713000Y85707000I175000J0D01*
G01*
X22413000Y85707000D01*
G75*
G02*
X22588000Y85532000I0J-175000D01*
G01*
G37*
G36*
G01*
X22588000Y84262000D02*
X22588000Y83912000D01*
G75*
G02*
X22413000Y83737000I-175000J0D01*
G01*
X20713000Y83737000D01*
G75*
G02*
X20538000Y83912000I0J175000D01*
G01*
X20538000Y84262000D01*
G75*
G02*
X20713000Y84437000I175000J0D01*
G01*
X22413000Y84437000D01*
G75*
G02*
X22588000Y84262000I0J-175000D01*
G01*
G37*
%TD*%
D35*
%TO.C,T7*%
X31153000Y52702000D03*
X32103000Y50702000D03*
X30203000Y50702000D03*
%TD*%
%TO.C,T6*%
X31153000Y64640000D03*
X32103000Y62640000D03*
X30203000Y62640000D03*
%TD*%
%TO.C,T5*%
X31153000Y76705000D03*
X32103000Y74705000D03*
X30203000Y74705000D03*
%TD*%
%TO.C,T4*%
X31153000Y88643000D03*
X32103000Y86643000D03*
X30203000Y86643000D03*
%TD*%
%TO.C,T3*%
X31153000Y26094000D03*
X32103000Y24094000D03*
X30203000Y24094000D03*
%TD*%
%TO.C,T2*%
X31153000Y39683000D03*
X32103000Y37683000D03*
X30203000Y37683000D03*
%TD*%
%TO.C,T9*%
G36*
G01*
X17892000Y21713000D02*
X17892000Y21363000D01*
G75*
G02*
X17717000Y21188000I-175000J0D01*
G01*
X16017000Y21188000D01*
G75*
G02*
X15842000Y21363000I0J175000D01*
G01*
X15842000Y21713000D01*
G75*
G02*
X16017000Y21888000I175000J0D01*
G01*
X17717000Y21888000D01*
G75*
G02*
X17892000Y21713000I0J-175000D01*
G01*
G37*
G36*
G01*
X17892000Y22983000D02*
X17892000Y22633000D01*
G75*
G02*
X17717000Y22458000I-175000J0D01*
G01*
X16017000Y22458000D01*
G75*
G02*
X15842000Y22633000I0J175000D01*
G01*
X15842000Y22983000D01*
G75*
G02*
X16017000Y23158000I175000J0D01*
G01*
X17717000Y23158000D01*
G75*
G02*
X17892000Y22983000I0J-175000D01*
G01*
G37*
G36*
G01*
X17892000Y24253000D02*
X17892000Y23903000D01*
G75*
G02*
X17717000Y23728000I-175000J0D01*
G01*
X16017000Y23728000D01*
G75*
G02*
X15842000Y23903000I0J175000D01*
G01*
X15842000Y24253000D01*
G75*
G02*
X16017000Y24428000I175000J0D01*
G01*
X17717000Y24428000D01*
G75*
G02*
X17892000Y24253000I0J-175000D01*
G01*
G37*
G36*
G01*
X17892000Y25523000D02*
X17892000Y25173000D01*
G75*
G02*
X17717000Y24998000I-175000J0D01*
G01*
X16017000Y24998000D01*
G75*
G02*
X15842000Y25173000I0J175000D01*
G01*
X15842000Y25523000D01*
G75*
G02*
X16017000Y25698000I175000J0D01*
G01*
X17717000Y25698000D01*
G75*
G02*
X17892000Y25523000I0J-175000D01*
G01*
G37*
G36*
G01*
X22842000Y25523000D02*
X22842000Y25173000D01*
G75*
G02*
X22667000Y24998000I-175000J0D01*
G01*
X20967000Y24998000D01*
G75*
G02*
X20792000Y25173000I0J175000D01*
G01*
X20792000Y25523000D01*
G75*
G02*
X20967000Y25698000I175000J0D01*
G01*
X22667000Y25698000D01*
G75*
G02*
X22842000Y25523000I0J-175000D01*
G01*
G37*
G36*
G01*
X22842000Y24253000D02*
X22842000Y23903000D01*
G75*
G02*
X22667000Y23728000I-175000J0D01*
G01*
X20967000Y23728000D01*
G75*
G02*
X20792000Y23903000I0J175000D01*
G01*
X20792000Y24253000D01*
G75*
G02*
X20967000Y24428000I175000J0D01*
G01*
X22667000Y24428000D01*
G75*
G02*
X22842000Y24253000I0J-175000D01*
G01*
G37*
G36*
G01*
X22842000Y22983000D02*
X22842000Y22633000D01*
G75*
G02*
X22667000Y22458000I-175000J0D01*
G01*
X20967000Y22458000D01*
G75*
G02*
X20792000Y22633000I0J175000D01*
G01*
X20792000Y22983000D01*
G75*
G02*
X20967000Y23158000I175000J0D01*
G01*
X22667000Y23158000D01*
G75*
G02*
X22842000Y22983000I0J-175000D01*
G01*
G37*
G36*
G01*
X22842000Y21713000D02*
X22842000Y21363000D01*
G75*
G02*
X22667000Y21188000I-175000J0D01*
G01*
X20967000Y21188000D01*
G75*
G02*
X20792000Y21363000I0J175000D01*
G01*
X20792000Y21713000D01*
G75*
G02*
X20967000Y21888000I175000J0D01*
G01*
X22667000Y21888000D01*
G75*
G02*
X22842000Y21713000I0J-175000D01*
G01*
G37*
%TD*%
%TO.C,T8*%
G36*
G01*
X17892000Y35302000D02*
X17892000Y34952000D01*
G75*
G02*
X17717000Y34777000I-175000J0D01*
G01*
X16017000Y34777000D01*
G75*
G02*
X15842000Y34952000I0J175000D01*
G01*
X15842000Y35302000D01*
G75*
G02*
X16017000Y35477000I175000J0D01*
G01*
X17717000Y35477000D01*
G75*
G02*
X17892000Y35302000I0J-175000D01*
G01*
G37*
G36*
G01*
X17892000Y36572000D02*
X17892000Y36222000D01*
G75*
G02*
X17717000Y36047000I-175000J0D01*
G01*
X16017000Y36047000D01*
G75*
G02*
X15842000Y36222000I0J175000D01*
G01*
X15842000Y36572000D01*
G75*
G02*
X16017000Y36747000I175000J0D01*
G01*
X17717000Y36747000D01*
G75*
G02*
X17892000Y36572000I0J-175000D01*
G01*
G37*
G36*
G01*
X17892000Y37842000D02*
X17892000Y37492000D01*
G75*
G02*
X17717000Y37317000I-175000J0D01*
G01*
X16017000Y37317000D01*
G75*
G02*
X15842000Y37492000I0J175000D01*
G01*
X15842000Y37842000D01*
G75*
G02*
X16017000Y38017000I175000J0D01*
G01*
X17717000Y38017000D01*
G75*
G02*
X17892000Y37842000I0J-175000D01*
G01*
G37*
G36*
G01*
X17892000Y39112000D02*
X17892000Y38762000D01*
G75*
G02*
X17717000Y38587000I-175000J0D01*
G01*
X16017000Y38587000D01*
G75*
G02*
X15842000Y38762000I0J175000D01*
G01*
X15842000Y39112000D01*
G75*
G02*
X16017000Y39287000I175000J0D01*
G01*
X17717000Y39287000D01*
G75*
G02*
X17892000Y39112000I0J-175000D01*
G01*
G37*
G36*
G01*
X22842000Y39112000D02*
X22842000Y38762000D01*
G75*
G02*
X22667000Y38587000I-175000J0D01*
G01*
X20967000Y38587000D01*
G75*
G02*
X20792000Y38762000I0J175000D01*
G01*
X20792000Y39112000D01*
G75*
G02*
X20967000Y39287000I175000J0D01*
G01*
X22667000Y39287000D01*
G75*
G02*
X22842000Y39112000I0J-175000D01*
G01*
G37*
G36*
G01*
X22842000Y37842000D02*
X22842000Y37492000D01*
G75*
G02*
X22667000Y37317000I-175000J0D01*
G01*
X20967000Y37317000D01*
G75*
G02*
X20792000Y37492000I0J175000D01*
G01*
X20792000Y37842000D01*
G75*
G02*
X20967000Y38017000I175000J0D01*
G01*
X22667000Y38017000D01*
G75*
G02*
X22842000Y37842000I0J-175000D01*
G01*
G37*
G36*
G01*
X22842000Y36572000D02*
X22842000Y36222000D01*
G75*
G02*
X22667000Y36047000I-175000J0D01*
G01*
X20967000Y36047000D01*
G75*
G02*
X20792000Y36222000I0J175000D01*
G01*
X20792000Y36572000D01*
G75*
G02*
X20967000Y36747000I175000J0D01*
G01*
X22667000Y36747000D01*
G75*
G02*
X22842000Y36572000I0J-175000D01*
G01*
G37*
G36*
G01*
X22842000Y35302000D02*
X22842000Y34952000D01*
G75*
G02*
X22667000Y34777000I-175000J0D01*
G01*
X20967000Y34777000D01*
G75*
G02*
X20792000Y34952000I0J175000D01*
G01*
X20792000Y35302000D01*
G75*
G02*
X20967000Y35477000I175000J0D01*
G01*
X22667000Y35477000D01*
G75*
G02*
X22842000Y35302000I0J-175000D01*
G01*
G37*
%TD*%
%TO.C,R15*%
G36*
G01*
X27750750Y51302000D02*
X28713250Y51302000D01*
G75*
G02*
X28982000Y51033250I0J-268750D01*
G01*
X28982000Y50495750D01*
G75*
G02*
X28713250Y50227000I-268750J0D01*
G01*
X27750750Y50227000D01*
G75*
G02*
X27482000Y50495750I0J268750D01*
G01*
X27482000Y51033250D01*
G75*
G02*
X27750750Y51302000I268750J0D01*
G01*
G37*
G36*
G01*
X27750750Y53177000D02*
X28713250Y53177000D01*
G75*
G02*
X28982000Y52908250I0J-268750D01*
G01*
X28982000Y52370750D01*
G75*
G02*
X28713250Y52102000I-268750J0D01*
G01*
X27750750Y52102000D01*
G75*
G02*
X27482000Y52370750I0J268750D01*
G01*
X27482000Y52908250D01*
G75*
G02*
X27750750Y53177000I268750J0D01*
G01*
G37*
%TD*%
%TO.C,R14*%
G36*
G01*
X27750750Y63240000D02*
X28713250Y63240000D01*
G75*
G02*
X28982000Y62971250I0J-268750D01*
G01*
X28982000Y62433750D01*
G75*
G02*
X28713250Y62165000I-268750J0D01*
G01*
X27750750Y62165000D01*
G75*
G02*
X27482000Y62433750I0J268750D01*
G01*
X27482000Y62971250D01*
G75*
G02*
X27750750Y63240000I268750J0D01*
G01*
G37*
G36*
G01*
X27750750Y65115000D02*
X28713250Y65115000D01*
G75*
G02*
X28982000Y64846250I0J-268750D01*
G01*
X28982000Y64308750D01*
G75*
G02*
X28713250Y64040000I-268750J0D01*
G01*
X27750750Y64040000D01*
G75*
G02*
X27482000Y64308750I0J268750D01*
G01*
X27482000Y64846250D01*
G75*
G02*
X27750750Y65115000I268750J0D01*
G01*
G37*
%TD*%
%TO.C,R13*%
G36*
G01*
X27750750Y75305000D02*
X28713250Y75305000D01*
G75*
G02*
X28982000Y75036250I0J-268750D01*
G01*
X28982000Y74498750D01*
G75*
G02*
X28713250Y74230000I-268750J0D01*
G01*
X27750750Y74230000D01*
G75*
G02*
X27482000Y74498750I0J268750D01*
G01*
X27482000Y75036250D01*
G75*
G02*
X27750750Y75305000I268750J0D01*
G01*
G37*
G36*
G01*
X27750750Y77180000D02*
X28713250Y77180000D01*
G75*
G02*
X28982000Y76911250I0J-268750D01*
G01*
X28982000Y76373750D01*
G75*
G02*
X28713250Y76105000I-268750J0D01*
G01*
X27750750Y76105000D01*
G75*
G02*
X27482000Y76373750I0J268750D01*
G01*
X27482000Y76911250D01*
G75*
G02*
X27750750Y77180000I268750J0D01*
G01*
G37*
%TD*%
%TO.C,R12*%
G36*
G01*
X27750750Y87243000D02*
X28713250Y87243000D01*
G75*
G02*
X28982000Y86974250I0J-268750D01*
G01*
X28982000Y86436750D01*
G75*
G02*
X28713250Y86168000I-268750J0D01*
G01*
X27750750Y86168000D01*
G75*
G02*
X27482000Y86436750I0J268750D01*
G01*
X27482000Y86974250D01*
G75*
G02*
X27750750Y87243000I268750J0D01*
G01*
G37*
G36*
G01*
X27750750Y89118000D02*
X28713250Y89118000D01*
G75*
G02*
X28982000Y88849250I0J-268750D01*
G01*
X28982000Y88311750D01*
G75*
G02*
X28713250Y88043000I-268750J0D01*
G01*
X27750750Y88043000D01*
G75*
G02*
X27482000Y88311750I0J268750D01*
G01*
X27482000Y88849250D01*
G75*
G02*
X27750750Y89118000I268750J0D01*
G01*
G37*
%TD*%
%TO.C,R9*%
G36*
G01*
X68718250Y83852000D02*
X67755750Y83852000D01*
G75*
G02*
X67487000Y84120750I0J268750D01*
G01*
X67487000Y84658250D01*
G75*
G02*
X67755750Y84927000I268750J0D01*
G01*
X68718250Y84927000D01*
G75*
G02*
X68987000Y84658250I0J-268750D01*
G01*
X68987000Y84120750D01*
G75*
G02*
X68718250Y83852000I-268750J0D01*
G01*
G37*
G36*
G01*
X68718250Y81977000D02*
X67755750Y81977000D01*
G75*
G02*
X67487000Y82245750I0J268750D01*
G01*
X67487000Y82783250D01*
G75*
G02*
X67755750Y83052000I268750J0D01*
G01*
X68718250Y83052000D01*
G75*
G02*
X68987000Y82783250I0J-268750D01*
G01*
X68987000Y82245750D01*
G75*
G02*
X68718250Y81977000I-268750J0D01*
G01*
G37*
%TD*%
%TO.C,R8*%
G36*
G01*
X56534000Y84949250D02*
X56534000Y83986750D01*
G75*
G02*
X56265250Y83718000I-268750J0D01*
G01*
X55727750Y83718000D01*
G75*
G02*
X55459000Y83986750I0J268750D01*
G01*
X55459000Y84949250D01*
G75*
G02*
X55727750Y85218000I268750J0D01*
G01*
X56265250Y85218000D01*
G75*
G02*
X56534000Y84949250I0J-268750D01*
G01*
G37*
G36*
G01*
X58409000Y84949250D02*
X58409000Y83986750D01*
G75*
G02*
X58140250Y83718000I-268750J0D01*
G01*
X57602750Y83718000D01*
G75*
G02*
X57334000Y83986750I0J268750D01*
G01*
X57334000Y84949250D01*
G75*
G02*
X57602750Y85218000I268750J0D01*
G01*
X58140250Y85218000D01*
G75*
G02*
X58409000Y84949250I0J-268750D01*
G01*
G37*
%TD*%
%TO.C,R4*%
G36*
G01*
X75195250Y83852000D02*
X74232750Y83852000D01*
G75*
G02*
X73964000Y84120750I0J268750D01*
G01*
X73964000Y84658250D01*
G75*
G02*
X74232750Y84927000I268750J0D01*
G01*
X75195250Y84927000D01*
G75*
G02*
X75464000Y84658250I0J-268750D01*
G01*
X75464000Y84120750D01*
G75*
G02*
X75195250Y83852000I-268750J0D01*
G01*
G37*
G36*
G01*
X75195250Y81977000D02*
X74232750Y81977000D01*
G75*
G02*
X73964000Y82245750I0J268750D01*
G01*
X73964000Y82783250D01*
G75*
G02*
X74232750Y83052000I268750J0D01*
G01*
X75195250Y83052000D01*
G75*
G02*
X75464000Y82783250I0J-268750D01*
G01*
X75464000Y82245750D01*
G75*
G02*
X75195250Y81977000I-268750J0D01*
G01*
G37*
%TD*%
%TO.C,R3*%
G36*
G01*
X76391750Y83052000D02*
X77354250Y83052000D01*
G75*
G02*
X77623000Y82783250I0J-268750D01*
G01*
X77623000Y82245750D01*
G75*
G02*
X77354250Y81977000I-268750J0D01*
G01*
X76391750Y81977000D01*
G75*
G02*
X76123000Y82245750I0J268750D01*
G01*
X76123000Y82783250D01*
G75*
G02*
X76391750Y83052000I268750J0D01*
G01*
G37*
G36*
G01*
X76391750Y84927000D02*
X77354250Y84927000D01*
G75*
G02*
X77623000Y84658250I0J-268750D01*
G01*
X77623000Y84120750D01*
G75*
G02*
X77354250Y83852000I-268750J0D01*
G01*
X76391750Y83852000D01*
G75*
G02*
X76123000Y84120750I0J268750D01*
G01*
X76123000Y84658250D01*
G75*
G02*
X76391750Y84927000I268750J0D01*
G01*
G37*
%TD*%
%TO.C,R11*%
G36*
G01*
X27750750Y24694000D02*
X28713250Y24694000D01*
G75*
G02*
X28982000Y24425250I0J-268750D01*
G01*
X28982000Y23887750D01*
G75*
G02*
X28713250Y23619000I-268750J0D01*
G01*
X27750750Y23619000D01*
G75*
G02*
X27482000Y23887750I0J268750D01*
G01*
X27482000Y24425250D01*
G75*
G02*
X27750750Y24694000I268750J0D01*
G01*
G37*
G36*
G01*
X27750750Y26569000D02*
X28713250Y26569000D01*
G75*
G02*
X28982000Y26300250I0J-268750D01*
G01*
X28982000Y25762750D01*
G75*
G02*
X28713250Y25494000I-268750J0D01*
G01*
X27750750Y25494000D01*
G75*
G02*
X27482000Y25762750I0J268750D01*
G01*
X27482000Y26300250D01*
G75*
G02*
X27750750Y26569000I268750J0D01*
G01*
G37*
%TD*%
%TO.C,R10*%
G36*
G01*
X27750750Y38283000D02*
X28713250Y38283000D01*
G75*
G02*
X28982000Y38014250I0J-268750D01*
G01*
X28982000Y37476750D01*
G75*
G02*
X28713250Y37208000I-268750J0D01*
G01*
X27750750Y37208000D01*
G75*
G02*
X27482000Y37476750I0J268750D01*
G01*
X27482000Y38014250D01*
G75*
G02*
X27750750Y38283000I268750J0D01*
G01*
G37*
G36*
G01*
X27750750Y40158000D02*
X28713250Y40158000D01*
G75*
G02*
X28982000Y39889250I0J-268750D01*
G01*
X28982000Y39351750D01*
G75*
G02*
X28713250Y39083000I-268750J0D01*
G01*
X27750750Y39083000D01*
G75*
G02*
X27482000Y39351750I0J268750D01*
G01*
X27482000Y39889250D01*
G75*
G02*
X27750750Y40158000I268750J0D01*
G01*
G37*
%TD*%
%TO.C,IC4*%
G36*
G01*
X64226000Y86833000D02*
X64226000Y87183000D01*
G75*
G02*
X64401000Y87358000I175000J0D01*
G01*
X66101000Y87358000D01*
G75*
G02*
X66276000Y87183000I0J-175000D01*
G01*
X66276000Y86833000D01*
G75*
G02*
X66101000Y86658000I-175000J0D01*
G01*
X64401000Y86658000D01*
G75*
G02*
X64226000Y86833000I0J175000D01*
G01*
G37*
G36*
G01*
X64226000Y85563000D02*
X64226000Y85913000D01*
G75*
G02*
X64401000Y86088000I175000J0D01*
G01*
X66101000Y86088000D01*
G75*
G02*
X66276000Y85913000I0J-175000D01*
G01*
X66276000Y85563000D01*
G75*
G02*
X66101000Y85388000I-175000J0D01*
G01*
X64401000Y85388000D01*
G75*
G02*
X64226000Y85563000I0J175000D01*
G01*
G37*
G36*
G01*
X64226000Y84293000D02*
X64226000Y84643000D01*
G75*
G02*
X64401000Y84818000I175000J0D01*
G01*
X66101000Y84818000D01*
G75*
G02*
X66276000Y84643000I0J-175000D01*
G01*
X66276000Y84293000D01*
G75*
G02*
X66101000Y84118000I-175000J0D01*
G01*
X64401000Y84118000D01*
G75*
G02*
X64226000Y84293000I0J175000D01*
G01*
G37*
G36*
G01*
X64226000Y83023000D02*
X64226000Y83373000D01*
G75*
G02*
X64401000Y83548000I175000J0D01*
G01*
X66101000Y83548000D01*
G75*
G02*
X66276000Y83373000I0J-175000D01*
G01*
X66276000Y83023000D01*
G75*
G02*
X66101000Y82848000I-175000J0D01*
G01*
X64401000Y82848000D01*
G75*
G02*
X64226000Y83023000I0J175000D01*
G01*
G37*
G36*
G01*
X59276000Y83023000D02*
X59276000Y83373000D01*
G75*
G02*
X59451000Y83548000I175000J0D01*
G01*
X61151000Y83548000D01*
G75*
G02*
X61326000Y83373000I0J-175000D01*
G01*
X61326000Y83023000D01*
G75*
G02*
X61151000Y82848000I-175000J0D01*
G01*
X59451000Y82848000D01*
G75*
G02*
X59276000Y83023000I0J175000D01*
G01*
G37*
G36*
G01*
X59276000Y84293000D02*
X59276000Y84643000D01*
G75*
G02*
X59451000Y84818000I175000J0D01*
G01*
X61151000Y84818000D01*
G75*
G02*
X61326000Y84643000I0J-175000D01*
G01*
X61326000Y84293000D01*
G75*
G02*
X61151000Y84118000I-175000J0D01*
G01*
X59451000Y84118000D01*
G75*
G02*
X59276000Y84293000I0J175000D01*
G01*
G37*
G36*
G01*
X59276000Y85563000D02*
X59276000Y85913000D01*
G75*
G02*
X59451000Y86088000I175000J0D01*
G01*
X61151000Y86088000D01*
G75*
G02*
X61326000Y85913000I0J-175000D01*
G01*
X61326000Y85563000D01*
G75*
G02*
X61151000Y85388000I-175000J0D01*
G01*
X59451000Y85388000D01*
G75*
G02*
X59276000Y85563000I0J175000D01*
G01*
G37*
G36*
G01*
X59276000Y86833000D02*
X59276000Y87183000D01*
G75*
G02*
X59451000Y87358000I175000J0D01*
G01*
X61151000Y87358000D01*
G75*
G02*
X61326000Y87183000I0J-175000D01*
G01*
X61326000Y86833000D01*
G75*
G02*
X61151000Y86658000I-175000J0D01*
G01*
X59451000Y86658000D01*
G75*
G02*
X59276000Y86833000I0J175000D01*
G01*
G37*
%TD*%
D36*
%TO.C,IC1*%
X55707000Y86566000D03*
X55707000Y88466000D03*
X57907000Y88466000D03*
X57907000Y87516000D03*
X57907000Y86566000D03*
%TD*%
%TO.C,C15*%
G36*
G01*
X38111250Y81947000D02*
X37148750Y81947000D01*
G75*
G02*
X36880000Y82215750I0J268750D01*
G01*
X36880000Y82753250D01*
G75*
G02*
X37148750Y83022000I268750J0D01*
G01*
X38111250Y83022000D01*
G75*
G02*
X38380000Y82753250I0J-268750D01*
G01*
X38380000Y82215750D01*
G75*
G02*
X38111250Y81947000I-268750J0D01*
G01*
G37*
G36*
G01*
X38111250Y80072000D02*
X37148750Y80072000D01*
G75*
G02*
X36880000Y80340750I0J268750D01*
G01*
X36880000Y80878250D01*
G75*
G02*
X37148750Y81147000I268750J0D01*
G01*
X38111250Y81147000D01*
G75*
G02*
X38380000Y80878250I0J-268750D01*
G01*
X38380000Y80340750D01*
G75*
G02*
X38111250Y80072000I-268750J0D01*
G01*
G37*
%TD*%
%TO.C,C13*%
G36*
G01*
X70877250Y83852000D02*
X69914750Y83852000D01*
G75*
G02*
X69646000Y84120750I0J268750D01*
G01*
X69646000Y84658250D01*
G75*
G02*
X69914750Y84927000I268750J0D01*
G01*
X70877250Y84927000D01*
G75*
G02*
X71146000Y84658250I0J-268750D01*
G01*
X71146000Y84120750D01*
G75*
G02*
X70877250Y83852000I-268750J0D01*
G01*
G37*
G36*
G01*
X70877250Y81977000D02*
X69914750Y81977000D01*
G75*
G02*
X69646000Y82245750I0J268750D01*
G01*
X69646000Y82783250D01*
G75*
G02*
X69914750Y83052000I268750J0D01*
G01*
X70877250Y83052000D01*
G75*
G02*
X71146000Y82783250I0J-268750D01*
G01*
X71146000Y82245750D01*
G75*
G02*
X70877250Y81977000I-268750J0D01*
G01*
G37*
%TD*%
%TO.C,C11*%
G36*
G01*
X57334000Y81700750D02*
X57334000Y82663250D01*
G75*
G02*
X57602750Y82932000I268750J0D01*
G01*
X58140250Y82932000D01*
G75*
G02*
X58409000Y82663250I0J-268750D01*
G01*
X58409000Y81700750D01*
G75*
G02*
X58140250Y81432000I-268750J0D01*
G01*
X57602750Y81432000D01*
G75*
G02*
X57334000Y81700750I0J268750D01*
G01*
G37*
G36*
G01*
X55459000Y81700750D02*
X55459000Y82663250D01*
G75*
G02*
X55727750Y82932000I268750J0D01*
G01*
X56265250Y82932000D01*
G75*
G02*
X56534000Y82663250I0J-268750D01*
G01*
X56534000Y81700750D01*
G75*
G02*
X56265250Y81432000I-268750J0D01*
G01*
X55727750Y81432000D01*
G75*
G02*
X55459000Y81700750I0J268750D01*
G01*
G37*
%TD*%
%TO.C,C9*%
G36*
G01*
X53277750Y87116000D02*
X54240250Y87116000D01*
G75*
G02*
X54509000Y86847250I0J-268750D01*
G01*
X54509000Y86309750D01*
G75*
G02*
X54240250Y86041000I-268750J0D01*
G01*
X53277750Y86041000D01*
G75*
G02*
X53009000Y86309750I0J268750D01*
G01*
X53009000Y86847250D01*
G75*
G02*
X53277750Y87116000I268750J0D01*
G01*
G37*
G36*
G01*
X53277750Y88991000D02*
X54240250Y88991000D01*
G75*
G02*
X54509000Y88722250I0J-268750D01*
G01*
X54509000Y88184750D01*
G75*
G02*
X54240250Y87916000I-268750J0D01*
G01*
X53277750Y87916000D01*
G75*
G02*
X53009000Y88184750I0J268750D01*
G01*
X53009000Y88722250D01*
G75*
G02*
X53277750Y88991000I268750J0D01*
G01*
G37*
%TD*%
%TO.C,C6*%
G36*
G01*
X73036250Y83852000D02*
X72073750Y83852000D01*
G75*
G02*
X71805000Y84120750I0J268750D01*
G01*
X71805000Y84658250D01*
G75*
G02*
X72073750Y84927000I268750J0D01*
G01*
X73036250Y84927000D01*
G75*
G02*
X73305000Y84658250I0J-268750D01*
G01*
X73305000Y84120750D01*
G75*
G02*
X73036250Y83852000I-268750J0D01*
G01*
G37*
G36*
G01*
X73036250Y81977000D02*
X72073750Y81977000D01*
G75*
G02*
X71805000Y82245750I0J268750D01*
G01*
X71805000Y82783250D01*
G75*
G02*
X72073750Y83052000I268750J0D01*
G01*
X73036250Y83052000D01*
G75*
G02*
X73305000Y82783250I0J-268750D01*
G01*
X73305000Y82245750D01*
G75*
G02*
X73036250Y81977000I-268750J0D01*
G01*
G37*
%TD*%
%TO.C,C1*%
G36*
G01*
X90230000Y80351890D02*
X90230000Y78424110D01*
G75*
G02*
X89968890Y78163000I-261110J0D01*
G01*
X88141110Y78163000D01*
G75*
G02*
X87880000Y78424110I0J261110D01*
G01*
X87880000Y80351890D01*
G75*
G02*
X88141110Y80613000I261110J0D01*
G01*
X89968890Y80613000D01*
G75*
G02*
X90230000Y80351890I0J-261110D01*
G01*
G37*
G36*
G01*
X95330000Y80351890D02*
X95330000Y78424110D01*
G75*
G02*
X95068890Y78163000I-261110J0D01*
G01*
X93241110Y78163000D01*
G75*
G02*
X92980000Y78424110I0J261110D01*
G01*
X92980000Y80351890D01*
G75*
G02*
X93241110Y80613000I261110J0D01*
G01*
X95068890Y80613000D01*
G75*
G02*
X95330000Y80351890I0J-261110D01*
G01*
G37*
%TD*%
M02*
