%TF.GenerationSoftware,KiCad,Pcbnew,(5.1.6-0-10_14)*%
%TF.CreationDate,2020-09-02T22:05:45+02:00*%
%TF.ProjectId,Astroberry_power_shield,41737472-6f62-4657-9272-795f706f7765,rev?*%
%TF.SameCoordinates,PX2faf080PY8f0d180*%
%TF.FileFunction,Profile,NP*%
%FSLAX46Y46*%
G04 Gerber Fmt 4.6, Leading zero omitted, Abs format (unit mm)*
G04 Created by KiCad (PCBNEW (5.1.6-0-10_14)) date 2020-09-02 22:05:45*
%MOMM*%
%LPD*%
G01*
G04 APERTURE LIST*
%TA.AperFunction,Profile*%
%ADD10C,0.050000*%
%TD*%
G04 APERTURE END LIST*
D10*
X75550000Y38900000D02*
G75*
G03*
X75550000Y38900000I-11500000J0D01*
G01*
X119000000Y0D02*
X1000000Y0D01*
X0Y1000000D02*
X0Y99000000D01*
X119000000Y8000000D02*
X105000000Y8000000D01*
X119000000Y100000000D02*
G75*
G02*
X120000000Y99000000I0J-1000000D01*
G01*
X120000000Y1000000D02*
G75*
G02*
X119000000Y0I-1000000J0D01*
G01*
X1000000Y0D02*
G75*
G02*
X0Y1000000I0J1000000D01*
G01*
X0Y99000000D02*
G75*
G02*
X1000000Y100000000I1000000J0D01*
G01*
X119000000Y8000000D02*
G75*
G02*
X120000000Y7000000I0J-1000000D01*
G01*
X105000000Y8000000D02*
G75*
G02*
X104000000Y9000000I0J1000000D01*
G01*
X103000000Y43000000D02*
G75*
G02*
X104000000Y42000000I0J-1000000D01*
G01*
X101000000Y43000000D02*
G75*
G02*
X100000000Y44000000I0J1000000D01*
G01*
X100000000Y60000000D02*
G75*
G02*
X101000000Y61000000I1000000J0D01*
G01*
X120000000Y62000000D02*
G75*
G02*
X119000000Y61000000I-1000000J0D01*
G01*
X119000000Y100000000D02*
X1000000Y100000000D01*
X120000000Y62000000D02*
X120000000Y99000000D01*
X101000000Y61000000D02*
X119000000Y61000000D01*
X100000000Y44000000D02*
X100000000Y60000000D01*
X103000000Y43000000D02*
X101000000Y43000000D01*
X104000000Y9000000D02*
X104000000Y42000000D01*
X120000000Y1000000D02*
X120000000Y7000000D01*
M02*
