%MOIN*%
%OFA0B0*%
%FSLAX36Y36*%
%IPPOS*%
%LPD*%
%ADD10C,0*%
D10*
X000916692Y002202755D02*
X000916692Y002202755D01*
X000263149Y002202755D01*
X000263149Y002561023D01*
X000916692Y002561023D01*
X000916692Y002202755D01*
X003124015Y001998031D02*
X003124015Y001998031D01*
X003124015Y002636614D01*
X003732282Y002636614D01*
X003732282Y001998031D01*
X003124015Y001998031D01*
X002423228Y001998031D02*
X002423228Y001998031D01*
X002423228Y002636614D01*
X003017715Y002636614D01*
X003017715Y001998031D01*
X002423228Y001998031D01*
X001665354Y002112204D02*
X001665354Y002112204D01*
X001665354Y002651574D01*
X002299212Y002651574D01*
X002299212Y002112204D01*
X001665354Y002112204D01*
X002577660Y000401350D02*
X002577660Y000401350D01*
X002565307Y000401916D01*
X002553011Y000403233D01*
X002540818Y000405298D01*
X002528773Y000408102D01*
X002516922Y000411636D01*
X002505309Y000415885D01*
X002493976Y000420835D01*
X002482966Y000426466D01*
X002472319Y000432757D01*
X002462076Y000439687D01*
X002452275Y000447227D01*
X002442951Y000455351D01*
X002434140Y000464029D01*
X002425875Y000473228D01*
X002418186Y000482913D01*
X002411101Y000493049D01*
X002404648Y000503598D01*
X002398849Y000514521D01*
X002393727Y000525777D01*
X002389301Y000537325D01*
X002385588Y000549121D01*
X002382600Y000561121D01*
X002380350Y000573281D01*
X002378845Y000585555D01*
X002378091Y000597899D01*
X002378091Y000610266D01*
X002378845Y000622609D01*
X002380350Y000634884D01*
X002382600Y000647044D01*
X002385588Y000659044D01*
X002389301Y000670840D01*
X002393727Y000682387D01*
X002398849Y000693644D01*
X002404648Y000704566D01*
X002411101Y000715116D01*
X002418186Y000725251D01*
X002425875Y000734937D01*
X002434140Y000744135D01*
X002442951Y000752813D01*
X002452275Y000760937D01*
X002462076Y000768478D01*
X002472319Y000775407D01*
X002482966Y000781699D01*
X002493976Y000787330D01*
X002505309Y000792279D01*
X002516922Y000796529D01*
X002528773Y000800062D01*
X002540818Y000802866D01*
X002553011Y000804931D01*
X002565307Y000806249D01*
X002577660Y000806815D01*
X002590025Y000806626D01*
X002602356Y000805684D01*
X002614606Y000803992D01*
X002626731Y000801556D01*
X002638684Y000798386D01*
X002650421Y000794493D01*
X002661900Y000789891D01*
X002673077Y000784599D01*
X002683910Y000778634D01*
X002694360Y000772021D01*
X002704386Y000764783D01*
X002713954Y000756946D01*
X002723025Y000748542D01*
X002731567Y000739599D01*
X002739548Y000730153D01*
X002746939Y000720238D01*
X002753711Y000709890D01*
X002759840Y000699149D01*
X002765302Y000688054D01*
X002770078Y000676647D01*
X002774150Y000664970D01*
X002777502Y000653067D01*
X002780122Y000640981D01*
X002782001Y000628758D01*
X002783131Y000616443D01*
X002783508Y000604082D01*
X002783131Y000591722D01*
X002782001Y000579407D01*
X002780122Y000567184D01*
X002777502Y000555098D01*
X002774150Y000543194D01*
X002770078Y000531517D01*
X002765302Y000520110D01*
X002759840Y000509016D01*
X002753711Y000498275D01*
X002746939Y000487927D01*
X002739548Y000478012D01*
X002731567Y000468565D01*
X002723025Y000459623D01*
X002713954Y000451218D01*
X002704386Y000443382D01*
X002694360Y000436144D01*
X002683910Y000429530D01*
X002673077Y000423566D01*
X002661900Y000418274D01*
X002650421Y000413672D01*
X002638684Y000409779D01*
X002626731Y000406609D01*
X002614606Y000404173D01*
X002602356Y000402481D01*
X002590025Y000401538D01*
X002577660Y000401350D01*
X003109156Y000401350D02*
X003109156Y000401350D01*
X003096803Y000401916D01*
X003084507Y000403233D01*
X003072314Y000405298D01*
X003060269Y000408102D01*
X003048418Y000411636D01*
X003036805Y000415885D01*
X003025472Y000420835D01*
X003014462Y000426466D01*
X003003815Y000432757D01*
X002993572Y000439687D01*
X002983771Y000447227D01*
X002974448Y000455351D01*
X002965636Y000464029D01*
X002957371Y000473228D01*
X002949682Y000482913D01*
X002942597Y000493049D01*
X002936143Y000503598D01*
X002930345Y000514521D01*
X002925224Y000525777D01*
X002920798Y000537325D01*
X002917084Y000549121D01*
X002914096Y000561121D01*
X002911846Y000573281D01*
X002910341Y000585555D01*
X002909587Y000597899D01*
X002909587Y000610266D01*
X002910341Y000622609D01*
X002911846Y000634884D01*
X002914096Y000647044D01*
X002917084Y000659044D01*
X002920798Y000670840D01*
X002925224Y000682387D01*
X002930345Y000693644D01*
X002936143Y000704566D01*
X002942597Y000715116D01*
X002949682Y000725251D01*
X002957371Y000734937D01*
X002965636Y000744136D01*
X002974448Y000752813D01*
X002983771Y000760937D01*
X002993572Y000768478D01*
X003003815Y000775407D01*
X003014462Y000781699D01*
X003025472Y000787330D01*
X003036805Y000792279D01*
X003048418Y000796529D01*
X003060269Y000800062D01*
X003072314Y000802866D01*
X003084507Y000804931D01*
X003096803Y000806249D01*
X003109156Y000806815D01*
X003121522Y000806626D01*
X003133852Y000805684D01*
X003146102Y000803992D01*
X003158227Y000801556D01*
X003170180Y000798386D01*
X003181917Y000794493D01*
X003193396Y000789891D01*
X003204573Y000784599D01*
X003215406Y000778635D01*
X003225856Y000772021D01*
X003235883Y000764783D01*
X003245450Y000756946D01*
X003254521Y000748542D01*
X003263063Y000739599D01*
X003271044Y000730153D01*
X003278435Y000720238D01*
X003285207Y000709890D01*
X003291336Y000699149D01*
X003296798Y000688054D01*
X003301574Y000676647D01*
X003305646Y000664970D01*
X003308998Y000653067D01*
X003311619Y000640981D01*
X003313497Y000628758D01*
X003314627Y000616443D01*
X003315004Y000604082D01*
X003314627Y000591722D01*
X003313497Y000579407D01*
X003311619Y000567184D01*
X003308998Y000555098D01*
X003305646Y000543194D01*
X003301574Y000531517D01*
X003296798Y000520110D01*
X003291336Y000509016D01*
X003285207Y000498274D01*
X003278435Y000487927D01*
X003271044Y000478012D01*
X003263063Y000468565D01*
X003254521Y000459623D01*
X003245450Y000451218D01*
X003235883Y000443382D01*
X003225856Y000436144D01*
X003215406Y000429530D01*
X003204573Y000423566D01*
X003193396Y000418274D01*
X003181917Y000413672D01*
X003170180Y000409779D01*
X003158227Y000406609D01*
X003146102Y000404173D01*
X003133852Y000402481D01*
X003121522Y000401538D01*
X003109156Y000401350D01*
X000464566Y000405511D02*
X000464566Y000405511D01*
X000464566Y000870078D01*
X000842519Y000870078D01*
X000842519Y000405511D01*
X000464566Y000405511D01*
X000937007Y000405511D02*
X000937007Y000405511D01*
X000937007Y000870078D01*
X001314960Y000870078D01*
X001314960Y000405511D01*
X000937007Y000405511D01*
X001409448Y000405511D02*
X001409448Y000405511D01*
X001409448Y000870078D01*
X001787401Y000870078D01*
X001787401Y000405511D01*
X001409448Y000405511D01*
X001881889Y000405511D02*
X001881889Y000405511D01*
X001881889Y000870078D01*
X002259842Y000870078D01*
X002259842Y000405511D01*
X001881889Y000405511D01*
X003638146Y000614020D02*
X003638146Y000614020D01*
X003625782Y000614020D01*
X003613474Y000615195D01*
X003601334Y000617535D01*
X003589471Y000621018D01*
X003577993Y000625613D01*
X003567003Y000631279D01*
X003556602Y000637963D01*
X003546884Y000645606D01*
X003537936Y000654138D01*
X003529839Y000663481D01*
X003522668Y000673553D01*
X003516486Y000684260D01*
X003511350Y000695507D01*
X003507306Y000707190D01*
X003504391Y000719206D01*
X003502631Y000731444D01*
X003502043Y000743794D01*
X003502631Y000756143D01*
X003504391Y000768381D01*
X003507306Y000780397D01*
X003511350Y000792081D01*
X003516486Y000803327D01*
X003522668Y000814034D01*
X003529839Y000824105D01*
X003537936Y000833450D01*
X003546884Y000841981D01*
X003556602Y000849624D01*
X003567003Y000856309D01*
X003577993Y000861974D01*
X003589471Y000866569D01*
X003601334Y000870053D01*
X003613474Y000872392D01*
X003625782Y000873568D01*
X003638146Y000873568D01*
X003650454Y000872392D01*
X003662594Y000870053D01*
X003674457Y000866569D01*
X003685935Y000861974D01*
X003696925Y000856309D01*
X003707326Y000849624D01*
X003717044Y000841981D01*
X003725992Y000833450D01*
X003734089Y000824105D01*
X003741261Y000814034D01*
X003747443Y000803327D01*
X003752579Y000792081D01*
X003756623Y000780397D01*
X003759538Y000768381D01*
X003761297Y000756143D01*
X003761885Y000743794D01*
X003761297Y000731444D01*
X003759538Y000719206D01*
X003756623Y000707190D01*
X003752579Y000695507D01*
X003747443Y000684260D01*
X003741261Y000673553D01*
X003734089Y000663481D01*
X003725992Y000654138D01*
X003717044Y000645606D01*
X003707326Y000637963D01*
X003696925Y000631279D01*
X003685935Y000625613D01*
X003674457Y000621018D01*
X003662594Y000617535D01*
X003650454Y000615195D01*
X003638146Y000614020D01*
X003238041Y001574803D02*
X003238041Y001574803D01*
X003238171Y001574802D01*
X003238302Y001574802D01*
X003238433Y001574801D01*
X003238563Y001574799D01*
X003238694Y001574797D01*
X003238824Y001574795D01*
X003238955Y001574792D01*
X003239086Y001574789D01*
X003239216Y001574785D01*
X003239347Y001574781D01*
X003239477Y001574776D01*
X003239608Y001574771D01*
X003239738Y001574766D01*
X003239869Y001574760D01*
X003239999Y001574754D01*
X003240130Y001574747D01*
X003240260Y001574740D01*
X003240390Y001574732D01*
X003240521Y001574724D01*
X003240651Y001574716D01*
X003244385Y001574468D01*
X003250370Y001573605D01*
X003256153Y001571835D01*
X003261597Y001569200D01*
X003266573Y001565763D01*
X003270964Y001561604D01*
X003274665Y001556822D01*
X003277591Y001551529D01*
X003279672Y001545851D01*
X003280858Y001539920D01*
X003281123Y001533879D01*
X003280458Y001527867D01*
X003278881Y001522029D01*
X003276429Y001516501D01*
X003273158Y001511414D01*
X003269148Y001506888D01*
X003264491Y001503029D01*
X003259298Y001499929D01*
X003253692Y001497661D01*
X003247804Y001496279D01*
X003241774Y001495814D01*
X002178196Y001495814D01*
X002174438Y001495994D01*
X002170715Y001496532D01*
X002167060Y001497422D01*
X002163507Y001498657D01*
X002160088Y001500226D01*
X002156834Y001502114D01*
X002153775Y001504304D01*
X002150939Y001506775D01*
X002148352Y001509506D01*
X002146038Y001512472D01*
X002144017Y001515645D01*
X002142308Y001518996D01*
X002140927Y001522495D01*
X002139886Y001526110D01*
X002139195Y001529808D01*
X002138860Y001533555D01*
X002138884Y001537317D01*
X002139267Y001541059D01*
X002140005Y001544748D01*
X002141092Y001548349D01*
X002141180Y001548597D01*
X002142059Y001550853D01*
X002143075Y001553050D01*
X002144225Y001555180D01*
X002145503Y001557236D01*
X002146904Y001559209D01*
X002148425Y001561092D01*
X002150058Y001562879D01*
X002151798Y001564562D01*
X002153638Y001566134D01*
X002155572Y001567591D01*
X002157591Y001568926D01*
X002159688Y001570134D01*
X002161856Y001571211D01*
X002164086Y001572153D01*
X002166369Y001572956D01*
X002168698Y001573618D01*
X002171062Y001574135D01*
X002173454Y001574505D01*
X002175865Y001574728D01*
X002178284Y001574803D01*
X003238041Y001574803D01*
X000898230Y001495814D02*
X000898230Y001495814D01*
X000892200Y001496279D01*
X000886313Y001497661D01*
X000880706Y001499929D01*
X000875514Y001503029D01*
X000870857Y001506888D01*
X000866846Y001511414D01*
X000863575Y001516501D01*
X000861123Y001522029D01*
X000859546Y001527867D01*
X000858882Y001533879D01*
X000859146Y001539920D01*
X000860332Y001545851D01*
X000862413Y001551529D01*
X000865339Y001556822D01*
X000869041Y001561604D01*
X000873431Y001565763D01*
X000878407Y001569200D01*
X000883851Y001571835D01*
X000889634Y001573605D01*
X000895619Y001574468D01*
X000899353Y001574716D01*
X000899483Y001574724D01*
X000899614Y001574732D01*
X000899744Y001574740D01*
X000899875Y001574747D01*
X000900005Y001574754D01*
X000900136Y001574760D01*
X000900266Y001574766D01*
X000900397Y001574771D01*
X000900527Y001574776D01*
X000900658Y001574781D01*
X000900788Y001574785D01*
X000900919Y001574789D01*
X000901049Y001574792D01*
X000901180Y001574795D01*
X000901310Y001574797D01*
X000901441Y001574799D01*
X000901572Y001574801D01*
X000901702Y001574802D01*
X000901833Y001574802D01*
X000901964Y001574803D01*
X001955573Y001574803D01*
X001957993Y001574728D01*
X001960403Y001574505D01*
X001962795Y001574135D01*
X001965160Y001573618D01*
X001967488Y001572956D01*
X001969772Y001572153D01*
X001972001Y001571211D01*
X001974169Y001570134D01*
X001976266Y001568926D01*
X001978286Y001567591D01*
X001980219Y001566134D01*
X001982059Y001564562D01*
X001983799Y001562879D01*
X001985432Y001561092D01*
X001986953Y001559209D01*
X001988355Y001557236D01*
X001989633Y001555180D01*
X001990782Y001553050D01*
X001991798Y001550853D01*
X001992677Y001548597D01*
X001992765Y001548349D01*
X001993852Y001544748D01*
X001994591Y001541059D01*
X001994974Y001537317D01*
X001994998Y001533555D01*
X001994663Y001529808D01*
X001993971Y001526110D01*
X001992930Y001522495D01*
X001991549Y001518996D01*
X001989840Y001515645D01*
X001987819Y001512472D01*
X001985505Y001509506D01*
X001982918Y001506775D01*
X001980082Y001504304D01*
X001977023Y001502114D01*
X001973769Y001500226D01*
X001970350Y001498657D01*
X001966797Y001497422D01*
X001963142Y001496532D01*
X001959419Y001495994D01*
X001955661Y001495814D01*
X000898230Y001495814D01*
X000675887Y001574803D02*
X000675887Y001574803D01*
X000676017Y001574802D01*
X000676148Y001574802D01*
X000676278Y001574801D01*
X000676409Y001574799D01*
X000676540Y001574797D01*
X000676670Y001574795D01*
X000676801Y001574792D01*
X000676931Y001574789D01*
X000677062Y001574785D01*
X000677193Y001574781D01*
X000677323Y001574776D01*
X000677454Y001574771D01*
X000677584Y001574766D01*
X000677715Y001574760D01*
X000677845Y001574754D01*
X000677976Y001574747D01*
X000678106Y001574740D01*
X000678236Y001574732D01*
X000678367Y001574724D01*
X000678497Y001574716D01*
X000682231Y001574468D01*
X000688216Y001573605D01*
X000693999Y001571835D01*
X000699443Y001569200D01*
X000704419Y001565763D01*
X000708809Y001561604D01*
X000712511Y001556822D01*
X000715437Y001551529D01*
X000717518Y001545851D01*
X000718704Y001539920D01*
X000718969Y001533879D01*
X000718304Y001527867D01*
X000716727Y001522029D01*
X000714275Y001516501D01*
X000711004Y001511414D01*
X000706993Y001506888D01*
X000702337Y001503029D01*
X000697144Y001499929D01*
X000691537Y001497661D01*
X000685650Y001496279D01*
X000679620Y001495814D01*
X000159492Y001495814D01*
X000147137Y001495329D01*
X000134857Y001493876D01*
X000122729Y001491463D01*
X000110829Y001488107D01*
X000099227Y001483827D01*
X000087998Y001478650D01*
X000077209Y001472608D01*
X000066928Y001465739D01*
X000057217Y001458083D01*
X000048137Y001449690D01*
X000039744Y001440610D01*
X000032088Y001430899D01*
X000025218Y001420618D01*
X000019177Y001409829D01*
X000014000Y001398600D01*
X000009720Y001386998D01*
X000006364Y001375098D01*
X000003951Y001362970D01*
X000002498Y001350690D01*
X000002012Y001338334D01*
X000002012Y001338334D01*
X000002012Y000157232D01*
X000002498Y000144876D01*
X000003951Y000132597D01*
X000006364Y000120469D01*
X000009720Y000108568D01*
X000014000Y000096967D01*
X000019177Y000085737D01*
X000025218Y000074949D01*
X000032088Y000064667D01*
X000039744Y000054957D01*
X000048137Y000045877D01*
X000057217Y000037483D01*
X000066928Y000029828D01*
X000077209Y000022958D01*
X000087998Y000016916D01*
X000099227Y000011739D01*
X000110829Y000007459D01*
X000122729Y000004103D01*
X000134857Y000001690D01*
X000147137Y000000237D01*
X000159493Y-000000247D01*
X000159493Y-000000247D01*
X003978390Y-000000247D01*
X003990746Y000000237D01*
X004003025Y000001690D01*
X004015153Y000004103D01*
X004027054Y000007459D01*
X004038656Y000011739D01*
X004049885Y000016916D01*
X004060674Y000022958D01*
X004070955Y000029828D01*
X004080666Y000037483D01*
X004089745Y000045877D01*
X004098139Y000054957D01*
X004105795Y000064667D01*
X004112665Y000074949D01*
X004118706Y000085737D01*
X004123883Y000096967D01*
X004128163Y000108568D01*
X004131519Y000120469D01*
X004133932Y000132597D01*
X004135385Y000144876D01*
X004135870Y000157232D01*
X004135870Y001338335D01*
X004135385Y001350690D01*
X004133932Y001362970D01*
X004131519Y001375098D01*
X004128163Y001386998D01*
X004123883Y001398600D01*
X004118706Y001409829D01*
X004112664Y001420618D01*
X004105795Y001430899D01*
X004098139Y001440610D01*
X004089745Y001449690D01*
X004080665Y001458083D01*
X004070955Y001465739D01*
X004060674Y001472609D01*
X004049885Y001478650D01*
X004038656Y001483827D01*
X004027054Y001488107D01*
X004015153Y001491463D01*
X004003025Y001493876D01*
X003990746Y001495329D01*
X003978390Y001495814D01*
X003460384Y001495814D01*
X003454354Y001496279D01*
X003448467Y001497661D01*
X003442860Y001499929D01*
X003437668Y001503029D01*
X003433011Y001506888D01*
X003429000Y001511414D01*
X003425730Y001516501D01*
X003423277Y001522029D01*
X003421700Y001527867D01*
X003421036Y001533879D01*
X003421300Y001539920D01*
X003422486Y001545851D01*
X003424567Y001551529D01*
X003427493Y001556822D01*
X003431195Y001561604D01*
X003435586Y001565763D01*
X003440561Y001569200D01*
X003446005Y001571835D01*
X003451788Y001573605D01*
X003457774Y001574468D01*
X003461507Y001574716D01*
X003461638Y001574724D01*
X003461768Y001574732D01*
X003461898Y001574740D01*
X003462029Y001574747D01*
X003462159Y001574754D01*
X003462290Y001574760D01*
X003462420Y001574766D01*
X003462551Y001574771D01*
X003462681Y001574776D01*
X003462812Y001574781D01*
X003462942Y001574785D01*
X003463073Y001574789D01*
X003463203Y001574792D01*
X003463334Y001574795D01*
X003463465Y001574797D01*
X003463595Y001574799D01*
X003463726Y001574801D01*
X003463856Y001574802D01*
X003463987Y001574802D01*
X003464118Y001574803D01*
X003976377Y001574803D01*
X003988733Y001575288D01*
X004001013Y001576741D01*
X004013140Y001579154D01*
X004025041Y001582510D01*
X004036642Y001586790D01*
X004047872Y001591967D01*
X004058660Y001598009D01*
X004068942Y001604879D01*
X004078653Y001612534D01*
X004087733Y001620927D01*
X004096126Y001630007D01*
X004103781Y001639718D01*
X004110651Y001649999D01*
X004116693Y001660788D01*
X004121870Y001672018D01*
X004126150Y001683619D01*
X004129506Y001695520D01*
X004131919Y001707648D01*
X004133372Y001719927D01*
X004133857Y001732283D01*
X004133858Y002913385D01*
X004133372Y002925741D01*
X004131919Y002938020D01*
X004129506Y002950148D01*
X004126150Y002962049D01*
X004121870Y002973650D01*
X004116693Y002984880D01*
X004110651Y002995668D01*
X004103781Y003005950D01*
X004096126Y003015661D01*
X004087733Y003024740D01*
X004078653Y003033134D01*
X004068942Y003040789D01*
X004058660Y003047659D01*
X004047872Y003053701D01*
X004036642Y003058878D01*
X004025041Y003063158D01*
X004013140Y003066514D01*
X004001013Y003068927D01*
X003988733Y003070380D01*
X003976377Y003070866D01*
X000157480Y003070866D01*
X000145124Y003070380D01*
X000132844Y003068927D01*
X000120716Y003066514D01*
X000108816Y003063158D01*
X000097214Y003058878D01*
X000085985Y003053701D01*
X000075196Y003047659D01*
X000064915Y003040789D01*
X000055204Y003033134D01*
X000046124Y003024740D01*
X000037731Y003015661D01*
X000030075Y003005950D01*
X000023206Y002995668D01*
X000017164Y002984880D01*
X000011987Y002973650D01*
X000007707Y002962049D01*
X000004351Y002950148D01*
X000001938Y002938020D01*
X000000485Y002925741D01*
X000000000Y002913385D01*
X000000000Y001732283D01*
X000000485Y001719927D01*
X000001938Y001707648D01*
X000004351Y001695520D01*
X000007707Y001683619D01*
X000011987Y001672018D01*
X000017164Y001660788D01*
X000023205Y001649999D01*
X000030075Y001639718D01*
X000037731Y001630007D01*
X000046124Y001620927D01*
X000055204Y001612534D01*
X000064915Y001604879D01*
X000075196Y001598009D01*
X000085985Y001591967D01*
X000097214Y001586790D01*
X000108816Y001582510D01*
X000120716Y001579154D01*
X000132844Y001576741D01*
X000145124Y001575288D01*
X000157480Y001574803D01*
X000675887Y001574803D01*
M02*