%
M48
METRIC,000.000
T01C0.50
%
T01
X022399Y038243
X021399Y038243
X020399Y038243
X019399Y038243
X018399Y038243
X017399Y038243
X017303Y039750
X018303Y039750
X019303Y039750
X020303Y039750
X021303Y039750
X022303Y039750
X087399Y038243
X086399Y038243
X085399Y038243
X084399Y038243
X083399Y038243
X082399Y038243
X082303Y039750
X083303Y039750
X084303Y039750
X085303Y039750
X086303Y039750
X087303Y039750
X055399Y038243
X054399Y038243
X053399Y038243
X052399Y038243
X051399Y038243
X050399Y038243
X050303Y039750
X051303Y039750
X052303Y039750
X053303Y039750
X054303Y039750
X055303Y039750
M30