%MOIN*%
%OFA0B0*%
%FSLAX46Y46*%
%IPPOS*%
%LPD*%
%ADD10C,0.01*%
%ADD21C,0.01*%
%LPD*%
G01*
D10*
G36*
X0004003331Y0001464294D02*
G01*
X0004027322Y0001457050D01*
X0004049448Y0001445285D01*
X0004068869Y0001429447D01*
X0004084842Y0001410137D01*
X0004096762Y0001388093D01*
X0004104172Y0001364154D01*
X0004106934Y0001337881D01*
X0004106934Y0000158647D01*
X0004104350Y0000132292D01*
X0004097106Y0000108301D01*
X0004085341Y0000086174D01*
X0004069503Y0000066754D01*
X0004050193Y0000050780D01*
X0004028149Y0000038861D01*
X0004004210Y0000031450D01*
X0003977936Y0000028689D01*
X0000160908Y0000028689D01*
X0000134552Y0000031273D01*
X0000110562Y0000038516D01*
X0000088435Y0000050281D01*
X0000069015Y0000066120D01*
X0000053041Y0000085429D01*
X0000041121Y0000107474D01*
X0000033711Y0000131413D01*
X0000031328Y0000154088D01*
X0000071501Y0000154088D01*
X0000071501Y0000136755D01*
X0000074882Y0000119755D01*
X0000081515Y0000103741D01*
X0000091145Y0000089329D01*
X0000103401Y0000077073D01*
X0000117813Y0000067444D01*
X0000133826Y0000060811D01*
X0000150826Y0000057429D01*
X0000168159Y0000057429D01*
X0000185159Y0000060811D01*
X0000201173Y0000067444D01*
X0000215584Y0000077073D01*
X0000227841Y0000089329D01*
X0000237470Y0000103741D01*
X0000244103Y0000119755D01*
X0000247485Y0000136755D01*
X0000247485Y0000154088D01*
X0003890398Y0000154088D01*
X0003890398Y0000136755D01*
X0003893780Y0000119755D01*
X0003900413Y0000103741D01*
X0003910042Y0000089329D01*
X0003922299Y0000077073D01*
X0003936710Y0000067444D01*
X0003952724Y0000060811D01*
X0003969724Y0000057429D01*
X0003987057Y0000057429D01*
X0004004057Y0000060811D01*
X0004020070Y0000067444D01*
X0004034482Y0000077073D01*
X0004046738Y0000089329D01*
X0004056368Y0000103741D01*
X0004063001Y0000119755D01*
X0004066382Y0000136755D01*
X0004066382Y0000154088D01*
X0004063001Y0000171087D01*
X0004056368Y0000187101D01*
X0004046738Y0000201513D01*
X0004034482Y0000213769D01*
X0004020070Y0000223399D01*
X0004004057Y0000230032D01*
X0003987057Y0000233413D01*
X0003969724Y0000233413D01*
X0003952724Y0000230032D01*
X0003936710Y0000223399D01*
X0003922299Y0000213769D01*
X0003910042Y0000201513D01*
X0003900413Y0000187101D01*
X0003893780Y0000171087D01*
X0003890398Y0000154088D01*
X0000247485Y0000154088D01*
X0000244103Y0000171087D01*
X0000237470Y0000187101D01*
X0000227841Y0000201513D01*
X0000215584Y0000213769D01*
X0000201173Y0000223399D01*
X0000185159Y0000230032D01*
X0000168159Y0000233413D01*
X0000150826Y0000233413D01*
X0000133826Y0000230032D01*
X0000117813Y0000223399D01*
X0000103401Y0000213769D01*
X0000091145Y0000201513D01*
X0000081515Y0000187101D01*
X0000074882Y0000171087D01*
X0000071501Y0000154088D01*
X0000031328Y0000154088D01*
X0000030950Y0000157686D01*
X0000030949Y0000870078D01*
X0000435489Y0000870078D01*
X0000435629Y0000868656D01*
X0000435629Y0000406933D01*
X0000435489Y0000405511D01*
X0000436048Y0000399839D01*
X0000437703Y0000394384D01*
X0000440390Y0000389357D01*
X0000444006Y0000384951D01*
X0000448412Y0000381335D01*
X0000453439Y0000378648D01*
X0000458894Y0000376993D01*
X0000464566Y0000376434D01*
X0000465988Y0000376574D01*
X0000841098Y0000376574D01*
X0000842519Y0000376434D01*
X0000843941Y0000376574D01*
X0000848192Y0000376993D01*
X0000853646Y0000378648D01*
X0000858674Y0000381335D01*
X0000863080Y0000384951D01*
X0000866696Y0000389357D01*
X0000869383Y0000394384D01*
X0000871037Y0000399839D01*
X0000871596Y0000405511D01*
X0000871456Y0000406933D01*
X0000871456Y0000868657D01*
X0000871596Y0000870078D01*
X0000907930Y0000870078D01*
X0000908070Y0000868656D01*
X0000908070Y0000406933D01*
X0000907930Y0000405511D01*
X0000908489Y0000399839D01*
X0000910144Y0000394384D01*
X0000912831Y0000389357D01*
X0000916447Y0000384951D01*
X0000920853Y0000381335D01*
X0000925880Y0000378648D01*
X0000931335Y0000376993D01*
X0000937007Y0000376434D01*
X0000938429Y0000376574D01*
X0001313539Y0000376574D01*
X0001314960Y0000376434D01*
X0001316382Y0000376574D01*
X0001320633Y0000376993D01*
X0001326087Y0000378648D01*
X0001331114Y0000381335D01*
X0001335521Y0000384951D01*
X0001339137Y0000389357D01*
X0001341824Y0000394384D01*
X0001343478Y0000399839D01*
X0001344037Y0000405511D01*
X0001343897Y0000406933D01*
X0001343897Y0000868657D01*
X0001344037Y0000870078D01*
X0001380371Y0000870078D01*
X0001380511Y0000868656D01*
X0001380511Y0000406933D01*
X0001380371Y0000405511D01*
X0001380930Y0000399839D01*
X0001382585Y0000394384D01*
X0001385272Y0000389357D01*
X0001388888Y0000384951D01*
X0001393294Y0000381335D01*
X0001398321Y0000378648D01*
X0001403776Y0000376993D01*
X0001409448Y0000376434D01*
X0001410870Y0000376574D01*
X0001785980Y0000376574D01*
X0001787401Y0000376434D01*
X0001788823Y0000376574D01*
X0001793074Y0000376993D01*
X0001798528Y0000378648D01*
X0001803555Y0000381335D01*
X0001807962Y0000384951D01*
X0001811578Y0000389357D01*
X0001814265Y0000394384D01*
X0001815919Y0000399839D01*
X0001816478Y0000405511D01*
X0001816338Y0000406933D01*
X0001816338Y0000868657D01*
X0001816478Y0000870078D01*
X0001852812Y0000870078D01*
X0001852952Y0000868656D01*
X0001852952Y0000406933D01*
X0001852812Y0000405511D01*
X0001853371Y0000399839D01*
X0001855026Y0000394384D01*
X0001857713Y0000389357D01*
X0001861329Y0000384951D01*
X0001865735Y0000381335D01*
X0001870762Y0000378648D01*
X0001876217Y0000376993D01*
X0001881889Y0000376434D01*
X0001883311Y0000376574D01*
X0002258421Y0000376574D01*
X0002259842Y0000376434D01*
X0002261263Y0000376574D01*
X0002265515Y0000376993D01*
X0002270969Y0000378648D01*
X0002275996Y0000381335D01*
X0002280403Y0000384951D01*
X0002284019Y0000389357D01*
X0002286706Y0000394384D01*
X0002288360Y0000399839D01*
X0002288919Y0000405511D01*
X0002288779Y0000406933D01*
X0002288779Y0000624345D01*
X0002349157Y0000624345D01*
X0002349157Y0000583821D01*
X0002356194Y0000543912D01*
X0002370054Y0000505832D01*
X0002390316Y0000470737D01*
X0002416364Y0000439694D01*
X0002447407Y0000413646D01*
X0002482502Y0000393384D01*
X0002520582Y0000379524D01*
X0002560491Y0000372487D01*
X0002601015Y0000372487D01*
X0002640923Y0000379524D01*
X0002679003Y0000393384D01*
X0002714098Y0000413646D01*
X0002745141Y0000439694D01*
X0002771189Y0000470737D01*
X0002791451Y0000505832D01*
X0002805311Y0000543912D01*
X0002812348Y0000583821D01*
X0002812348Y0000624345D01*
X0002880653Y0000624345D01*
X0002880653Y0000583821D01*
X0002887690Y0000543912D01*
X0002901550Y0000505832D01*
X0002921812Y0000470737D01*
X0002947860Y0000439694D01*
X0002978903Y0000413646D01*
X0003013998Y0000393384D01*
X0003052078Y0000379524D01*
X0003091987Y0000372487D01*
X0003132511Y0000372487D01*
X0003172419Y0000379524D01*
X0003210499Y0000393384D01*
X0003245594Y0000413646D01*
X0003276637Y0000439694D01*
X0003302685Y0000470737D01*
X0003322947Y0000505832D01*
X0003336807Y0000543912D01*
X0003343844Y0000583821D01*
X0003343844Y0000624345D01*
X0003336807Y0000664253D01*
X0003322947Y0000702333D01*
X0003302685Y0000737428D01*
X0003284213Y0000759442D01*
X0003473087Y0000759442D01*
X0003473087Y0000728146D01*
X0003479193Y0000697451D01*
X0003491169Y0000668537D01*
X0003508557Y0000642516D01*
X0003530686Y0000620386D01*
X0003556708Y0000602999D01*
X0003585622Y0000591022D01*
X0003616316Y0000584917D01*
X0003647612Y0000584917D01*
X0003678307Y0000591022D01*
X0003707221Y0000602999D01*
X0003733242Y0000620386D01*
X0003755372Y0000642516D01*
X0003772759Y0000668537D01*
X0003784736Y0000697451D01*
X0003790841Y0000728146D01*
X0003790841Y0000759442D01*
X0003784736Y0000790136D01*
X0003772759Y0000819050D01*
X0003755372Y0000845072D01*
X0003733242Y0000867202D01*
X0003707221Y0000884589D01*
X0003678307Y0000896565D01*
X0003647612Y0000902671D01*
X0003616316Y0000902671D01*
X0003585622Y0000896565D01*
X0003556708Y0000884589D01*
X0003530686Y0000867202D01*
X0003508557Y0000845072D01*
X0003491169Y0000819050D01*
X0003479193Y0000790136D01*
X0003473087Y0000759442D01*
X0003284213Y0000759442D01*
X0003276637Y0000768471D01*
X0003245594Y0000794519D01*
X0003210499Y0000814781D01*
X0003172419Y0000828641D01*
X0003132511Y0000835678D01*
X0003091987Y0000835678D01*
X0003052078Y0000828641D01*
X0003013998Y0000814781D01*
X0002978903Y0000794519D01*
X0002947860Y0000768471D01*
X0002921812Y0000737428D01*
X0002901550Y0000702333D01*
X0002887690Y0000664253D01*
X0002880653Y0000624345D01*
X0002812348Y0000624345D01*
X0002805311Y0000664253D01*
X0002791451Y0000702333D01*
X0002771189Y0000737428D01*
X0002745141Y0000768471D01*
X0002714098Y0000794519D01*
X0002679003Y0000814781D01*
X0002640923Y0000828641D01*
X0002601015Y0000835678D01*
X0002560491Y0000835678D01*
X0002520582Y0000828641D01*
X0002482502Y0000814781D01*
X0002447407Y0000794519D01*
X0002416364Y0000768471D01*
X0002390316Y0000737428D01*
X0002370054Y0000702333D01*
X0002356194Y0000664253D01*
X0002349157Y0000624345D01*
X0002288779Y0000624345D01*
X0002288779Y0000868657D01*
X0002288919Y0000870078D01*
X0002288360Y0000875751D01*
X0002286706Y0000881206D01*
X0002284019Y0000886233D01*
X0002280403Y0000890639D01*
X0002275996Y0000894255D01*
X0002270969Y0000896942D01*
X0002265515Y0000898597D01*
X0002261263Y0000899015D01*
X0002259842Y0000899155D01*
X0002258421Y0000899015D01*
X0001883311Y0000899015D01*
X0001881889Y0000899155D01*
X0001880468Y0000899015D01*
X0001876217Y0000898597D01*
X0001870762Y0000896942D01*
X0001865735Y0000894255D01*
X0001861329Y0000890639D01*
X0001857713Y0000886233D01*
X0001855026Y0000881206D01*
X0001853371Y0000875751D01*
X0001852812Y0000870078D01*
X0001816478Y0000870078D01*
X0001815919Y0000875751D01*
X0001814265Y0000881206D01*
X0001811578Y0000886233D01*
X0001807962Y0000890639D01*
X0001803555Y0000894255D01*
X0001798528Y0000896942D01*
X0001793074Y0000898597D01*
X0001788823Y0000899015D01*
X0001787401Y0000899155D01*
X0001785980Y0000899015D01*
X0001410870Y0000899015D01*
X0001409448Y0000899155D01*
X0001408027Y0000899015D01*
X0001403776Y0000898597D01*
X0001398321Y0000896942D01*
X0001393294Y0000894255D01*
X0001388888Y0000890639D01*
X0001385272Y0000886233D01*
X0001382585Y0000881206D01*
X0001380930Y0000875751D01*
X0001380371Y0000870078D01*
X0001344037Y0000870078D01*
X0001343478Y0000875751D01*
X0001341824Y0000881206D01*
X0001339137Y0000886233D01*
X0001335521Y0000890639D01*
X0001331114Y0000894255D01*
X0001326087Y0000896942D01*
X0001320633Y0000898597D01*
X0001316382Y0000899015D01*
X0001314960Y0000899155D01*
X0001313539Y0000899015D01*
X0000938429Y0000899015D01*
X0000937007Y0000899155D01*
X0000935586Y0000899015D01*
X0000931335Y0000898597D01*
X0000925880Y0000896942D01*
X0000920853Y0000894255D01*
X0000916447Y0000890639D01*
X0000912831Y0000886233D01*
X0000910144Y0000881206D01*
X0000908489Y0000875751D01*
X0000907930Y0000870078D01*
X0000871596Y0000870078D01*
X0000871037Y0000875751D01*
X0000869383Y0000881206D01*
X0000866696Y0000886233D01*
X0000863080Y0000890639D01*
X0000858674Y0000894255D01*
X0000853646Y0000896942D01*
X0000848192Y0000898597D01*
X0000843941Y0000899015D01*
X0000842519Y0000899155D01*
X0000841098Y0000899015D01*
X0000465988Y0000899015D01*
X0000464566Y0000899155D01*
X0000463145Y0000899015D01*
X0000458894Y0000898597D01*
X0000453439Y0000896942D01*
X0000448412Y0000894255D01*
X0000444006Y0000890639D01*
X0000440390Y0000886233D01*
X0000437703Y0000881206D01*
X0000436048Y0000875751D01*
X0000435489Y0000870078D01*
X0000030949Y0000870078D01*
X0000030949Y0001041107D01*
X0000571501Y0001041107D01*
X0000571501Y0001025325D01*
X0000574580Y0001009847D01*
X0000580619Y0000995266D01*
X0000589387Y0000982144D01*
X0000600546Y0000970985D01*
X0000613669Y0000962217D01*
X0000628249Y0000956177D01*
X0000643728Y0000953098D01*
X0000659510Y0000953098D01*
X0000674988Y0000956177D01*
X0000689569Y0000962217D01*
X0000702691Y0000970985D01*
X0000713851Y0000982144D01*
X0000722618Y0000995266D01*
X0000728658Y0001009847D01*
X0000731737Y0001025325D01*
X0000731737Y0001041107D01*
X0001043942Y0001041107D01*
X0001043942Y0001025325D01*
X0001047020Y0001009847D01*
X0001053060Y0000995266D01*
X0001061828Y0000982144D01*
X0001072987Y0000970985D01*
X0001086110Y0000962217D01*
X0001100690Y0000956177D01*
X0001116169Y0000953098D01*
X0001131951Y0000953098D01*
X0001147429Y0000956177D01*
X0001162010Y0000962217D01*
X0001175132Y0000970985D01*
X0001186291Y0000982144D01*
X0001195059Y0000995266D01*
X0001201099Y0001009847D01*
X0001204178Y0001025325D01*
X0001204178Y0001041107D01*
X0001516383Y0001041107D01*
X0001516383Y0001025325D01*
X0001519461Y0001009847D01*
X0001525501Y0000995266D01*
X0001534269Y0000982144D01*
X0001545428Y0000970985D01*
X0001558550Y0000962217D01*
X0001573131Y0000956177D01*
X0001588610Y0000953098D01*
X0001604392Y0000953098D01*
X0001619870Y0000956177D01*
X0001634451Y0000962217D01*
X0001647573Y0000970985D01*
X0001658732Y0000982144D01*
X0001667500Y0000995266D01*
X0001673540Y0001009847D01*
X0001676619Y0001025325D01*
X0001676619Y0001041107D01*
X0001988823Y0001041107D01*
X0001988823Y0001025325D01*
X0001991902Y0001009847D01*
X0001997942Y0000995266D01*
X0002006710Y0000982144D01*
X0002017869Y0000970985D01*
X0002030991Y0000962217D01*
X0002045572Y0000956177D01*
X0002061051Y0000953098D01*
X0002076833Y0000953098D01*
X0002092311Y0000956177D01*
X0002106892Y0000962217D01*
X0002120014Y0000970985D01*
X0002131173Y0000982144D01*
X0002139941Y0000995266D01*
X0002145981Y0001009847D01*
X0002149060Y0001025325D01*
X0002149060Y0001041107D01*
X0002500634Y0001041107D01*
X0002500634Y0001025325D01*
X0002503713Y0001009847D01*
X0002509753Y0000995266D01*
X0002518521Y0000982144D01*
X0002529680Y0000970985D01*
X0002542802Y0000962217D01*
X0002557383Y0000956177D01*
X0002572862Y0000953098D01*
X0002588644Y0000953098D01*
X0002604122Y0000956177D01*
X0002618703Y0000962217D01*
X0002631825Y0000970985D01*
X0002642984Y0000982144D01*
X0002651752Y0000995266D01*
X0002657792Y0001009847D01*
X0002660871Y0001025325D01*
X0002660871Y0001041107D01*
X0003032131Y0001041107D01*
X0003032131Y0001025325D01*
X0003035209Y0001009847D01*
X0003041249Y0000995266D01*
X0003050017Y0000982144D01*
X0003061176Y0000970985D01*
X0003074298Y0000962217D01*
X0003088879Y0000956177D01*
X0003104358Y0000953098D01*
X0003120140Y0000953098D01*
X0003135618Y0000956177D01*
X0003150199Y0000962217D01*
X0003163321Y0000970985D01*
X0003174480Y0000982144D01*
X0003183248Y0000995266D01*
X0003189288Y0001009847D01*
X0003192367Y0001025325D01*
X0003192367Y0001041107D01*
X0003189288Y0001056586D01*
X0003183248Y0001071167D01*
X0003174480Y0001084289D01*
X0003163321Y0001095448D01*
X0003150199Y0001104216D01*
X0003135618Y0001110256D01*
X0003120140Y0001113335D01*
X0003104358Y0001113335D01*
X0003088879Y0001110256D01*
X0003074298Y0001104216D01*
X0003061176Y0001095448D01*
X0003050017Y0001084289D01*
X0003041249Y0001071167D01*
X0003035209Y0001056586D01*
X0003032131Y0001041107D01*
X0002660871Y0001041107D01*
X0002657792Y0001056586D01*
X0002651752Y0001071167D01*
X0002642984Y0001084289D01*
X0002631825Y0001095448D01*
X0002618703Y0001104216D01*
X0002604122Y0001110256D01*
X0002588644Y0001113335D01*
X0002572862Y0001113335D01*
X0002557383Y0001110256D01*
X0002542802Y0001104216D01*
X0002529680Y0001095448D01*
X0002518521Y0001084289D01*
X0002509753Y0001071167D01*
X0002503713Y0001056586D01*
X0002500634Y0001041107D01*
X0002149060Y0001041107D01*
X0002145981Y0001056586D01*
X0002139941Y0001071167D01*
X0002131173Y0001084289D01*
X0002120014Y0001095448D01*
X0002106892Y0001104216D01*
X0002092311Y0001110256D01*
X0002076833Y0001113335D01*
X0002061051Y0001113335D01*
X0002045572Y0001110256D01*
X0002030991Y0001104216D01*
X0002017869Y0001095448D01*
X0002006710Y0001084289D01*
X0001997942Y0001071167D01*
X0001991902Y0001056586D01*
X0001988823Y0001041107D01*
X0001676619Y0001041107D01*
X0001673540Y0001056586D01*
X0001667500Y0001071167D01*
X0001658732Y0001084289D01*
X0001647573Y0001095448D01*
X0001634451Y0001104216D01*
X0001619870Y0001110256D01*
X0001604392Y0001113335D01*
X0001588610Y0001113335D01*
X0001573131Y0001110256D01*
X0001558550Y0001104216D01*
X0001545428Y0001095448D01*
X0001534269Y0001084289D01*
X0001525501Y0001071167D01*
X0001519461Y0001056586D01*
X0001516383Y0001041107D01*
X0001204178Y0001041107D01*
X0001201099Y0001056586D01*
X0001195059Y0001071167D01*
X0001186291Y0001084289D01*
X0001175132Y0001095448D01*
X0001162010Y0001104216D01*
X0001147429Y0001110256D01*
X0001131951Y0001113335D01*
X0001116169Y0001113335D01*
X0001100690Y0001110256D01*
X0001086110Y0001104216D01*
X0001072987Y0001095448D01*
X0001061828Y0001084289D01*
X0001053060Y0001071167D01*
X0001047020Y0001056586D01*
X0001043942Y0001041107D01*
X0000731737Y0001041107D01*
X0000728658Y0001056586D01*
X0000722618Y0001071167D01*
X0000713851Y0001084289D01*
X0000702691Y0001095448D01*
X0000689569Y0001104216D01*
X0000674988Y0001110256D01*
X0000659510Y0001113335D01*
X0000643728Y0001113335D01*
X0000628249Y0001110256D01*
X0000613669Y0001104216D01*
X0000600546Y0001095448D01*
X0000589387Y0001084289D01*
X0000580619Y0001071167D01*
X0000574580Y0001056586D01*
X0000571501Y0001041107D01*
X0000030949Y0001041107D01*
X0000030949Y0001336919D01*
X0000033096Y0001358812D01*
X0000071501Y0001358812D01*
X0000071501Y0001341479D01*
X0000074882Y0001324479D01*
X0000081515Y0001308466D01*
X0000091145Y0001294054D01*
X0000103401Y0001281798D01*
X0000117813Y0001272168D01*
X0000133826Y0001265535D01*
X0000150826Y0001262153D01*
X0000168159Y0001262153D01*
X0000185159Y0001265535D01*
X0000201173Y0001272168D01*
X0000215584Y0001281798D01*
X0000227841Y0001294054D01*
X0000237470Y0001308466D01*
X0000244103Y0001324479D01*
X0000247485Y0001341479D01*
X0000247485Y0001358812D01*
X0003890398Y0001358812D01*
X0003890398Y0001341479D01*
X0003893780Y0001324479D01*
X0003900413Y0001308466D01*
X0003910042Y0001294054D01*
X0003922299Y0001281798D01*
X0003936710Y0001272168D01*
X0003952724Y0001265535D01*
X0003969724Y0001262153D01*
X0003987057Y0001262153D01*
X0004004057Y0001265535D01*
X0004020070Y0001272168D01*
X0004034482Y0001281798D01*
X0004046738Y0001294054D01*
X0004056368Y0001308466D01*
X0004063001Y0001324479D01*
X0004066382Y0001341479D01*
X0004066382Y0001358812D01*
X0004063001Y0001375812D01*
X0004056368Y0001391825D01*
X0004046738Y0001406237D01*
X0004034482Y0001418493D01*
X0004020070Y0001428123D01*
X0004004057Y0001434756D01*
X0003987057Y0001438138D01*
X0003969724Y0001438138D01*
X0003952724Y0001434756D01*
X0003936710Y0001428123D01*
X0003922299Y0001418493D01*
X0003910042Y0001406237D01*
X0003900413Y0001391825D01*
X0003893780Y0001375812D01*
X0003890398Y0001358812D01*
X0000247485Y0001358812D01*
X0000244103Y0001375812D01*
X0000237470Y0001391825D01*
X0000227841Y0001406237D01*
X0000215584Y0001418493D01*
X0000201173Y0001428123D01*
X0000185159Y0001434756D01*
X0000168159Y0001438138D01*
X0000150826Y0001438138D01*
X0000133826Y0001434756D01*
X0000117813Y0001428123D01*
X0000103401Y0001418493D01*
X0000091145Y0001406237D01*
X0000081515Y0001391825D01*
X0000074882Y0001375812D01*
X0000071501Y0001358812D01*
X0000033096Y0001358812D01*
X0000033534Y0001363275D01*
X0000040777Y0001387266D01*
X0000052542Y0001409393D01*
X0000068381Y0001428813D01*
X0000087690Y0001444787D01*
X0000109734Y0001456706D01*
X0000133673Y0001464116D01*
X0000159946Y0001466878D01*
X0003976975Y0001466878D01*
X0004003331Y0001464294D01*
G37*
X0004003331Y0001464294D02*
X0004027322Y0001457050D01*
X0004049448Y0001445285D01*
X0004068869Y0001429447D01*
X0004084842Y0001410137D01*
X0004096762Y0001388093D01*
X0004104172Y0001364154D01*
X0004106934Y0001337881D01*
X0004106934Y0000158647D01*
X0004104350Y0000132292D01*
X0004097106Y0000108301D01*
X0004085341Y0000086174D01*
X0004069503Y0000066754D01*
X0004050193Y0000050780D01*
X0004028149Y0000038861D01*
X0004004210Y0000031450D01*
X0003977936Y0000028689D01*
X0000160908Y0000028689D01*
X0000134552Y0000031273D01*
X0000110562Y0000038516D01*
X0000088435Y0000050281D01*
X0000069015Y0000066120D01*
X0000053041Y0000085429D01*
X0000041121Y0000107474D01*
X0000033711Y0000131413D01*
X0000031328Y0000154088D01*
X0000071501Y0000154088D01*
X0000071501Y0000136755D01*
X0000074882Y0000119755D01*
X0000081515Y0000103741D01*
X0000091145Y0000089329D01*
X0000103401Y0000077073D01*
X0000117813Y0000067444D01*
X0000133826Y0000060811D01*
X0000150826Y0000057429D01*
X0000168159Y0000057429D01*
X0000185159Y0000060811D01*
X0000201173Y0000067444D01*
X0000215584Y0000077073D01*
X0000227841Y0000089329D01*
X0000237470Y0000103741D01*
X0000244103Y0000119755D01*
X0000247485Y0000136755D01*
X0000247485Y0000154088D01*
X0003890398Y0000154088D01*
X0003890398Y0000136755D01*
X0003893780Y0000119755D01*
X0003900413Y0000103741D01*
X0003910042Y0000089329D01*
X0003922299Y0000077073D01*
X0003936710Y0000067444D01*
X0003952724Y0000060811D01*
X0003969724Y0000057429D01*
X0003987057Y0000057429D01*
X0004004057Y0000060811D01*
X0004020070Y0000067444D01*
X0004034482Y0000077073D01*
X0004046738Y0000089329D01*
X0004056368Y0000103741D01*
X0004063001Y0000119755D01*
X0004066382Y0000136755D01*
X0004066382Y0000154088D01*
X0004063001Y0000171087D01*
X0004056368Y0000187101D01*
X0004046738Y0000201513D01*
X0004034482Y0000213769D01*
X0004020070Y0000223399D01*
X0004004057Y0000230032D01*
X0003987057Y0000233413D01*
X0003969724Y0000233413D01*
X0003952724Y0000230032D01*
X0003936710Y0000223399D01*
X0003922299Y0000213769D01*
X0003910042Y0000201513D01*
X0003900413Y0000187101D01*
X0003893780Y0000171087D01*
X0003890398Y0000154088D01*
X0000247485Y0000154088D01*
X0000244103Y0000171087D01*
X0000237470Y0000187101D01*
X0000227841Y0000201513D01*
X0000215584Y0000213769D01*
X0000201173Y0000223399D01*
X0000185159Y0000230032D01*
X0000168159Y0000233413D01*
X0000150826Y0000233413D01*
X0000133826Y0000230032D01*
X0000117813Y0000223399D01*
X0000103401Y0000213769D01*
X0000091145Y0000201513D01*
X0000081515Y0000187101D01*
X0000074882Y0000171087D01*
X0000071501Y0000154088D01*
X0000031328Y0000154088D01*
X0000030950Y0000157686D01*
X0000030949Y0000870078D01*
X0000435489Y0000870078D01*
X0000435629Y0000868656D01*
X0000435629Y0000406933D01*
X0000435489Y0000405511D01*
X0000436048Y0000399839D01*
X0000437703Y0000394384D01*
X0000440390Y0000389357D01*
X0000444006Y0000384951D01*
X0000448412Y0000381335D01*
X0000453439Y0000378648D01*
X0000458894Y0000376993D01*
X0000464566Y0000376434D01*
X0000465988Y0000376574D01*
X0000841098Y0000376574D01*
X0000842519Y0000376434D01*
X0000843941Y0000376574D01*
X0000848192Y0000376993D01*
X0000853646Y0000378648D01*
X0000858674Y0000381335D01*
X0000863080Y0000384951D01*
X0000866696Y0000389357D01*
X0000869383Y0000394384D01*
X0000871037Y0000399839D01*
X0000871596Y0000405511D01*
X0000871456Y0000406933D01*
X0000871456Y0000868657D01*
X0000871596Y0000870078D01*
X0000907930Y0000870078D01*
X0000908070Y0000868656D01*
X0000908070Y0000406933D01*
X0000907930Y0000405511D01*
X0000908489Y0000399839D01*
X0000910144Y0000394384D01*
X0000912831Y0000389357D01*
X0000916447Y0000384951D01*
X0000920853Y0000381335D01*
X0000925880Y0000378648D01*
X0000931335Y0000376993D01*
X0000937007Y0000376434D01*
X0000938429Y0000376574D01*
X0001313539Y0000376574D01*
X0001314960Y0000376434D01*
X0001316382Y0000376574D01*
X0001320633Y0000376993D01*
X0001326087Y0000378648D01*
X0001331114Y0000381335D01*
X0001335521Y0000384951D01*
X0001339137Y0000389357D01*
X0001341824Y0000394384D01*
X0001343478Y0000399839D01*
X0001344037Y0000405511D01*
X0001343897Y0000406933D01*
X0001343897Y0000868657D01*
X0001344037Y0000870078D01*
X0001380371Y0000870078D01*
X0001380511Y0000868656D01*
X0001380511Y0000406933D01*
X0001380371Y0000405511D01*
X0001380930Y0000399839D01*
X0001382585Y0000394384D01*
X0001385272Y0000389357D01*
X0001388888Y0000384951D01*
X0001393294Y0000381335D01*
X0001398321Y0000378648D01*
X0001403776Y0000376993D01*
X0001409448Y0000376434D01*
X0001410870Y0000376574D01*
X0001785980Y0000376574D01*
X0001787401Y0000376434D01*
X0001788823Y0000376574D01*
X0001793074Y0000376993D01*
X0001798528Y0000378648D01*
X0001803555Y0000381335D01*
X0001807962Y0000384951D01*
X0001811578Y0000389357D01*
X0001814265Y0000394384D01*
X0001815919Y0000399839D01*
X0001816478Y0000405511D01*
X0001816338Y0000406933D01*
X0001816338Y0000868657D01*
X0001816478Y0000870078D01*
X0001852812Y0000870078D01*
X0001852952Y0000868656D01*
X0001852952Y0000406933D01*
X0001852812Y0000405511D01*
X0001853371Y0000399839D01*
X0001855026Y0000394384D01*
X0001857713Y0000389357D01*
X0001861329Y0000384951D01*
X0001865735Y0000381335D01*
X0001870762Y0000378648D01*
X0001876217Y0000376993D01*
X0001881889Y0000376434D01*
X0001883311Y0000376574D01*
X0002258421Y0000376574D01*
X0002259842Y0000376434D01*
X0002261263Y0000376574D01*
X0002265515Y0000376993D01*
X0002270969Y0000378648D01*
X0002275996Y0000381335D01*
X0002280403Y0000384951D01*
X0002284019Y0000389357D01*
X0002286706Y0000394384D01*
X0002288360Y0000399839D01*
X0002288919Y0000405511D01*
X0002288779Y0000406933D01*
X0002288779Y0000624345D01*
X0002349157Y0000624345D01*
X0002349157Y0000583821D01*
X0002356194Y0000543912D01*
X0002370054Y0000505832D01*
X0002390316Y0000470737D01*
X0002416364Y0000439694D01*
X0002447407Y0000413646D01*
X0002482502Y0000393384D01*
X0002520582Y0000379524D01*
X0002560491Y0000372487D01*
X0002601015Y0000372487D01*
X0002640923Y0000379524D01*
X0002679003Y0000393384D01*
X0002714098Y0000413646D01*
X0002745141Y0000439694D01*
X0002771189Y0000470737D01*
X0002791451Y0000505832D01*
X0002805311Y0000543912D01*
X0002812348Y0000583821D01*
X0002812348Y0000624345D01*
X0002880653Y0000624345D01*
X0002880653Y0000583821D01*
X0002887690Y0000543912D01*
X0002901550Y0000505832D01*
X0002921812Y0000470737D01*
X0002947860Y0000439694D01*
X0002978903Y0000413646D01*
X0003013998Y0000393384D01*
X0003052078Y0000379524D01*
X0003091987Y0000372487D01*
X0003132511Y0000372487D01*
X0003172419Y0000379524D01*
X0003210499Y0000393384D01*
X0003245594Y0000413646D01*
X0003276637Y0000439694D01*
X0003302685Y0000470737D01*
X0003322947Y0000505832D01*
X0003336807Y0000543912D01*
X0003343844Y0000583821D01*
X0003343844Y0000624345D01*
X0003336807Y0000664253D01*
X0003322947Y0000702333D01*
X0003302685Y0000737428D01*
X0003284213Y0000759442D01*
X0003473087Y0000759442D01*
X0003473087Y0000728146D01*
X0003479193Y0000697451D01*
X0003491169Y0000668537D01*
X0003508557Y0000642516D01*
X0003530686Y0000620386D01*
X0003556708Y0000602999D01*
X0003585622Y0000591022D01*
X0003616316Y0000584917D01*
X0003647612Y0000584917D01*
X0003678307Y0000591022D01*
X0003707221Y0000602999D01*
X0003733242Y0000620386D01*
X0003755372Y0000642516D01*
X0003772759Y0000668537D01*
X0003784736Y0000697451D01*
X0003790841Y0000728146D01*
X0003790841Y0000759442D01*
X0003784736Y0000790136D01*
X0003772759Y0000819050D01*
X0003755372Y0000845072D01*
X0003733242Y0000867202D01*
X0003707221Y0000884589D01*
X0003678307Y0000896565D01*
X0003647612Y0000902671D01*
X0003616316Y0000902671D01*
X0003585622Y0000896565D01*
X0003556708Y0000884589D01*
X0003530686Y0000867202D01*
X0003508557Y0000845072D01*
X0003491169Y0000819050D01*
X0003479193Y0000790136D01*
X0003473087Y0000759442D01*
X0003284213Y0000759442D01*
X0003276637Y0000768471D01*
X0003245594Y0000794519D01*
X0003210499Y0000814781D01*
X0003172419Y0000828641D01*
X0003132511Y0000835678D01*
X0003091987Y0000835678D01*
X0003052078Y0000828641D01*
X0003013998Y0000814781D01*
X0002978903Y0000794519D01*
X0002947860Y0000768471D01*
X0002921812Y0000737428D01*
X0002901550Y0000702333D01*
X0002887690Y0000664253D01*
X0002880653Y0000624345D01*
X0002812348Y0000624345D01*
X0002805311Y0000664253D01*
X0002791451Y0000702333D01*
X0002771189Y0000737428D01*
X0002745141Y0000768471D01*
X0002714098Y0000794519D01*
X0002679003Y0000814781D01*
X0002640923Y0000828641D01*
X0002601015Y0000835678D01*
X0002560491Y0000835678D01*
X0002520582Y0000828641D01*
X0002482502Y0000814781D01*
X0002447407Y0000794519D01*
X0002416364Y0000768471D01*
X0002390316Y0000737428D01*
X0002370054Y0000702333D01*
X0002356194Y0000664253D01*
X0002349157Y0000624345D01*
X0002288779Y0000624345D01*
X0002288779Y0000868657D01*
X0002288919Y0000870078D01*
X0002288360Y0000875751D01*
X0002286706Y0000881206D01*
X0002284019Y0000886233D01*
X0002280403Y0000890639D01*
X0002275996Y0000894255D01*
X0002270969Y0000896942D01*
X0002265515Y0000898597D01*
X0002261263Y0000899015D01*
X0002259842Y0000899155D01*
X0002258421Y0000899015D01*
X0001883311Y0000899015D01*
X0001881889Y0000899155D01*
X0001880468Y0000899015D01*
X0001876217Y0000898597D01*
X0001870762Y0000896942D01*
X0001865735Y0000894255D01*
X0001861329Y0000890639D01*
X0001857713Y0000886233D01*
X0001855026Y0000881206D01*
X0001853371Y0000875751D01*
X0001852812Y0000870078D01*
X0001816478Y0000870078D01*
X0001815919Y0000875751D01*
X0001814265Y0000881206D01*
X0001811578Y0000886233D01*
X0001807962Y0000890639D01*
X0001803555Y0000894255D01*
X0001798528Y0000896942D01*
X0001793074Y0000898597D01*
X0001788823Y0000899015D01*
X0001787401Y0000899155D01*
X0001785980Y0000899015D01*
X0001410870Y0000899015D01*
X0001409448Y0000899155D01*
X0001408027Y0000899015D01*
X0001403776Y0000898597D01*
X0001398321Y0000896942D01*
X0001393294Y0000894255D01*
X0001388888Y0000890639D01*
X0001385272Y0000886233D01*
X0001382585Y0000881206D01*
X0001380930Y0000875751D01*
X0001380371Y0000870078D01*
X0001344037Y0000870078D01*
X0001343478Y0000875751D01*
X0001341824Y0000881206D01*
X0001339137Y0000886233D01*
X0001335521Y0000890639D01*
X0001331114Y0000894255D01*
X0001326087Y0000896942D01*
X0001320633Y0000898597D01*
X0001316382Y0000899015D01*
X0001314960Y0000899155D01*
X0001313539Y0000899015D01*
X0000938429Y0000899015D01*
X0000937007Y0000899155D01*
X0000935586Y0000899015D01*
X0000931335Y0000898597D01*
X0000925880Y0000896942D01*
X0000920853Y0000894255D01*
X0000916447Y0000890639D01*
X0000912831Y0000886233D01*
X0000910144Y0000881206D01*
X0000908489Y0000875751D01*
X0000907930Y0000870078D01*
X0000871596Y0000870078D01*
X0000871037Y0000875751D01*
X0000869383Y0000881206D01*
X0000866696Y0000886233D01*
X0000863080Y0000890639D01*
X0000858674Y0000894255D01*
X0000853646Y0000896942D01*
X0000848192Y0000898597D01*
X0000843941Y0000899015D01*
X0000842519Y0000899155D01*
X0000841098Y0000899015D01*
X0000465988Y0000899015D01*
X0000464566Y0000899155D01*
X0000463145Y0000899015D01*
X0000458894Y0000898597D01*
X0000453439Y0000896942D01*
X0000448412Y0000894255D01*
X0000444006Y0000890639D01*
X0000440390Y0000886233D01*
X0000437703Y0000881206D01*
X0000436048Y0000875751D01*
X0000435489Y0000870078D01*
X0000030949Y0000870078D01*
X0000030949Y0001041107D01*
X0000571501Y0001041107D01*
X0000571501Y0001025325D01*
X0000574580Y0001009847D01*
X0000580619Y0000995266D01*
X0000589387Y0000982144D01*
X0000600546Y0000970985D01*
X0000613669Y0000962217D01*
X0000628249Y0000956177D01*
X0000643728Y0000953098D01*
X0000659510Y0000953098D01*
X0000674988Y0000956177D01*
X0000689569Y0000962217D01*
X0000702691Y0000970985D01*
X0000713851Y0000982144D01*
X0000722618Y0000995266D01*
X0000728658Y0001009847D01*
X0000731737Y0001025325D01*
X0000731737Y0001041107D01*
X0001043942Y0001041107D01*
X0001043942Y0001025325D01*
X0001047020Y0001009847D01*
X0001053060Y0000995266D01*
X0001061828Y0000982144D01*
X0001072987Y0000970985D01*
X0001086110Y0000962217D01*
X0001100690Y0000956177D01*
X0001116169Y0000953098D01*
X0001131951Y0000953098D01*
X0001147429Y0000956177D01*
X0001162010Y0000962217D01*
X0001175132Y0000970985D01*
X0001186291Y0000982144D01*
X0001195059Y0000995266D01*
X0001201099Y0001009847D01*
X0001204178Y0001025325D01*
X0001204178Y0001041107D01*
X0001516383Y0001041107D01*
X0001516383Y0001025325D01*
X0001519461Y0001009847D01*
X0001525501Y0000995266D01*
X0001534269Y0000982144D01*
X0001545428Y0000970985D01*
X0001558550Y0000962217D01*
X0001573131Y0000956177D01*
X0001588610Y0000953098D01*
X0001604392Y0000953098D01*
X0001619870Y0000956177D01*
X0001634451Y0000962217D01*
X0001647573Y0000970985D01*
X0001658732Y0000982144D01*
X0001667500Y0000995266D01*
X0001673540Y0001009847D01*
X0001676619Y0001025325D01*
X0001676619Y0001041107D01*
X0001988823Y0001041107D01*
X0001988823Y0001025325D01*
X0001991902Y0001009847D01*
X0001997942Y0000995266D01*
X0002006710Y0000982144D01*
X0002017869Y0000970985D01*
X0002030991Y0000962217D01*
X0002045572Y0000956177D01*
X0002061051Y0000953098D01*
X0002076833Y0000953098D01*
X0002092311Y0000956177D01*
X0002106892Y0000962217D01*
X0002120014Y0000970985D01*
X0002131173Y0000982144D01*
X0002139941Y0000995266D01*
X0002145981Y0001009847D01*
X0002149060Y0001025325D01*
X0002149060Y0001041107D01*
X0002500634Y0001041107D01*
X0002500634Y0001025325D01*
X0002503713Y0001009847D01*
X0002509753Y0000995266D01*
X0002518521Y0000982144D01*
X0002529680Y0000970985D01*
X0002542802Y0000962217D01*
X0002557383Y0000956177D01*
X0002572862Y0000953098D01*
X0002588644Y0000953098D01*
X0002604122Y0000956177D01*
X0002618703Y0000962217D01*
X0002631825Y0000970985D01*
X0002642984Y0000982144D01*
X0002651752Y0000995266D01*
X0002657792Y0001009847D01*
X0002660871Y0001025325D01*
X0002660871Y0001041107D01*
X0003032131Y0001041107D01*
X0003032131Y0001025325D01*
X0003035209Y0001009847D01*
X0003041249Y0000995266D01*
X0003050017Y0000982144D01*
X0003061176Y0000970985D01*
X0003074298Y0000962217D01*
X0003088879Y0000956177D01*
X0003104358Y0000953098D01*
X0003120140Y0000953098D01*
X0003135618Y0000956177D01*
X0003150199Y0000962217D01*
X0003163321Y0000970985D01*
X0003174480Y0000982144D01*
X0003183248Y0000995266D01*
X0003189288Y0001009847D01*
X0003192367Y0001025325D01*
X0003192367Y0001041107D01*
X0003189288Y0001056586D01*
X0003183248Y0001071167D01*
X0003174480Y0001084289D01*
X0003163321Y0001095448D01*
X0003150199Y0001104216D01*
X0003135618Y0001110256D01*
X0003120140Y0001113335D01*
X0003104358Y0001113335D01*
X0003088879Y0001110256D01*
X0003074298Y0001104216D01*
X0003061176Y0001095448D01*
X0003050017Y0001084289D01*
X0003041249Y0001071167D01*
X0003035209Y0001056586D01*
X0003032131Y0001041107D01*
X0002660871Y0001041107D01*
X0002657792Y0001056586D01*
X0002651752Y0001071167D01*
X0002642984Y0001084289D01*
X0002631825Y0001095448D01*
X0002618703Y0001104216D01*
X0002604122Y0001110256D01*
X0002588644Y0001113335D01*
X0002572862Y0001113335D01*
X0002557383Y0001110256D01*
X0002542802Y0001104216D01*
X0002529680Y0001095448D01*
X0002518521Y0001084289D01*
X0002509753Y0001071167D01*
X0002503713Y0001056586D01*
X0002500634Y0001041107D01*
X0002149060Y0001041107D01*
X0002145981Y0001056586D01*
X0002139941Y0001071167D01*
X0002131173Y0001084289D01*
X0002120014Y0001095448D01*
X0002106892Y0001104216D01*
X0002092311Y0001110256D01*
X0002076833Y0001113335D01*
X0002061051Y0001113335D01*
X0002045572Y0001110256D01*
X0002030991Y0001104216D01*
X0002017869Y0001095448D01*
X0002006710Y0001084289D01*
X0001997942Y0001071167D01*
X0001991902Y0001056586D01*
X0001988823Y0001041107D01*
X0001676619Y0001041107D01*
X0001673540Y0001056586D01*
X0001667500Y0001071167D01*
X0001658732Y0001084289D01*
X0001647573Y0001095448D01*
X0001634451Y0001104216D01*
X0001619870Y0001110256D01*
X0001604392Y0001113335D01*
X0001588610Y0001113335D01*
X0001573131Y0001110256D01*
X0001558550Y0001104216D01*
X0001545428Y0001095448D01*
X0001534269Y0001084289D01*
X0001525501Y0001071167D01*
X0001519461Y0001056586D01*
X0001516383Y0001041107D01*
X0001204178Y0001041107D01*
X0001201099Y0001056586D01*
X0001195059Y0001071167D01*
X0001186291Y0001084289D01*
X0001175132Y0001095448D01*
X0001162010Y0001104216D01*
X0001147429Y0001110256D01*
X0001131951Y0001113335D01*
X0001116169Y0001113335D01*
X0001100690Y0001110256D01*
X0001086110Y0001104216D01*
X0001072987Y0001095448D01*
X0001061828Y0001084289D01*
X0001053060Y0001071167D01*
X0001047020Y0001056586D01*
X0001043942Y0001041107D01*
X0000731737Y0001041107D01*
X0000728658Y0001056586D01*
X0000722618Y0001071167D01*
X0000713851Y0001084289D01*
X0000702691Y0001095448D01*
X0000689569Y0001104216D01*
X0000674988Y0001110256D01*
X0000659510Y0001113335D01*
X0000643728Y0001113335D01*
X0000628249Y0001110256D01*
X0000613669Y0001104216D01*
X0000600546Y0001095448D01*
X0000589387Y0001084289D01*
X0000580619Y0001071167D01*
X0000574580Y0001056586D01*
X0000571501Y0001041107D01*
X0000030949Y0001041107D01*
X0000030949Y0001336919D01*
X0000033096Y0001358812D01*
X0000071501Y0001358812D01*
X0000071501Y0001341479D01*
X0000074882Y0001324479D01*
X0000081515Y0001308466D01*
X0000091145Y0001294054D01*
X0000103401Y0001281798D01*
X0000117813Y0001272168D01*
X0000133826Y0001265535D01*
X0000150826Y0001262153D01*
X0000168159Y0001262153D01*
X0000185159Y0001265535D01*
X0000201173Y0001272168D01*
X0000215584Y0001281798D01*
X0000227841Y0001294054D01*
X0000237470Y0001308466D01*
X0000244103Y0001324479D01*
X0000247485Y0001341479D01*
X0000247485Y0001358812D01*
X0003890398Y0001358812D01*
X0003890398Y0001341479D01*
X0003893780Y0001324479D01*
X0003900413Y0001308466D01*
X0003910042Y0001294054D01*
X0003922299Y0001281798D01*
X0003936710Y0001272168D01*
X0003952724Y0001265535D01*
X0003969724Y0001262153D01*
X0003987057Y0001262153D01*
X0004004057Y0001265535D01*
X0004020070Y0001272168D01*
X0004034482Y0001281798D01*
X0004046738Y0001294054D01*
X0004056368Y0001308466D01*
X0004063001Y0001324479D01*
X0004066382Y0001341479D01*
X0004066382Y0001358812D01*
X0004063001Y0001375812D01*
X0004056368Y0001391825D01*
X0004046738Y0001406237D01*
X0004034482Y0001418493D01*
X0004020070Y0001428123D01*
X0004004057Y0001434756D01*
X0003987057Y0001438138D01*
X0003969724Y0001438138D01*
X0003952724Y0001434756D01*
X0003936710Y0001428123D01*
X0003922299Y0001418493D01*
X0003910042Y0001406237D01*
X0003900413Y0001391825D01*
X0003893780Y0001375812D01*
X0003890398Y0001358812D01*
X0000247485Y0001358812D01*
X0000244103Y0001375812D01*
X0000237470Y0001391825D01*
X0000227841Y0001406237D01*
X0000215584Y0001418493D01*
X0000201173Y0001428123D01*
X0000185159Y0001434756D01*
X0000168159Y0001438138D01*
X0000150826Y0001438138D01*
X0000133826Y0001434756D01*
X0000117813Y0001428123D01*
X0000103401Y0001418493D01*
X0000091145Y0001406237D01*
X0000081515Y0001391825D01*
X0000074882Y0001375812D01*
X0000071501Y0001358812D01*
X0000033096Y0001358812D01*
X0000033534Y0001363275D01*
X0000040777Y0001387266D01*
X0000052542Y0001409393D01*
X0000068381Y0001428813D01*
X0000087690Y0001444787D01*
X0000109734Y0001456706D01*
X0000133673Y0001464116D01*
X0000159946Y0001466878D01*
X0003976975Y0001466878D01*
X0004003331Y0001464294D01*
G04 next file*
%LPD*%
G04 Gerber Fmt 4.6, Leading zero omitted, Abs format (unit mm)*
G04 Created by KiCad (PCBNEW (5.1.6-0-10_14)) date 2020-09-02 21:54:56*
G01*
G04 APERTURE LIST*
G04 APERTURE END LIST*
D21*
G36*
X0004001318Y0003039344D02*
G01*
X0004025309Y0003032101D01*
X0004047436Y0003020336D01*
X0004066856Y0003004497D01*
X0004082830Y0002985188D01*
X0004094749Y0002963144D01*
X0004102159Y0002939205D01*
X0004104921Y0002912931D01*
X0004104921Y0001733698D01*
X0004102337Y0001707342D01*
X0004095093Y0001683352D01*
X0004083328Y0001661225D01*
X0004067490Y0001641805D01*
X0004048180Y0001625831D01*
X0004026136Y0001613912D01*
X0004002197Y0001606501D01*
X0003975924Y0001603740D01*
X0000158895Y0001603740D01*
X0000132539Y0001606324D01*
X0000108549Y0001613567D01*
X0000086422Y0001625332D01*
X0000067002Y0001641171D01*
X0000051028Y0001660480D01*
X0000039108Y0001682524D01*
X0000031698Y0001706464D01*
X0000029315Y0001729138D01*
X0000069488Y0001729138D01*
X0000069488Y0001711806D01*
X0000072869Y0001694806D01*
X0000079502Y0001678792D01*
X0000089132Y0001664380D01*
X0000101388Y0001652124D01*
X0000115800Y0001642494D01*
X0000131813Y0001635861D01*
X0000148813Y0001632480D01*
X0000166146Y0001632480D01*
X0000183146Y0001635861D01*
X0000199160Y0001642494D01*
X0000213572Y0001652124D01*
X0000225828Y0001664380D01*
X0000235457Y0001678792D01*
X0000242090Y0001694806D01*
X0000245472Y0001711806D01*
X0000245472Y0001729138D01*
X0003888385Y0001729138D01*
X0003888385Y0001711806D01*
X0003891767Y0001694806D01*
X0003898400Y0001678792D01*
X0003908029Y0001664380D01*
X0003920286Y0001652124D01*
X0003934698Y0001642494D01*
X0003950711Y0001635861D01*
X0003967711Y0001632480D01*
X0003985044Y0001632480D01*
X0004002044Y0001635861D01*
X0004018057Y0001642494D01*
X0004032469Y0001652124D01*
X0004044725Y0001664380D01*
X0004054355Y0001678792D01*
X0004060988Y0001694806D01*
X0004064370Y0001711806D01*
X0004064370Y0001729138D01*
X0004060988Y0001746138D01*
X0004054355Y0001762152D01*
X0004044725Y0001776564D01*
X0004032469Y0001788820D01*
X0004018057Y0001798450D01*
X0004002044Y0001805083D01*
X0003985044Y0001808464D01*
X0003967711Y0001808464D01*
X0003950711Y0001805083D01*
X0003934698Y0001798450D01*
X0003920286Y0001788820D01*
X0003908029Y0001776564D01*
X0003898400Y0001762152D01*
X0003891767Y0001746138D01*
X0003888385Y0001729138D01*
X0000245472Y0001729138D01*
X0000242090Y0001746138D01*
X0000235457Y0001762152D01*
X0000225828Y0001776564D01*
X0000213572Y0001788820D01*
X0000199160Y0001798450D01*
X0000183146Y0001805083D01*
X0000166146Y0001808464D01*
X0000148813Y0001808464D01*
X0000131813Y0001805083D01*
X0000115800Y0001798450D01*
X0000101388Y0001788820D01*
X0000089132Y0001776564D01*
X0000079502Y0001762152D01*
X0000072869Y0001746138D01*
X0000069488Y0001729138D01*
X0000029315Y0001729138D01*
X0000028936Y0001732737D01*
X0000028936Y0002049229D01*
X0001002559Y0002049229D01*
X0001002559Y0002033447D01*
X0001005637Y0002017969D01*
X0001011677Y0002003388D01*
X0001020445Y0001990266D01*
X0001031604Y0001979106D01*
X0001044727Y0001970338D01*
X0001059307Y0001964299D01*
X0001074786Y0001961220D01*
X0001090568Y0001961220D01*
X0001106046Y0001964299D01*
X0001120627Y0001970338D01*
X0001133749Y0001979106D01*
X0001144908Y0001990266D01*
X0001153676Y0002003388D01*
X0001159716Y0002017969D01*
X0001162795Y0002033447D01*
X0001162795Y0002049229D01*
X0001396259Y0002049229D01*
X0001396259Y0002033447D01*
X0001399338Y0002017969D01*
X0001405378Y0002003388D01*
X0001414146Y0001990266D01*
X0001425305Y0001979106D01*
X0001438427Y0001970338D01*
X0001453008Y0001964299D01*
X0001468487Y0001961220D01*
X0001484268Y0001961220D01*
X0001499747Y0001964299D01*
X0001514328Y0001970338D01*
X0001527450Y0001979106D01*
X0001538609Y0001990266D01*
X0001547377Y0002003388D01*
X0001553417Y0002017969D01*
X0001556496Y0002033447D01*
X0001556496Y0002049229D01*
X0001553417Y0002064708D01*
X0001547377Y0002079288D01*
X0001538609Y0002092410D01*
X0001527450Y0002103570D01*
X0001514328Y0002112338D01*
X0001499747Y0002118377D01*
X0001484268Y0002121456D01*
X0001468487Y0002121456D01*
X0001453008Y0002118377D01*
X0001438427Y0002112338D01*
X0001425305Y0002103570D01*
X0001414146Y0002092410D01*
X0001405378Y0002079288D01*
X0001399338Y0002064708D01*
X0001396259Y0002049229D01*
X0001162795Y0002049229D01*
X0001159716Y0002064708D01*
X0001153676Y0002079288D01*
X0001144908Y0002092410D01*
X0001133749Y0002103570D01*
X0001120627Y0002112338D01*
X0001106046Y0002118377D01*
X0001090568Y0002121456D01*
X0001074786Y0002121456D01*
X0001059307Y0002118377D01*
X0001044727Y0002112338D01*
X0001031604Y0002103570D01*
X0001020445Y0002092410D01*
X0001011677Y0002079288D01*
X0001005637Y0002064708D01*
X0001002559Y0002049229D01*
X0000028936Y0002049229D01*
X0000028937Y0002561023D01*
X0000234072Y0002561023D01*
X0000234212Y0002559602D01*
X0000234212Y0002204177D01*
X0000234072Y0002202755D01*
X0000234631Y0002197083D01*
X0000236285Y0002191628D01*
X0000238972Y0002186601D01*
X0000242589Y0002182195D01*
X0000246995Y0002178579D01*
X0000252022Y0002175892D01*
X0000257476Y0002174237D01*
X0000261728Y0002173818D01*
X0000263149Y0002173678D01*
X0000264571Y0002173818D01*
X0000915271Y0002173818D01*
X0000916692Y0002173678D01*
X0000918114Y0002173818D01*
X0000922365Y0002174237D01*
X0000927820Y0002175892D01*
X0000932847Y0002178579D01*
X0000937253Y0002182195D01*
X0000940869Y0002186601D01*
X0000943556Y0002191628D01*
X0000945211Y0002197083D01*
X0000945769Y0002202755D01*
X0000945629Y0002204177D01*
X0000945629Y0002559602D01*
X0000945769Y0002561023D01*
X0000945211Y0002566696D01*
X0000943556Y0002572150D01*
X0000940869Y0002577177D01*
X0000937253Y0002581584D01*
X0000932847Y0002585200D01*
X0000927820Y0002587887D01*
X0000922365Y0002589541D01*
X0000918114Y0002589960D01*
X0000916692Y0002590100D01*
X0000915271Y0002589960D01*
X0000264571Y0002589960D01*
X0000263149Y0002590100D01*
X0000261728Y0002589960D01*
X0000257476Y0002589541D01*
X0000252022Y0002587887D01*
X0000246995Y0002585200D01*
X0000242589Y0002581584D01*
X0000238972Y0002577177D01*
X0000236285Y0002572150D01*
X0000234631Y0002566696D01*
X0000234072Y0002561023D01*
X0000028937Y0002561023D01*
X0000028937Y0002658387D01*
X0001298188Y0002658387D01*
X0001298188Y0002645707D01*
X0001300662Y0002633271D01*
X0001305515Y0002621556D01*
X0001312559Y0002611013D01*
X0001321525Y0002602047D01*
X0001332068Y0002595003D01*
X0001343782Y0002590150D01*
X0001356219Y0002587677D01*
X0001368898Y0002587677D01*
X0001381335Y0002590150D01*
X0001393049Y0002595003D01*
X0001403592Y0002602047D01*
X0001412558Y0002611013D01*
X0001419603Y0002621556D01*
X0001424455Y0002633271D01*
X0001426929Y0002645707D01*
X0001426929Y0002651574D01*
X0001636277Y0002651574D01*
X0001636417Y0002650152D01*
X0001636417Y0002113626D01*
X0001636277Y0002112204D01*
X0001636836Y0002106532D01*
X0001638490Y0002101077D01*
X0001641177Y0002096050D01*
X0001644793Y0002091644D01*
X0001649200Y0002088028D01*
X0001654227Y0002085341D01*
X0001659681Y0002083686D01*
X0001665354Y0002083127D01*
X0001666775Y0002083267D01*
X0002297791Y0002083267D01*
X0002299212Y0002083127D01*
X0002300634Y0002083267D01*
X0002304885Y0002083686D01*
X0002310339Y0002085341D01*
X0002315366Y0002088028D01*
X0002319773Y0002091644D01*
X0002323389Y0002096050D01*
X0002326076Y0002101077D01*
X0002327730Y0002106532D01*
X0002328289Y0002112204D01*
X0002328149Y0002113626D01*
X0002328149Y0002636614D01*
X0002394151Y0002636614D01*
X0002394291Y0002635192D01*
X0002394291Y0001999452D01*
X0002394151Y0001998031D01*
X0002394710Y0001992358D01*
X0002396364Y0001986904D01*
X0002399051Y0001981877D01*
X0002402667Y0001977470D01*
X0002407073Y0001973854D01*
X0002412101Y0001971167D01*
X0002417555Y0001969513D01*
X0002423228Y0001968954D01*
X0002424649Y0001969094D01*
X0003016295Y0001969094D01*
X0003017716Y0001968954D01*
X0003019137Y0001969094D01*
X0003023389Y0001969513D01*
X0003028843Y0001971167D01*
X0003033870Y0001973854D01*
X0003038277Y0001977470D01*
X0003041893Y0001981877D01*
X0003044580Y0001986904D01*
X0003046234Y0001992358D01*
X0003046793Y0001998031D01*
X0003046653Y0001999452D01*
X0003046653Y0002635192D01*
X0003046793Y0002636614D01*
X0003094938Y0002636614D01*
X0003095078Y0002635192D01*
X0003095078Y0001999452D01*
X0003094938Y0001998031D01*
X0003095497Y0001992358D01*
X0003097152Y0001986904D01*
X0003099839Y0001981877D01*
X0003103455Y0001977470D01*
X0003107861Y0001973854D01*
X0003112888Y0001971167D01*
X0003118343Y0001969513D01*
X0003124015Y0001968954D01*
X0003125437Y0001969094D01*
X0003730861Y0001969094D01*
X0003732283Y0001968954D01*
X0003733704Y0001969094D01*
X0003737956Y0001969513D01*
X0003743410Y0001971167D01*
X0003748437Y0001973854D01*
X0003752843Y0001977470D01*
X0003756460Y0001981877D01*
X0003759147Y0001986904D01*
X0003760801Y0001992358D01*
X0003761360Y0001998031D01*
X0003761220Y0001999452D01*
X0003761220Y0002635192D01*
X0003761360Y0002636614D01*
X0003760801Y0002642286D01*
X0003759147Y0002647741D01*
X0003756460Y0002652768D01*
X0003752843Y0002657174D01*
X0003748437Y0002660790D01*
X0003743410Y0002663477D01*
X0003737956Y0002665132D01*
X0003733704Y0002665551D01*
X0003732283Y0002665691D01*
X0003730861Y0002665551D01*
X0003125437Y0002665551D01*
X0003124015Y0002665691D01*
X0003122594Y0002665551D01*
X0003118343Y0002665132D01*
X0003112888Y0002663477D01*
X0003107861Y0002660790D01*
X0003103455Y0002657174D01*
X0003099839Y0002652768D01*
X0003097152Y0002647741D01*
X0003095497Y0002642286D01*
X0003094938Y0002636614D01*
X0003046793Y0002636614D01*
X0003046234Y0002642286D01*
X0003044580Y0002647741D01*
X0003041893Y0002652768D01*
X0003038277Y0002657174D01*
X0003033870Y0002660790D01*
X0003028843Y0002663477D01*
X0003023389Y0002665132D01*
X0003019137Y0002665551D01*
X0003017716Y0002665691D01*
X0003016295Y0002665551D01*
X0002424649Y0002665551D01*
X0002423228Y0002665691D01*
X0002421806Y0002665551D01*
X0002417555Y0002665132D01*
X0002412101Y0002663477D01*
X0002407073Y0002660790D01*
X0002402667Y0002657174D01*
X0002399051Y0002652768D01*
X0002396364Y0002647741D01*
X0002394710Y0002642286D01*
X0002394151Y0002636614D01*
X0002328149Y0002636614D01*
X0002328149Y0002650153D01*
X0002328289Y0002651574D01*
X0002327730Y0002657247D01*
X0002326076Y0002662702D01*
X0002323389Y0002667729D01*
X0002319773Y0002672135D01*
X0002315366Y0002675751D01*
X0002310339Y0002678438D01*
X0002304885Y0002680093D01*
X0002300634Y0002680511D01*
X0002299212Y0002680651D01*
X0002297791Y0002680511D01*
X0001666775Y0002680511D01*
X0001665354Y0002680651D01*
X0001663932Y0002680511D01*
X0001659681Y0002680093D01*
X0001654227Y0002678438D01*
X0001649200Y0002675751D01*
X0001644793Y0002672135D01*
X0001641177Y0002667729D01*
X0001638490Y0002662702D01*
X0001636836Y0002657247D01*
X0001636277Y0002651574D01*
X0001426929Y0002651574D01*
X0001426929Y0002658387D01*
X0001424455Y0002670823D01*
X0001419603Y0002682537D01*
X0001412558Y0002693080D01*
X0001403592Y0002702046D01*
X0001393049Y0002709091D01*
X0001381335Y0002713943D01*
X0001368898Y0002716417D01*
X0001356219Y0002716417D01*
X0001343782Y0002713943D01*
X0001332068Y0002709091D01*
X0001321525Y0002702046D01*
X0001312559Y0002693080D01*
X0001305515Y0002682537D01*
X0001300662Y0002670823D01*
X0001298188Y0002658387D01*
X0000028937Y0002658387D01*
X0000028937Y0002911970D01*
X0000031083Y0002933863D01*
X0000069488Y0002933863D01*
X0000069488Y0002916530D01*
X0000072869Y0002899530D01*
X0000079502Y0002883516D01*
X0000089132Y0002869105D01*
X0000101388Y0002856848D01*
X0000115800Y0002847219D01*
X0000131813Y0002840586D01*
X0000148813Y0002837204D01*
X0000166146Y0002837204D01*
X0000183146Y0002840586D01*
X0000199160Y0002847219D01*
X0000213572Y0002856848D01*
X0000225828Y0002869105D01*
X0000235457Y0002883516D01*
X0000242090Y0002899530D01*
X0000245472Y0002916530D01*
X0000245472Y0002933863D01*
X0003888385Y0002933863D01*
X0003888385Y0002916530D01*
X0003891767Y0002899530D01*
X0003898400Y0002883516D01*
X0003908029Y0002869105D01*
X0003920286Y0002856848D01*
X0003934698Y0002847219D01*
X0003950711Y0002840586D01*
X0003967711Y0002837204D01*
X0003985044Y0002837204D01*
X0004002044Y0002840586D01*
X0004018057Y0002847219D01*
X0004032469Y0002856848D01*
X0004044725Y0002869105D01*
X0004054355Y0002883516D01*
X0004060988Y0002899530D01*
X0004064370Y0002916530D01*
X0004064370Y0002933863D01*
X0004060988Y0002950863D01*
X0004054355Y0002966876D01*
X0004044725Y0002981288D01*
X0004032469Y0002993544D01*
X0004018057Y0003003174D01*
X0004002044Y0003009807D01*
X0003985044Y0003013188D01*
X0003967711Y0003013188D01*
X0003950711Y0003009807D01*
X0003934698Y0003003174D01*
X0003920286Y0002993544D01*
X0003908029Y0002981288D01*
X0003898400Y0002966876D01*
X0003891767Y0002950863D01*
X0003888385Y0002933863D01*
X0000245472Y0002933863D01*
X0000242090Y0002950863D01*
X0000235457Y0002966876D01*
X0000225828Y0002981288D01*
X0000213572Y0002993544D01*
X0000199160Y0003003174D01*
X0000183146Y0003009807D01*
X0000166146Y0003013188D01*
X0000148813Y0003013188D01*
X0000131813Y0003009807D01*
X0000115800Y0003003174D01*
X0000101388Y0002993544D01*
X0000089132Y0002981288D01*
X0000079502Y0002966876D01*
X0000072869Y0002950863D01*
X0000069488Y0002933863D01*
X0000031083Y0002933863D01*
X0000031521Y0002938326D01*
X0000038764Y0002962317D01*
X0000050529Y0002984443D01*
X0000066368Y0003003864D01*
X0000085677Y0003019837D01*
X0000107721Y0003031757D01*
X0000131660Y0003039167D01*
X0000157933Y0003041929D01*
X0003974961Y0003041929D01*
X0004001318Y0003039344D01*
G37*
X0004001318Y0003039344D02*
X0004025309Y0003032101D01*
X0004047436Y0003020336D01*
X0004066856Y0003004497D01*
X0004082830Y0002985188D01*
X0004094749Y0002963144D01*
X0004102159Y0002939205D01*
X0004104921Y0002912931D01*
X0004104921Y0001733698D01*
X0004102337Y0001707342D01*
X0004095093Y0001683352D01*
X0004083328Y0001661225D01*
X0004067490Y0001641805D01*
X0004048180Y0001625831D01*
X0004026136Y0001613912D01*
X0004002197Y0001606501D01*
X0003975924Y0001603740D01*
X0000158895Y0001603740D01*
X0000132539Y0001606324D01*
X0000108549Y0001613567D01*
X0000086422Y0001625332D01*
X0000067002Y0001641171D01*
X0000051028Y0001660480D01*
X0000039108Y0001682524D01*
X0000031698Y0001706464D01*
X0000029315Y0001729138D01*
X0000069488Y0001729138D01*
X0000069488Y0001711806D01*
X0000072869Y0001694806D01*
X0000079502Y0001678792D01*
X0000089132Y0001664380D01*
X0000101388Y0001652124D01*
X0000115800Y0001642494D01*
X0000131813Y0001635861D01*
X0000148813Y0001632480D01*
X0000166146Y0001632480D01*
X0000183146Y0001635861D01*
X0000199160Y0001642494D01*
X0000213572Y0001652124D01*
X0000225828Y0001664380D01*
X0000235457Y0001678792D01*
X0000242090Y0001694806D01*
X0000245472Y0001711806D01*
X0000245472Y0001729138D01*
X0003888385Y0001729138D01*
X0003888385Y0001711806D01*
X0003891767Y0001694806D01*
X0003898400Y0001678792D01*
X0003908029Y0001664380D01*
X0003920286Y0001652124D01*
X0003934698Y0001642494D01*
X0003950711Y0001635861D01*
X0003967711Y0001632480D01*
X0003985044Y0001632480D01*
X0004002044Y0001635861D01*
X0004018057Y0001642494D01*
X0004032469Y0001652124D01*
X0004044725Y0001664380D01*
X0004054355Y0001678792D01*
X0004060988Y0001694806D01*
X0004064370Y0001711806D01*
X0004064370Y0001729138D01*
X0004060988Y0001746138D01*
X0004054355Y0001762152D01*
X0004044725Y0001776564D01*
X0004032469Y0001788820D01*
X0004018057Y0001798450D01*
X0004002044Y0001805083D01*
X0003985044Y0001808464D01*
X0003967711Y0001808464D01*
X0003950711Y0001805083D01*
X0003934698Y0001798450D01*
X0003920286Y0001788820D01*
X0003908029Y0001776564D01*
X0003898400Y0001762152D01*
X0003891767Y0001746138D01*
X0003888385Y0001729138D01*
X0000245472Y0001729138D01*
X0000242090Y0001746138D01*
X0000235457Y0001762152D01*
X0000225828Y0001776564D01*
X0000213572Y0001788820D01*
X0000199160Y0001798450D01*
X0000183146Y0001805083D01*
X0000166146Y0001808464D01*
X0000148813Y0001808464D01*
X0000131813Y0001805083D01*
X0000115800Y0001798450D01*
X0000101388Y0001788820D01*
X0000089132Y0001776564D01*
X0000079502Y0001762152D01*
X0000072869Y0001746138D01*
X0000069488Y0001729138D01*
X0000029315Y0001729138D01*
X0000028936Y0001732737D01*
X0000028936Y0002049229D01*
X0001002559Y0002049229D01*
X0001002559Y0002033447D01*
X0001005637Y0002017969D01*
X0001011677Y0002003388D01*
X0001020445Y0001990266D01*
X0001031604Y0001979106D01*
X0001044727Y0001970338D01*
X0001059307Y0001964299D01*
X0001074786Y0001961220D01*
X0001090568Y0001961220D01*
X0001106046Y0001964299D01*
X0001120627Y0001970338D01*
X0001133749Y0001979106D01*
X0001144908Y0001990266D01*
X0001153676Y0002003388D01*
X0001159716Y0002017969D01*
X0001162795Y0002033447D01*
X0001162795Y0002049229D01*
X0001396259Y0002049229D01*
X0001396259Y0002033447D01*
X0001399338Y0002017969D01*
X0001405378Y0002003388D01*
X0001414146Y0001990266D01*
X0001425305Y0001979106D01*
X0001438427Y0001970338D01*
X0001453008Y0001964299D01*
X0001468487Y0001961220D01*
X0001484268Y0001961220D01*
X0001499747Y0001964299D01*
X0001514328Y0001970338D01*
X0001527450Y0001979106D01*
X0001538609Y0001990266D01*
X0001547377Y0002003388D01*
X0001553417Y0002017969D01*
X0001556496Y0002033447D01*
X0001556496Y0002049229D01*
X0001553417Y0002064708D01*
X0001547377Y0002079288D01*
X0001538609Y0002092410D01*
X0001527450Y0002103570D01*
X0001514328Y0002112338D01*
X0001499747Y0002118377D01*
X0001484268Y0002121456D01*
X0001468487Y0002121456D01*
X0001453008Y0002118377D01*
X0001438427Y0002112338D01*
X0001425305Y0002103570D01*
X0001414146Y0002092410D01*
X0001405378Y0002079288D01*
X0001399338Y0002064708D01*
X0001396259Y0002049229D01*
X0001162795Y0002049229D01*
X0001159716Y0002064708D01*
X0001153676Y0002079288D01*
X0001144908Y0002092410D01*
X0001133749Y0002103570D01*
X0001120627Y0002112338D01*
X0001106046Y0002118377D01*
X0001090568Y0002121456D01*
X0001074786Y0002121456D01*
X0001059307Y0002118377D01*
X0001044727Y0002112338D01*
X0001031604Y0002103570D01*
X0001020445Y0002092410D01*
X0001011677Y0002079288D01*
X0001005637Y0002064708D01*
X0001002559Y0002049229D01*
X0000028936Y0002049229D01*
X0000028937Y0002561023D01*
X0000234072Y0002561023D01*
X0000234212Y0002559602D01*
X0000234212Y0002204177D01*
X0000234072Y0002202755D01*
X0000234631Y0002197083D01*
X0000236285Y0002191628D01*
X0000238972Y0002186601D01*
X0000242589Y0002182195D01*
X0000246995Y0002178579D01*
X0000252022Y0002175892D01*
X0000257476Y0002174237D01*
X0000261728Y0002173818D01*
X0000263149Y0002173678D01*
X0000264571Y0002173818D01*
X0000915271Y0002173818D01*
X0000916692Y0002173678D01*
X0000918114Y0002173818D01*
X0000922365Y0002174237D01*
X0000927820Y0002175892D01*
X0000932847Y0002178579D01*
X0000937253Y0002182195D01*
X0000940869Y0002186601D01*
X0000943556Y0002191628D01*
X0000945211Y0002197083D01*
X0000945769Y0002202755D01*
X0000945629Y0002204177D01*
X0000945629Y0002559602D01*
X0000945769Y0002561023D01*
X0000945211Y0002566696D01*
X0000943556Y0002572150D01*
X0000940869Y0002577177D01*
X0000937253Y0002581584D01*
X0000932847Y0002585200D01*
X0000927820Y0002587887D01*
X0000922365Y0002589541D01*
X0000918114Y0002589960D01*
X0000916692Y0002590100D01*
X0000915271Y0002589960D01*
X0000264571Y0002589960D01*
X0000263149Y0002590100D01*
X0000261728Y0002589960D01*
X0000257476Y0002589541D01*
X0000252022Y0002587887D01*
X0000246995Y0002585200D01*
X0000242589Y0002581584D01*
X0000238972Y0002577177D01*
X0000236285Y0002572150D01*
X0000234631Y0002566696D01*
X0000234072Y0002561023D01*
X0000028937Y0002561023D01*
X0000028937Y0002658387D01*
X0001298188Y0002658387D01*
X0001298188Y0002645707D01*
X0001300662Y0002633271D01*
X0001305515Y0002621556D01*
X0001312559Y0002611013D01*
X0001321525Y0002602047D01*
X0001332068Y0002595003D01*
X0001343782Y0002590150D01*
X0001356219Y0002587677D01*
X0001368898Y0002587677D01*
X0001381335Y0002590150D01*
X0001393049Y0002595003D01*
X0001403592Y0002602047D01*
X0001412558Y0002611013D01*
X0001419603Y0002621556D01*
X0001424455Y0002633271D01*
X0001426929Y0002645707D01*
X0001426929Y0002651574D01*
X0001636277Y0002651574D01*
X0001636417Y0002650152D01*
X0001636417Y0002113626D01*
X0001636277Y0002112204D01*
X0001636836Y0002106532D01*
X0001638490Y0002101077D01*
X0001641177Y0002096050D01*
X0001644793Y0002091644D01*
X0001649200Y0002088028D01*
X0001654227Y0002085341D01*
X0001659681Y0002083686D01*
X0001665354Y0002083127D01*
X0001666775Y0002083267D01*
X0002297791Y0002083267D01*
X0002299212Y0002083127D01*
X0002300634Y0002083267D01*
X0002304885Y0002083686D01*
X0002310339Y0002085341D01*
X0002315366Y0002088028D01*
X0002319773Y0002091644D01*
X0002323389Y0002096050D01*
X0002326076Y0002101077D01*
X0002327730Y0002106532D01*
X0002328289Y0002112204D01*
X0002328149Y0002113626D01*
X0002328149Y0002636614D01*
X0002394151Y0002636614D01*
X0002394291Y0002635192D01*
X0002394291Y0001999452D01*
X0002394151Y0001998031D01*
X0002394710Y0001992358D01*
X0002396364Y0001986904D01*
X0002399051Y0001981877D01*
X0002402667Y0001977470D01*
X0002407073Y0001973854D01*
X0002412101Y0001971167D01*
X0002417555Y0001969513D01*
X0002423228Y0001968954D01*
X0002424649Y0001969094D01*
X0003016295Y0001969094D01*
X0003017716Y0001968954D01*
X0003019137Y0001969094D01*
X0003023389Y0001969513D01*
X0003028843Y0001971167D01*
X0003033870Y0001973854D01*
X0003038277Y0001977470D01*
X0003041893Y0001981877D01*
X0003044580Y0001986904D01*
X0003046234Y0001992358D01*
X0003046793Y0001998031D01*
X0003046653Y0001999452D01*
X0003046653Y0002635192D01*
X0003046793Y0002636614D01*
X0003094938Y0002636614D01*
X0003095078Y0002635192D01*
X0003095078Y0001999452D01*
X0003094938Y0001998031D01*
X0003095497Y0001992358D01*
X0003097152Y0001986904D01*
X0003099839Y0001981877D01*
X0003103455Y0001977470D01*
X0003107861Y0001973854D01*
X0003112888Y0001971167D01*
X0003118343Y0001969513D01*
X0003124015Y0001968954D01*
X0003125437Y0001969094D01*
X0003730861Y0001969094D01*
X0003732283Y0001968954D01*
X0003733704Y0001969094D01*
X0003737956Y0001969513D01*
X0003743410Y0001971167D01*
X0003748437Y0001973854D01*
X0003752843Y0001977470D01*
X0003756460Y0001981877D01*
X0003759147Y0001986904D01*
X0003760801Y0001992358D01*
X0003761360Y0001998031D01*
X0003761220Y0001999452D01*
X0003761220Y0002635192D01*
X0003761360Y0002636614D01*
X0003760801Y0002642286D01*
X0003759147Y0002647741D01*
X0003756460Y0002652768D01*
X0003752843Y0002657174D01*
X0003748437Y0002660790D01*
X0003743410Y0002663477D01*
X0003737956Y0002665132D01*
X0003733704Y0002665551D01*
X0003732283Y0002665691D01*
X0003730861Y0002665551D01*
X0003125437Y0002665551D01*
X0003124015Y0002665691D01*
X0003122594Y0002665551D01*
X0003118343Y0002665132D01*
X0003112888Y0002663477D01*
X0003107861Y0002660790D01*
X0003103455Y0002657174D01*
X0003099839Y0002652768D01*
X0003097152Y0002647741D01*
X0003095497Y0002642286D01*
X0003094938Y0002636614D01*
X0003046793Y0002636614D01*
X0003046234Y0002642286D01*
X0003044580Y0002647741D01*
X0003041893Y0002652768D01*
X0003038277Y0002657174D01*
X0003033870Y0002660790D01*
X0003028843Y0002663477D01*
X0003023389Y0002665132D01*
X0003019137Y0002665551D01*
X0003017716Y0002665691D01*
X0003016295Y0002665551D01*
X0002424649Y0002665551D01*
X0002423228Y0002665691D01*
X0002421806Y0002665551D01*
X0002417555Y0002665132D01*
X0002412101Y0002663477D01*
X0002407073Y0002660790D01*
X0002402667Y0002657174D01*
X0002399051Y0002652768D01*
X0002396364Y0002647741D01*
X0002394710Y0002642286D01*
X0002394151Y0002636614D01*
X0002328149Y0002636614D01*
X0002328149Y0002650153D01*
X0002328289Y0002651574D01*
X0002327730Y0002657247D01*
X0002326076Y0002662702D01*
X0002323389Y0002667729D01*
X0002319773Y0002672135D01*
X0002315366Y0002675751D01*
X0002310339Y0002678438D01*
X0002304885Y0002680093D01*
X0002300634Y0002680511D01*
X0002299212Y0002680651D01*
X0002297791Y0002680511D01*
X0001666775Y0002680511D01*
X0001665354Y0002680651D01*
X0001663932Y0002680511D01*
X0001659681Y0002680093D01*
X0001654227Y0002678438D01*
X0001649200Y0002675751D01*
X0001644793Y0002672135D01*
X0001641177Y0002667729D01*
X0001638490Y0002662702D01*
X0001636836Y0002657247D01*
X0001636277Y0002651574D01*
X0001426929Y0002651574D01*
X0001426929Y0002658387D01*
X0001424455Y0002670823D01*
X0001419603Y0002682537D01*
X0001412558Y0002693080D01*
X0001403592Y0002702046D01*
X0001393049Y0002709091D01*
X0001381335Y0002713943D01*
X0001368898Y0002716417D01*
X0001356219Y0002716417D01*
X0001343782Y0002713943D01*
X0001332068Y0002709091D01*
X0001321525Y0002702046D01*
X0001312559Y0002693080D01*
X0001305515Y0002682537D01*
X0001300662Y0002670823D01*
X0001298188Y0002658387D01*
X0000028937Y0002658387D01*
X0000028937Y0002911970D01*
X0000031083Y0002933863D01*
X0000069488Y0002933863D01*
X0000069488Y0002916530D01*
X0000072869Y0002899530D01*
X0000079502Y0002883516D01*
X0000089132Y0002869105D01*
X0000101388Y0002856848D01*
X0000115800Y0002847219D01*
X0000131813Y0002840586D01*
X0000148813Y0002837204D01*
X0000166146Y0002837204D01*
X0000183146Y0002840586D01*
X0000199160Y0002847219D01*
X0000213572Y0002856848D01*
X0000225828Y0002869105D01*
X0000235457Y0002883516D01*
X0000242090Y0002899530D01*
X0000245472Y0002916530D01*
X0000245472Y0002933863D01*
X0003888385Y0002933863D01*
X0003888385Y0002916530D01*
X0003891767Y0002899530D01*
X0003898400Y0002883516D01*
X0003908029Y0002869105D01*
X0003920286Y0002856848D01*
X0003934698Y0002847219D01*
X0003950711Y0002840586D01*
X0003967711Y0002837204D01*
X0003985044Y0002837204D01*
X0004002044Y0002840586D01*
X0004018057Y0002847219D01*
X0004032469Y0002856848D01*
X0004044725Y0002869105D01*
X0004054355Y0002883516D01*
X0004060988Y0002899530D01*
X0004064370Y0002916530D01*
X0004064370Y0002933863D01*
X0004060988Y0002950863D01*
X0004054355Y0002966876D01*
X0004044725Y0002981288D01*
X0004032469Y0002993544D01*
X0004018057Y0003003174D01*
X0004002044Y0003009807D01*
X0003985044Y0003013188D01*
X0003967711Y0003013188D01*
X0003950711Y0003009807D01*
X0003934698Y0003003174D01*
X0003920286Y0002993544D01*
X0003908029Y0002981288D01*
X0003898400Y0002966876D01*
X0003891767Y0002950863D01*
X0003888385Y0002933863D01*
X0000245472Y0002933863D01*
X0000242090Y0002950863D01*
X0000235457Y0002966876D01*
X0000225828Y0002981288D01*
X0000213572Y0002993544D01*
X0000199160Y0003003174D01*
X0000183146Y0003009807D01*
X0000166146Y0003013188D01*
X0000148813Y0003013188D01*
X0000131813Y0003009807D01*
X0000115800Y0003003174D01*
X0000101388Y0002993544D01*
X0000089132Y0002981288D01*
X0000079502Y0002966876D01*
X0000072869Y0002950863D01*
X0000069488Y0002933863D01*
X0000031083Y0002933863D01*
X0000031521Y0002938326D01*
X0000038764Y0002962317D01*
X0000050529Y0002984443D01*
X0000066368Y0003003864D01*
X0000085677Y0003019837D01*
X0000107721Y0003031757D01*
X0000131660Y0003039167D01*
X0000157933Y0003041929D01*
X0003974961Y0003041929D01*
X0004001318Y0003039344D01*
M02*